<svg width="72" height="94" viewBox="0 0 72 94" fill="none" xmlns="http://www.w3.org/2000/svg"><g clip-path="url(#clip0_505_6892)"><path d="M36 94c19.882 0 36-5.414 36-12.093 0-6.678-16.118-12.092-36-12.092S0 75.229 0 81.907C0 88.586 16.118 94 36 94z" fill="#CFDDBB"/><path d="M65.281 63.51c.685-5.468-11.875-11.532-28.052-13.542S7.382 50.76 6.697 56.23C6.013 61.7 18.572 67.763 34.75 69.773s29.847-.793 30.532-6.262z" fill="#769D91"/><path d="M37.227 15.417C46.282 13.934 53.07 9.385 52.39 5.258 51.708 1.132 43.815-1.01 34.76.473 25.706 1.957 18.918 6.505 19.6 10.632c.681 4.126 8.574 6.269 17.628 4.785z" fill="#C1C4D6"/><path d="M36.508 49.256c14.75-.83 26.48-5.517 26.2-10.469-.281-4.952-12.466-8.295-27.216-7.465-14.75.829-26.48 5.516-26.199 10.468.28 4.953 12.465 8.295 27.215 7.466z" fill="#A87BC9"/><path d="M58.298 25.325c.32-4.137-9.388-8.257-21.685-9.202-12.296-.945-22.524 1.643-22.844 5.78-.32 4.138 9.388 8.258 21.684 9.203 12.297.945 22.525-1.643 22.845-5.78z" fill="#8B85CA"/></g><defs><clipPath id="clip0_505_6892"><path fill="#fff" d="M0 0h72v94H0z"/></clipPath></defs></svg>