<svg width="148" height="70" viewBox="0 0 148 70" fill="none" xmlns="http://www.w3.org/2000/svg"><g clip-path="url(#clip0_469_4419)"><path d="M9.161 68.956c.027.088.06.174.097.259.026.077.058.153.096.226.032.097.064.161.096.258a2.198 2.198 0 01-.771.065 2.44 2.44 0 01-.643-.194 1.107 1.107 0 01-.514-.614 7.161 7.161 0 01-.29-.776c-.16-.388-.321-.84-.514-1.325H2.797c-.193.517-.386.97-.515 1.325a7.081 7.081 0 00-.29.776 1.227 1.227 0 01-.513.614 2.44 2.44 0 01-.643.194 2.32 2.32 0 01-.804-.065c.032-.097.064-.161.097-.258.032-.097.064-.162.096-.226a.97.97 0 01.129-.259c.064-.162.192-.453.353-.873.16-.42.354-.873.547-1.39.192-.517.45-1.099.675-1.68.225-.582.45-1.132.675-1.681.225-.55.385-1.002.546-1.39.16-.388.29-.679.354-.84a3.54 3.54 0 01.321-.615c.101-.134.22-.254.354-.355a.754.754 0 01.321-.162.886.886 0 01.29-.032.886.886 0 01.289.032.754.754 0 01.321.162c.126.11.244.229.354.355.139.186.247.394.321.614.065.162.193.453.354.84.16.389.353.873.546 1.39.193.518.45 1.1.675 1.681.225.582.45 1.132.675 1.681.225.55.386 1.002.547 1.39.16.388.225.711.29.873zm-2.99-3.459c-.192-.452-.353-.905-.546-1.357-.193-.453-.321-.84-.45-1.196-.16-.42-.321-.808-.45-1.164-.16.356-.29.744-.45 1.164-.128.355-.29.743-.45 1.196-.16.452-.353.905-.514 1.357h2.86zm8.873 2.909v.68c-.008.14.002.282.032.42 0 .097.032.193.032.258a2.276 2.276 0 01-1.318-.355c-.321-.227-.45-.647-.45-1.197l.032-5.882c-.02-.38.058-.758.225-1.1.153-.286.374-.53.643-.71a2.53 2.53 0 01.964-.388c.386-.065.772-.13 1.222-.162a5.17 5.17 0 011.382.097c.477.09.934.265 1.35.517.417.247.77.59 1.029 1.002a2.71 2.71 0 01.45 1.584c.024.405-.031.812-.16 1.196a3.77 3.77 0 01-.58 1.131c-.288.355-.65.641-1.06.84a3.574 3.574 0 01-1.607.324 6.811 6.811 0 01-.868-.065 4.599 4.599 0 01-.708-.129c-.225-.065-.45-.13-.643-.194v2.133h.033zm1.928-3.167c.53.022 1.05-.163 1.447-.517.386-.356.546-.873.514-1.584a2.13 2.13 0 00-.257-.938 1.368 1.368 0 00-.546-.582 2.736 2.736 0 00-.772-.29 4.118 4.118 0 00-.9-.033 1.723 1.723 0 00-.675.162c-.154.06-.296.147-.418.258a.74.74 0 00-.225.324 1.378 1.378 0 00-.064.355v2.457c.16.064.353.13.546.194.193.064.386.097.611.13.244.04.492.061.74.064zm3.633 1.164a4.036 4.036 0 01.257-1.52 2.67 2.67 0 01.707-.937c.28-.227.611-.383.964-.453a5.953 5.953 0 011.061-.129h.675c.042.18.053.366.032.55a1.093 1.093 0 01-.192.388.766.766 0 01-.515.226c-.16.032-.321.064-.45.097a1.133 1.133 0 00-.418.258 1.107 1.107 0 00-.289.55 3.45 3.45 0 00-.129.937v2.683a1.6 1.6 0 00.032.42c0 .097.033.194.033.259a2.1 2.1 0 01-1.286-.356 1.463 1.463 0 01-.45-1.196v-1.777h-.032zm9.225-2.199c.29.298.52.649.675 1.035.169.41.256.849.258 1.293.009.441-.068.88-.226 1.293a3.66 3.66 0 01-.61 1.034 2.68 2.68 0 01-.965.711 3.26 3.26 0 01-1.285.259 2.908 2.908 0 01-1.19-.259 3.127 3.127 0 01-1.64-1.745 3.433 3.433 0 01-.256-1.293c-.01-.442.067-.881.225-1.293.133-.383.34-.734.61-1.035.265-.306.594-.55.965-.71a3.26 3.26 0 011.286-.26 3.2 3.2 0 011.221.26c.346.186.66.426.932.71zm-2.186 4.493c.145-.004.287-.037.418-.097a1.06 1.06 0 00.45-.323 2.46 2.46 0 00.386-.646c.113-.355.167-.727.16-1.1a3.452 3.452 0 00-.16-1.098 1.57 1.57 0 00-.386-.647 1.305 1.305 0 00-.45-.323 1.103 1.103 0 00-.418-.097 1.103 1.103 0 00-.417.097 1.068 1.068 0 00-.45.323c-.168.19-.3.409-.386.647a3.452 3.452 0 00-.16 1.099c-.007.372.047.744.16 1.099.074.243.207.466.386.646.125.139.278.25.45.323.131.06.273.093.417.097zm7.651.485a1.345 1.345 0 01-.579.614c-.195.09-.4.155-.61.194a1.62 1.62 0 01-.676-.097c-.064-.161-.16-.388-.29-.71a21.61 21.61 0 00-.417-1.003c-.16-.355-.321-.743-.482-1.163-.16-.42-.322-.808-.482-1.164-.161-.356-.29-.711-.418-1.034-.129-.324-.225-.55-.29-.712-.032-.097-.064-.161-.096-.258a1.588 1.588 0 00-.096-.226c-.033-.097-.065-.162-.097-.259.262-.068.534-.09.804-.065.222.035.438.1.643.194.241.133.425.352.514.614.032.097.096.227.16.42.065.195.13.356.226.55.096.194.16.42.257.647.096.226.16.452.257.678.193.518.418 1.067.643 1.649.225-.582.418-1.131.643-1.648.096-.227.16-.453.257-.68.1-.209.185-.425.257-.646.064-.194.16-.388.225-.55.064-.16.129-.323.16-.42.1-.256.28-.472.515-.614a2.89 2.89 0 01.643-.194c.27-.025.542-.003.804.065-.032.065-.065.162-.097.226-.037.084-.07.17-.096.259-.032.097-.064.161-.097.259-.064.161-.16.42-.257.678-.096.259-.225.582-.353.905-.129.324-.258.68-.386 1.002-.129.324-.29.68-.418 1.002-.129.324-.257.615-.354.873-.225.291-.321.485-.417.614zm7.682-.776c.13.082.24.193.322.324l.032.032-.032.032c-.31.33-.68.594-1.093.776a3.166 3.166 0 01-1.35.29 2.908 2.908 0 01-1.19-.258 3.127 3.127 0 01-1.639-1.745 3.433 3.433 0 01-.257-1.293 3.4 3.4 0 01.225-1.293c.14-.389.347-.75.61-1.067.274-.297.601-.538.965-.71a3.266 3.266 0 011.286-.26 2.63 2.63 0 01.835.13c.315.062.612.194.868.388.271.175.501.406.675.678.172.306.26.652.258 1.003a1.48 1.48 0 01-.29.937 2.201 2.201 0 01-.675.55c-.266.13-.546.228-.836.29a3.38 3.38 0 01-.77.065 6.915 6.915 0 01-.901-.065 2.912 2.912 0 01-.514-.097c.012.284.089.56.225.808.083.194.216.361.386.485.123.11.265.197.417.259.126.037.255.059.386.065.184-.004.367-.026.547-.065.164-.028.325-.071.482-.13.128-.032.257-.096.385-.129.116-.034.234-.056.354-.064a.345.345 0 01.29.064zm-2.121-4.008a1.332 1.332 0 00-.772.29 1.2 1.2 0 00-.353.486 2.222 2.222 0 00-.225.776c.211.055.426.099.643.13.265.042.535.053.803.031.25-.02.492-.098.707-.226a.865.865 0 00.354-.646.628.628 0 00-.257-.582 1.303 1.303 0 00-.9-.259zm3.697 1.842a4.033 4.033 0 01.257-1.518 3.05 3.05 0 01.675-.938c.28-.227.61-.382.964-.452a5.944 5.944 0 011.06-.13 3.97 3.97 0 011.062.13c.353.07.684.225.964.452.31.249.552.571.707.938.198.48.286 1 .257 1.519l.064 3.49a2.1 2.1 0 01-1.285-.355 1.465 1.465 0 01-.45-1.196v-1.972a2.528 2.528 0 00-.129-.937 1.294 1.294 0 00-.321-.55.83.83 0 00-.418-.258 2.465 2.465 0 00-.482-.065 1.886 1.886 0 00-.45.065.83.83 0 00-.418.259c-.14.156-.24.345-.29.55-.085.304-.129.62-.128.936v2.166c0 .291.032.517.032.679-.008.14.003.282.032.42 0 .097.032.194.032.259-.465.024-.926-.1-1.318-.356a1.466 1.466 0 01-.45-1.196l.032-1.94zm12.117 2.166v.68c-.007.14.004.282.033.42 0 .097.032.193.032.258a2.276 2.276 0 01-1.318-.355c-.321-.227-.45-.647-.45-1.197L55 62.33c-.02-.38.058-.758.225-1.1.153-.286.374-.53.643-.71a2.53 2.53 0 01.965-.388c.385-.065.771-.13 1.221-.162a5.17 5.17 0 011.382.097c.477.09.935.265 1.35.517.417.247.77.59 1.029 1.002a2.71 2.71 0 01.45 1.584c.024.405-.03.812-.16 1.196a3.77 3.77 0 01-.58 1.131c-.288.355-.65.641-1.06.84a3.574 3.574 0 01-1.607.324 6.811 6.811 0 01-.868-.065 4.599 4.599 0 01-.707-.129c-.225-.065-.45-.13-.643-.194v2.133h.032zm1.897-3.167a2.047 2.047 0 001.447-.517c.386-.356.546-.873.514-1.584a2.13 2.13 0 00-.257-.938 1.368 1.368 0 00-.546-.582 2.739 2.739 0 00-.772-.29 4.12 4.12 0 00-.9-.033 1.724 1.724 0 00-.675.162 1.32 1.32 0 00-.418.258.74.74 0 00-.225.324 1.383 1.383 0 00-.064.355v2.457c.16.064.353.13.546.194.193.064.386.097.611.13.245.038.492.06.74.064zm4.404.97c.254-.17.538-.291.836-.356.327-.077.66-.12.996-.13.468 0 .933.065 1.383.195a2.736 2.736 0 00-.193-.776 1.145 1.145 0 00-.547-.614 1.019 1.019 0 00-.289-.097 1.203 1.203 0 00-.354-.033h-.16c-.131.006-.26.028-.386.065a1.804 1.804 0 00-.386.13c-.128.032-.257.096-.386.129a1.604 1.604 0 01-.385.064.85.85 0 01-.386-.097.967.967 0 01-.29-.323l-.032-.064.033-.033c.277-.293.603-.533.964-.711.381-.19.797-.3 1.221-.323h.258a2.74 2.74 0 011.157.226c.343.147.65.368.9.647.543.624.83 1.433.803 2.262v.097a3.692 3.692 0 01-.739 2.36 2.347 2.347 0 01-.868.71c-.349.191-.73.312-1.125.356h-.353a4.377 4.377 0 01-.611-.064 1.92 1.92 0 01-.61-.194 2.46 2.46 0 01-.58-.323 2.358 2.358 0 01-.45-.518 2.172 2.172 0 01-.289-1.002v-.097a1.647 1.647 0 01.225-.905 2.32 2.32 0 01.643-.582zm2.861.646c-.129-.032-.257-.032-.418-.065a2.261 2.261 0 00-.45-.032 1.556 1.556 0 00-.386.032.96.96 0 00-.321.065.878.878 0 00-.514.356c-.032.064-.097.129-.097.194a.603.603 0 01-.064.226v.13a.901.901 0 00.032.29c.041.103.095.201.16.29a.82.82 0 00.322.227c.184.075.381.108.579.097h.16c.243-.006.478-.085.676-.226.081-.057.157-.122.225-.194a.705.705 0 00.16-.259c.098-.17.163-.356.193-.55.035-.17.057-.343.064-.516h-.064c-.032 0-.064-.033-.128-.033a.192.192 0 01-.129-.032zm6.493 1.681v.097a.413.413 0 01.032.194c.003.156-.03.31-.096.452a1.01 1.01 0 01-.29.356c-.27.197-.598.299-.932.29a2.26 2.26 0 01-.9-.193 2.806 2.806 0 01-.803-.614 3.937 3.937 0 01-.579-1.035 4.93 4.93 0 01-.225-1.454V62.62a1.47 1.47 0 01.45-1.195c.377-.26.83-.385 1.286-.356 0 .065-.032.162-.032.259s-.032.226-.032.42v1.551h1.864a1.46 1.46 0 01-.353 1.002 1.236 1.236 0 01-.997.388h-.514v1.972a4.11 4.11 0 00.096.97 1.7 1.7 0 00.29.646 1.187 1.187 0 00.964.485c.162-.006.324-.027.482-.065.129-.129.193-.161.29-.161zm6.751-.13v.68c-.008.14.003.282.032.42 0 .096.032.193.032.258-.466.024-.927-.1-1.318-.355a1.465 1.465 0 01-.45-1.197v-1.971a2.527 2.527 0 00-.129-.938 1.747 1.747 0 00-.289-.55.828.828 0 00-.418-.258 2.511 2.511 0 00-.45-.064 1.891 1.891 0 00-.45.064.829.829 0 00-.418.259c-.14.156-.24.345-.289.55a3.636 3.636 0 00-.096.937v2.844c-.008.141.002.283.032.42 0 .097.032.194.032.259-.466.024-.927-.1-1.318-.355a1.467 1.467 0 01-.45-1.197v-6.561a1.507 1.507 0 01.418-1.196c.377-.26.83-.385 1.286-.356 0 .065-.033.13-.033.259 0 .13-.032.226-.032.42v2.65a4.68 4.68 0 01.643-.161c.213-.026.428-.037.643-.032.368-.003.736.04 1.093.129.353.07.684.225.964.453.31.248.553.57.707.937.198.48.286 1 .258 1.52v2.132zm7.875.001v.678c-.008.141.003.283.032.42 0 .098.032.195.032.26a2.21 2.21 0 01-1.317-.356 1.465 1.465 0 01-.45-1.196l.032-6.724h-3.054a1.46 1.46 0 01.353-1.002 1.237 1.237 0 01.997-.388h6.429a1.46 1.46 0 01-.354 1.002 1.237 1.237 0 01-.996.388h-1.736l.032 6.918zm7.2-4.203c.29.298.52.649.675 1.035.169.41.256.849.258 1.293.009.441-.068.88-.225 1.293a3.658 3.658 0 01-.611 1.034c-.264.307-.594.55-.964.711a3.26 3.26 0 01-1.286.259 2.908 2.908 0 01-1.19-.259 3.128 3.128 0 01-1.639-1.745 3.433 3.433 0 01-.257-1.293c-.01-.442.067-.881.225-1.293.133-.383.34-.734.61-1.035.265-.306.594-.55.965-.71a3.26 3.26 0 011.286-.26 3.2 3.2 0 011.221.26c.356.17.674.412.933.71zm-2.185 4.493c.144-.004.286-.037.418-.097.175-.066.33-.177.45-.323.16-.194.29-.412.385-.646.113-.355.167-.727.161-1.1a3.452 3.452 0 00-.16-1.098 1.57 1.57 0 00-.386-.647 1.305 1.305 0 00-.45-.323 1.103 1.103 0 00-.418-.097 1.104 1.104 0 00-.418.097 1.068 1.068 0 00-.45.323c-.168.19-.3.409-.386.647a3.447 3.447 0 00-.16 1.099c-.007.372.047.744.16 1.099.074.243.207.466.386.646a1.255 1.255 0 00.868.42zm14.593-1.196c.225-.97.418-1.874.579-2.715.097-.355.161-.71.257-1.066.097-.356.161-.712.225-1.002.065-.291.129-.582.193-.84.064-.26.097-.453.129-.583a1.52 1.52 0 01.482-.873c.198-.15.43-.25.675-.29.28-.026.563-.004.836.064a1.063 1.063 0 00-.032.194c-.026.074-.048.15-.065.227a.992.992 0 00-.064.323c-.289 1.293-.547 2.489-.804 3.555-.096.453-.225.938-.321 1.39-.097.453-.193.873-.289 1.293-.097.42-.193.744-.258 1.035-.064.29-.16.484-.192.614-.1.3-.306.553-.579.71-.25.135-.522.223-.804.26a3.515 3.515 0 01-.996-.033c-.193-.937-.386-1.81-.547-2.683-.064-.355-.16-.743-.225-1.099-.064-.355-.16-.743-.225-1.099a48.921 48.921 0 00-.193-1.002c-.064-.323-.096-.582-.16-.808-.065.291-.129.647-.193 1.002a47.91 47.91 0 00-.193 1.196c-.064.42-.129.808-.225 1.228-.096.42-.161.776-.225 1.132-.064.355-.129.646-.193.905a1.712 1.712 0 01-.193.517 1.25 1.25 0 01-.61.55c-.249.094-.508.16-.772.193a4.61 4.61 0 01-.932-.032l-.965-3.976-.385-1.551c-.129-.517-.225-1.002-.354-1.422-.128-.42-.193-.84-.29-1.164-.096-.323-.128-.582-.16-.711a4.086 4.086 0 00-.096-.323 2.067 2.067 0 00-.064-.227.413.413 0 01-.033-.194 1.74 1.74 0 01.804-.064c.245.04.477.14.675.29.261.223.432.533.482.873.057.19.1.385.129.582.064.259.128.517.193.84.064.324.16.647.225 1.003.064.355.16.71.257 1.066.193.84.385 1.746.578 2.715.193-1.099.386-2.1.579-3.038.064-.388.161-.776.225-1.164.064-.388.161-.743.225-1.066.064-.324.129-.614.193-.84.064-.227.128-.42.161-.518.098-.257.279-.473.514-.614.193-.094.399-.159.611-.194.24-.032.484.002.707.097.032.097.096.29.161.55.064.258.16.581.225.937.064.355.16.776.257 1.196.096.42.193.873.257 1.293.354 1.098.622 2.222.803 3.361zm8.358.905c.13.082.24.193.321.324l.032.032-.032.032c-.309.33-.68.594-1.093.776a3.164 3.164 0 01-1.35.29 2.906 2.906 0 01-1.189-.258 3.126 3.126 0 01-1.64-1.745 3.453 3.453 0 01-.257-1.293 3.42 3.42 0 01.225-1.293c.14-.389.347-.75.611-1.067.273-.297.6-.538.964-.71a3.27 3.27 0 011.286-.26c.284-.002.566.042.836.13.315.062.611.194.868.388.27.175.501.406.675.678.171.306.26.652.257 1.003a1.48 1.48 0 01-.289.937 2.21 2.21 0 01-.675.55 3.65 3.65 0 01-.836.29 3.384 3.384 0 01-.772.065 6.923 6.923 0 01-.9-.065 2.903 2.903 0 01-.514-.097c.012.284.089.56.225.808.083.194.216.361.386.485.124.11.265.197.418.259.125.037.255.059.385.065.184-.004.367-.026.547-.065.164-.028.326-.071.482-.13.129-.032.257-.096.386-.129a1.65 1.65 0 01.353-.064.345.345 0 01.29.064zm-2.122-4.008a1.32 1.32 0 00-.771.29c-.158.13-.28.297-.354.486a2.216 2.216 0 00-.225.776c.212.055.426.099.643.13.266.042.535.053.804.031.249-.02.491-.098.707-.226a.868.868 0 00.353-.646.63.63 0 00-.257-.582 1.41 1.41 0 00-.9-.259zm6.493 4.106c.028.217.006.438-.064.646a.982.982 0 01-.932.743 1.34 1.34 0 01-.74-.097 2.28 2.28 0 01-.546-.355 1.89 1.89 0 01-.321-.55 2.295 2.295 0 01-.097-.678v-6.756c0-.291-.032-.517-.032-.679a1.602 1.602 0 00-.032-.42c0-.097-.032-.194-.032-.259.465-.024.926.1 1.318.356a1.464 1.464 0 01.45 1.196v6.4a.677.677 0 00.128.485c.072.09.176.147.29.161.107.022.219.01.321-.032.161-.065.257-.097.289-.162zm3.375 0c.029.217.007.438-.064.646a.982.982 0 01-.932.743 1.335 1.335 0 01-.739-.097 2.306 2.306 0 01-.547-.355 1.89 1.89 0 01-.321-.55 2.295 2.295 0 01-.097-.678v-6.756c0-.291-.032-.517-.032-.679a1.602 1.602 0 00-.032-.42c0-.097-.032-.194-.032-.259a2.2 2.2 0 011.318.356 1.464 1.464 0 01.45 1.196v6.4a.677.677 0 00.128.485c.072.09.176.147.29.161.108.006.216-.005.321-.032.161-.065.257-.097.289-.162zm.997-2.264a4.037 4.037 0 01.257-1.518c.164-.353.393-.671.675-.938.28-.227.611-.382.964-.452a5.944 5.944 0 011.061-.13 3.97 3.97 0 011.061.13c.353.07.684.225.964.452.31.249.553.571.707.938.198.48.286 1 .258 1.519l.064 3.49a2.1 2.1 0 01-1.286-.355 1.467 1.467 0 01-.45-1.196v-1.972a2.527 2.527 0 00-.128-.937 1.298 1.298 0 00-.322-.55.829.829 0 00-.418-.258 2.466 2.466 0 00-.482-.065 1.887 1.887 0 00-.45.065.829.829 0 00-.418.259c-.14.156-.239.345-.289.55-.086.304-.129.62-.129.936v2.166c0 .291.032.517.032.679-.008.14.003.282.033.42 0 .097.032.194.032.259-.466.024-.927-.1-1.318-.356a1.467 1.467 0 01-.45-1.196l.032-1.94zm12.311 2.166c.131.082.24.193.322.324l.032.032-.032.032c-.309.33-.681.594-1.093.776a3.167 3.167 0 01-1.35.29 2.91 2.91 0 01-1.19-.258 3.125 3.125 0 01-1.639-1.745 3.433 3.433 0 01-.257-1.293 3.42 3.42 0 01.225-1.293c.14-.389.346-.75.611-1.067.273-.297.6-.538.964-.71a3.266 3.266 0 011.286-.26c.283-.002.566.042.836.13.314.062.611.194.867.388.271.175.501.406.676.678.171.306.26.652.257 1.003a1.48 1.48 0 01-.29.937 2.198 2.198 0 01-.675.55c-.266.13-.546.228-.835.29a3.384 3.384 0 01-.772.065 6.91 6.91 0 01-.9-.065 2.903 2.903 0 01-.514-.097c.012.284.089.56.225.808.083.194.216.361.385.485.124.11.266.197.418.259.126.037.255.059.386.065.184-.004.367-.026.547-.065.164-.028.325-.071.482-.13.128-.032.257-.096.385-.129.116-.034.234-.056.354-.064a.345.345 0 01.289.064zm-2.121-4.008c-.12.009-.239.03-.354.065-.151.05-.293.126-.418.226a1.182 1.182 0 00-.353.485 2.216 2.216 0 00-.225.776c.211.055.426.099.643.13.265.042.535.053.803.031.25-.02.492-.098.707-.226a.86.86 0 00.354-.646.63.63 0 00-.257-.582 1.413 1.413 0 00-.9-.259zm6.686 3.718a.418.418 0 00-.128-.388 1.825 1.825 0 00-.45-.291c-.193-.097-.418-.194-.708-.323a4.3 4.3 0 01-.835-.453 1.953 1.953 0 01-.547-.452 2.63 2.63 0 01-.321-.582 2.085 2.085 0 01-.097-.647c.008-.224.063-.445.161-.646.091-.19.21-.364.354-.517.152-.13.314-.248.482-.356a1.85 1.85 0 01.546-.194c.17-.035.342-.057.515-.065h.16c.468.035.926.155 1.35.356a3.28 3.28 0 011.029.84l.032.033-.032.065a1.24 1.24 0 01-.289.29.64.64 0 01-.354.097 1.597 1.597 0 01-.386-.064c-.128-.065-.257-.097-.385-.162-.129-.065-.354-.13-.483-.194a1.162 1.162 0 00-.45-.064.642.642 0 00-.45.129.682.682 0 00-.193.323.505.505 0 00.161.453c.169.147.366.257.579.323.289.13.578.258.9.388.31.133.602.307.868.517.253.194.452.45.578.743.126.343.137.717.033 1.067a1.836 1.836 0 01-.225.517 1.29 1.29 0 01-.451.485 2.408 2.408 0 01-.707.356 3.066 3.066 0 01-.996.161h-.193a3.352 3.352 0 01-1.318-.355 3.402 3.402 0 01-1.061-.84l-.032-.033.032-.065a.86.86 0 01.161-.194c.064-.032.096-.097.161-.129a.616.616 0 01.321-.097c.131.006.26.027.386.065.128.064.257.097.386.161.142.073.293.128.45.162.16.032.353.065.546.097a1.03 1.03 0 00.707-.194.43.43 0 00.193-.323zm5.754 0a.42.42 0 00-.129-.388 1.806 1.806 0 00-.45-.291c-.193-.097-.418-.194-.707-.323a4.308 4.308 0 01-.836-.453 1.948 1.948 0 01-.546-.452 2.634 2.634 0 01-.322-.582 2.114 2.114 0 01-.096-.647c.008-.224.062-.445.161-.646.091-.19.21-.364.353-.517a4.64 4.64 0 01.482-.356 1.87 1.87 0 01.547-.194 3.18 3.18 0 01.514-.065h.161c.468.035.926.155 1.35.356.396.207.746.493 1.029.84l.032.033-.032.065c-.08.112-.178.21-.29.29a.64.64 0 01-.353.097 1.589 1.589 0 01-.386-.064c-.129-.065-.257-.097-.386-.162-.128-.065-.353-.13-.482-.194a1.162 1.162 0 00-.45-.064.64.64 0 00-.45.129.667.667 0 00-.193.323.505.505 0 00.161.453c.168.147.365.257.578.323.29.13.579.258.901.388.31.133.602.307.867.517.253.194.453.45.579.743.126.343.137.717.032 1.067a1.78 1.78 0 01-.225.517 1.28 1.28 0 01-.45.485 2.432 2.432 0 01-.707.356 3.072 3.072 0 01-.997.161h-.192a3.348 3.348 0 01-1.318-.355 3.402 3.402 0 01-1.061-.84l-.032-.033.032-.065a.86.86 0 01.161-.194c.064-.032.096-.097.16-.129a.622.622 0 01.322-.097c.131.006.26.027.386.065.128.064.257.097.385.161.143.073.294.128.45.162.161.032.354.065.547.097a1.03 1.03 0 00.707-.194.428.428 0 00.193-.323zM65.414 45.91c.61-2.813 1.19-5.399 1.704-7.79.225-1.003.482-2.037.707-3.072.225-1.034.45-2.004.643-2.909.193-.905.385-1.713.546-2.424.16-.711.29-1.26.386-1.648.29-1.164.74-2.004 1.382-2.49a4.332 4.332 0 011.897-.872 6.075 6.075 0 012.378.194c-.032.13-.064.29-.128.517-.064.226-.129.42-.193.647-.064.226-.129.581-.225.937-.836 3.717-1.575 7.144-2.314 10.279-.322 1.325-.643 2.65-.933 3.976-.289 1.325-.61 2.553-.868 3.685-.257 1.13-.546 2.1-.771 2.941-.15.591-.333 1.174-.546 1.745a3.628 3.628 0 01-1.704 2.037 7.951 7.951 0 01-2.282.776 11.98 11.98 0 01-2.83-.065 376.181 376.181 0 01-1.606-7.693c-.225-1.034-.418-2.101-.643-3.2-.225-1.1-.45-2.133-.643-3.168-.193-1.034-.386-1.971-.547-2.844-.16-.873-.321-1.649-.417-2.295-.161.84-.322 1.81-.515 2.909a247.57 247.57 0 00-.578 3.426c-.193 1.196-.418 2.36-.611 3.523-.193 1.164-.418 2.23-.61 3.233a41.234 41.234 0 01-.58 2.586A6.148 6.148 0 0155 50.338a3.373 3.373 0 01-1.736 1.616 8.06 8.06 0 01-2.185.55c-.892.067-1.788.024-2.669-.13-.996-4.17-1.896-7.984-2.732-11.443a98.504 98.504 0 01-1.06-4.428c-.322-1.487-.676-2.844-.965-4.105-.29-1.26-.578-2.36-.803-3.33-.225-.969-.386-1.616-.483-2.068a9.475 9.475 0 01-.225-.937 6.247 6.247 0 00-.16-.647c-.065-.226-.097-.388-.129-.517a5.932 5.932 0 012.347-.194 4.03 4.03 0 011.896.873c.643.485 1.125 1.293 1.447 2.489.096.387.225.905.385 1.648.161.744.354 1.52.547 2.424.193.905.418 1.875.643 2.91.225 1.034.45 2.068.707 3.07.514 2.392 1.093 5.01 1.704 7.79a812.637 812.637 0 011.639-8.727c.225-1.131.418-2.23.643-3.362.225-1.131.45-2.165.643-3.103.193-.937.418-1.778.578-2.456.11-.508.26-1.005.45-1.487.386-.84.868-1.455 1.447-1.746a4.3 4.3 0 011.768-.55 5.676 5.676 0 012.057.227c.096.29.257.808.45 1.584s.418 1.68.643 2.715c.225 1.034.482 2.198.74 3.426.256 1.229.514 2.49.77 3.75.708 2.941 1.383 6.174 2.058 9.73zm11.669 2.553V29.004c0-1.584.418-2.748 1.286-3.426.868-.68 2.121-1.035 3.76-1.035a3.58 3.58 0 00-.064.712c-.032.29-.032.678-.064 1.195-.032.518-.032 1.132-.032 1.94l-.064 19.459c0 1.584-.418 2.747-1.286 3.426-.868.679-2.09 1.034-3.697 1.034.045-.234.067-.472.064-.71.032-.292.032-.68.032-1.197s.033-1.131.065-1.94zm8.775-20.267c-.032-.808-.032-1.455-.032-1.94 0-.485 0-.872-.032-1.196-.032-.323-.064-.55-.064-.71 3.246 0 4.853 1.55 4.853 4.686l.065 10.15c0 1.745.193 7.596.707 8.275 1.028 1.454 3.053.905 4.468.905.675 0 1.254 0 1.8-.033.546-.032.996-.032 1.382-.064.399-.022.796-.065 1.19-.13v.227a3.421 3.421 0 01-.29 1.325 4.142 4.142 0 01-.9 1.26 5.184 5.184 0 01-1.543.938 5.85 5.85 0 01-2.25.388c-2.121 0-6.107.582-7.907-1.067-1.608-1.454-1.415-9.794-1.415-12.315v-10.7h-.032zm25.105-4.041c1.733-.006 3.453.3 5.079.905 1.621.587 3.1 1.512 4.339 2.716a12.896 12.896 0 013.054 4.493 16.063 16.063 0 011.125 6.206 15.468 15.468 0 01-1.157 6.206 14.019 14.019 0 01-3.054 4.493 13.094 13.094 0 01-4.371 2.715 14.396 14.396 0 01-5.079.905c-.45 0-1.029 0-1.704-.032a16.275 16.275 0 01-1.864-.097c-.418-.065-2.476-.13-2.861-.13-2.122 0-2.668-2.165-2.668-3.103l.064-18.198c0-1.81-.225-5.3.611-6.174 1.061-1.099 6.107-.872 6.782-.905h1.704zm0 25.148a9.091 9.091 0 003.054-.55 6.665 6.665 0 002.668-1.81 9.415 9.415 0 001.896-3.329c.531-1.682.78-3.44.74-5.204a16.074 16.074 0 00-.74-5.204 9.415 9.415 0 00-1.896-3.33 6.589 6.589 0 00-2.668-1.777 8.92 8.92 0 00-3.054-.517h-1.318a4.763 4.763 0 00-1.382.194 2.821 2.821 0 00-1.061.581 1.564 1.564 0 00-.45 1.196v17.81a1.508 1.508 0 00.45 1.197c.308.268.67.467 1.061.581.448.135.914.2 1.382.195.482-.033.932-.033 1.318-.033zm36.484-16.291a8.407 8.407 0 00-2.218-3.394 11.035 11.035 0 00-4.082-2.263c-1.672-.55-3.697-.743-6.108-.646h-2.153v-5.527h9.868a2.75 2.75 0 001.955-.815 2.792 2.792 0 00.81-1.966v-.678h-15.333c-.427 0-.835.17-1.137.473a1.623 1.623 0 00-.471 1.143v7.984a3.693 3.693 0 001.061 2.618c.707.744 1.768 1.132 3.182 1.132h2.733c2.218 0 3.986.55 5.304 1.648 1.318 1.1 1.993 2.618 1.993 4.525a5.498 5.498 0 01-.322 1.778A5.127 5.127 0 01141.5 40.9a5.892 5.892 0 01-1.896 1.487 6.399 6.399 0 01-2.893.614 12.09 12.09 0 01-2.475-.226c-.772-.162-1.479-.324-2.09-.517a18.32 18.32 0 01-1.51-.55c-.386-.162-.643-.29-.772-.323-.225-.065-.418-.097-.611-.162a1.622 1.622 0 00-.546-.097c-.307.01-.605.1-.868.259-.318.25-.599.544-.836.873l-.096.129a16.29 16.29 0 002.764 2.069 17.38 17.38 0 003.086 1.422c1.261.44 2.587.658 3.922.646a12.925 12.925 0 004.854-.84 10.554 10.554 0 003.471-2.23 9.403 9.403 0 002.122-3.071 10.13 10.13 0 00.836-3.394 9.316 9.316 0 00-.515-3.976z" fill="#fff"/><path d="M19.64 51.76c10.847 0 19.64-2.981 19.64-6.659 0-3.677-8.793-6.658-19.64-6.658C8.793 38.443 0 41.422 0 45.1s8.793 6.659 19.64 6.659z" fill="#CFDDBB"/><path d="M35.615 34.973c.373-3.012-6.478-6.35-15.304-7.457-8.826-1.107-16.284.437-16.657 3.448-.374 3.011 6.478 6.35 15.304 7.457 8.826 1.107 16.283-.437 16.657-3.448z" fill="#769D91"/><path d="M20.311 8.488c4.94-.817 8.644-3.322 8.272-5.594C28.212.62 23.906-.558 18.966.259c-4.94.817-8.644 3.321-8.272 5.593.372 2.273 4.678 3.453 9.617 2.636z" fill="#C1C4D6"/><path d="M19.92 27.122c8.048-.456 14.447-3.037 14.294-5.764-.153-2.727-6.8-4.568-14.847-4.111-8.047.457-14.447 3.038-14.294 5.765.153 2.726 6.8 4.567 14.848 4.11z" fill="#A87BC9"/><path d="M31.805 13.945c.175-2.278-5.122-4.547-11.83-5.067-6.709-.52-12.289.905-12.464 3.183-.174 2.279 5.122 4.547 11.83 5.067 6.71.52 12.289-.904 12.464-3.183z" fill="#8B85CA"/></g><defs><clipPath id="clip0_469_4419"><path fill="#fff" d="M0 0h148v70H0z"/></clipPath></defs></svg>