<svg width="46" height="43" viewBox="0 0 46 43" fill="none" xmlns="http://www.w3.org/2000/svg">
<path d="M8.27344 17.0397C8.27344 17.0397 15.978 31.0133 17.9963 35.166L20.5751 34.5083C20.5751 34.5083 30.6685 14.9057 46.0001 6.01584L43.6098 2.73438C43.6098 2.73438 27.8928 11.6385 19.2041 21.6259L10.0242 15.1121L8.27344 17.0397Z" fill="#00B0A9"/>
<path d="M37.7492 15.4385C38.7077 18.2062 38.9705 21.1844 38.4831 24.1561C37.7117 28.8663 35.1514 32.9935 31.2749 35.779C27.3984 38.5644 22.6697 39.6724 17.9594 38.9009C13.2491 38.1295 9.1218 35.5693 6.33628 31.6929C3.55146 27.8165 2.44278 23.0879 3.21425 18.3776C3.98572 13.6674 6.54597 9.54026 10.4225 6.7548C14.299 3.97005 19.0277 2.8614 23.738 3.63285C26.7318 4.12378 29.4904 5.33728 31.8183 7.15222L34.2716 5.30965C31.4315 2.91098 27.985 1.31423 24.2197 0.69721C18.7252 -0.203176 13.2087 1.09038 8.68753 4.33843C4.16637 7.58647 1.17965 12.4022 0.279248 17.8966C-0.621159 23.3911 0.672423 28.9074 3.92055 33.4285C7.16938 37.9502 11.9838 40.9362 17.4784 41.8366C22.9729 42.737 28.4887 41.4434 33.0106 38.1954C37.5324 34.9466 40.5185 30.1323 41.4189 24.6378C42.0338 20.8847 41.6243 17.1216 40.2684 13.6724L37.7485 15.4392L37.7492 15.4385Z" fill="#103A71"/>
</svg>
