<svg width="79" height="78" viewBox="0 0 79 78" fill="none" xmlns="http://www.w3.org/2000/svg">
<path d="M49.4489 36.5181C49.6677 36.5181 49.8427 36.3414 49.8427 36.1206V32.2339C49.8427 32.0131 49.6677 31.8364 49.4489 31.8364C49.2302 31.8364 49.0552 32.0131 49.0552 32.2339V36.1206C49.0552 36.3414 49.2302 36.5181 49.4489 36.5181Z" fill="#73308A"/>
<path d="M49.4489 29.3453C49.6677 29.3453 49.8427 29.1686 49.8427 28.9478V22.7115C49.8427 22.4906 49.6677 22.314 49.4489 22.314C49.2302 22.314 49.0552 22.4906 49.0552 22.7115V28.9478C49.0552 29.1686 49.2302 29.3453 49.4489 29.3453Z" fill="#73308A"/>
<path d="M60.2378 36.1203C60.2378 36.3411 60.4128 36.5178 60.6315 36.5178C60.8503 36.5178 61.0253 36.3411 61.0253 36.1203V27.1368C61.0253 26.9159 60.8503 26.7393 60.6315 26.7393C60.4128 26.7393 60.2378 26.9159 60.2378 27.1368V36.1203Z" fill="#73308A"/>
<path d="M54.647 36.1206C54.647 36.3414 54.822 36.5181 55.0407 36.5181C55.2595 36.5181 55.4345 36.3414 55.4345 36.1206V34.1773C55.4345 33.9565 55.2595 33.7798 55.0407 33.7798C54.822 33.7798 54.647 33.9565 54.647 34.1773V36.1206Z" fill="#73308A"/>
<path d="M75.06 43.0281H74.7625V11.7492C74.7625 5.81324 69.985 0.990234 64.105 0.990234C58.3562 0.999068 53.5525 6.06057 53.4562 12.0849C50.9187 12.7827 49.055 15.1236 49.055 17.9061C49.055 18.2417 49.3262 18.5156 49.6587 18.5156H60.4212C60.7537 18.5156 61.025 18.2417 61.025 17.9061C61.025 15.1324 59.17 12.8004 56.6412 12.0937C56.685 10.0179 57.5425 8.06574 58.89 6.61707C60.2725 5.13307 62.1362 4.20557 64.105 4.20557C66.17 4.20557 68.0337 5.05357 69.39 6.4139C70.7462 7.78307 71.5775 9.66457 71.5775 11.7492V43.0281H42.2737H37.4875C36.91 40.7314 34.8625 39.0266 32.4037 39.0266C31.975 39.0266 31.5725 39.0972 31.1787 39.1944C30.2075 35.8466 27.1625 33.3997 23.5312 33.3997C20.005 33.3997 17.0212 35.7141 15.9712 38.9206C15.0087 38.2051 13.8362 37.7634 12.5412 37.7634C9.59248 37.7722 7.16873 40.2014 6.74873 43.0369H3.94873C2.13748 43.0369 0.66748 44.5209 0.66748 46.3494C0.66748 48.1779 2.13748 49.6619 3.94873 49.6619H7.44873L10.9225 63.7334C11.9725 67.9823 15.7525 70.9679 20.1012 70.9679H21.0725L17.7737 76.3916C17.7037 76.5153 17.695 76.6654 17.765 76.7979C17.835 76.9216 17.9662 77.0011 18.1062 77.0011H21.125C21.265 77.0011 21.3875 76.9304 21.4575 76.8156L25.0625 70.9679H55.7575L59.3625 76.8156C59.4325 76.9304 59.5637 77.0011 59.695 77.0011H62.7225C62.8625 77.0011 62.9937 76.9216 63.0637 76.7979C63.1337 76.6743 63.1337 76.5153 63.055 76.3916L59.7562 70.9679H60.0975C64.4375 70.9679 68.2175 67.9823 69.2762 63.7334L72.7587 49.6531H75.0687C76.88 49.6531 78.35 48.1691 78.35 46.3406C78.3412 44.5121 76.8712 43.0281 75.06 43.0281ZM60.22 17.7294H49.86C49.9125 16.3514 50.4637 15.1147 51.365 14.2049C52.31 13.2509 53.605 12.6679 55.04 12.6679C56.475 12.6679 57.77 13.2509 58.715 14.2049C59.6162 15.1147 60.1675 16.3514 60.22 17.7294ZM64.105 3.41057C59.765 3.42824 56.0462 7.35024 55.8625 11.9347C55.5912 11.8994 55.32 11.8729 55.04 11.8729C54.7687 11.8729 54.515 11.8994 54.2525 11.9347C54.34 9.22291 55.4425 6.7319 57.175 4.9034C58.9775 2.9954 61.445 1.8029 64.105 1.8029C66.8262 1.8029 69.2937 2.9159 71.0787 4.72674C72.8637 6.52874 73.975 9.01974 73.975 11.7669V43.0457H72.365V11.7492C72.365 7.1559 68.6637 3.41057 64.105 3.41057ZM26.2175 61.5958V49.2556V43.8231H41.88V61.5958H26.2175ZM12.5412 38.5407C13.845 38.5407 15.0262 39.0442 15.9187 39.8657C16.0237 39.9629 16.1637 39.9894 16.295 39.9541C16.4262 39.9099 16.5312 39.8039 16.5662 39.6714C17.3537 36.5267 20.1712 34.1859 23.5312 34.1859C26.9262 34.1859 29.7612 36.5621 30.5137 39.7509C30.54 39.8569 30.61 39.9541 30.7062 40.0071C30.8025 40.0601 30.9162 40.0689 31.0212 40.0424C31.4587 39.9011 31.9225 39.8216 32.4037 39.8216C34.425 39.8216 36.1137 41.1731 36.6737 43.0281H7.54498C7.95623 40.6077 10.0825 38.5319 12.5412 38.5407ZM20.9062 76.2061H18.8062L21.9912 70.9679H24.135L20.9062 76.2061ZM62.0225 76.2061H59.9225L56.6937 70.9679H58.8375L62.0225 76.2061ZM75.06 48.8581H65.995C65.7762 48.8581 65.6012 49.0348 65.6012 49.2556C65.6012 49.4764 65.7762 49.6531 65.995 49.6531H71.945L68.515 63.5391C67.5525 67.4346 64.0875 70.1729 60.1062 70.1729H20.1012C16.12 70.1729 12.655 67.4346 11.6925 63.5391L8.26248 49.6531H12.6112C12.83 49.6531 13.005 49.4764 13.005 49.2556C13.005 49.0348 12.83 48.8581 12.6112 48.8581H3.94873C2.57498 48.8581 1.45498 47.7274 1.45498 46.3406C1.45498 44.9537 2.57498 43.8231 3.94873 43.8231H25.4387V48.8581H16.7937C16.575 48.8581 16.4 49.0348 16.4 49.2556C16.4 49.4764 16.575 49.6531 16.7937 49.6531H25.4387V64.6698C25.4387 64.8906 25.6137 65.0673 25.8325 65.0673C26.0512 65.0673 26.2262 64.8906 26.2262 64.6698V62.3819H28.7287V64.6698C28.7287 64.8906 28.9037 65.0673 29.1225 65.0673C29.3412 65.0673 29.5162 64.8906 29.5162 64.6698V62.3819H32.0187V64.6698C32.0187 64.8906 32.1937 65.0673 32.4125 65.0673C32.6312 65.0673 32.8062 64.8906 32.8062 64.6698V62.3819H35.3V64.6698C35.3 64.8906 35.475 65.0673 35.6937 65.0673C35.9125 65.0673 36.0875 64.8906 36.0875 64.6698V62.3819H38.59V64.6698C38.59 64.8906 38.765 65.0673 38.9837 65.0673C39.2025 65.0673 39.3775 64.8906 39.3775 64.6698V62.3819H41.88V64.6698C41.88 64.8906 42.055 65.0673 42.2737 65.0673C42.4925 65.0673 42.6675 64.8906 42.6675 64.6698V61.9844V49.6443H60.9462C61.165 49.6443 61.34 49.4676 61.34 49.2468C61.34 49.0259 61.165 48.8493 60.9462 48.8493H42.6675V43.8143H75.06C76.4337 43.8143 77.5537 44.9449 77.5537 46.3318C77.5537 47.7363 76.4425 48.8581 75.06 48.8581Z" fill="#769C90"/>
<path d="M62.7226 77.3103H59.6951C59.4501 77.3103 59.2226 77.1866 59.1001 76.9746L55.5826 71.2771H25.2288L21.7113 76.9746C21.5888 77.1778 21.3613 77.3103 21.1163 77.3103H18.0976C17.8526 77.3103 17.6163 77.1689 17.4938 76.9481V76.9393C17.3801 76.7184 17.3801 76.4534 17.5026 76.2326L17.5113 76.2238L20.5213 71.2683H20.1013C15.6126 71.2683 11.7101 68.1943 10.6251 63.7953L7.21258 49.9623H3.94883C1.97133 49.9623 0.361328 48.3369 0.361328 46.3406C0.361328 44.3443 1.97133 42.7189 3.94883 42.7189H6.48633C6.74883 41.3498 7.44883 40.0778 8.48133 39.1061C9.61883 38.0373 11.0538 37.4543 12.5326 37.4454C13.6963 37.4454 14.8163 37.7811 15.8051 38.4259C17.0301 35.2106 20.0838 33.0818 23.5226 33.0818C25.3513 33.0818 27.0838 33.6736 28.5276 34.7866C29.8488 35.8024 30.8551 37.2334 31.3801 38.8234C31.7476 38.7439 32.0801 38.7086 32.3951 38.7086C34.8538 38.7086 37.0063 40.3428 37.7151 42.7101H71.2626V11.7493C71.2626 9.81477 70.5188 7.99511 69.1626 6.63477C67.7976 5.26561 66.0038 4.51477 64.0963 4.51477C62.2938 4.51477 60.4738 5.35394 59.1001 6.82911C57.7963 8.22477 57.0351 10.0091 56.9388 11.8641C59.5288 12.6944 61.3138 15.1501 61.3138 17.9061C61.3138 18.4096 60.9026 18.8248 60.4038 18.8248H49.6413C49.1426 18.8248 48.7313 18.4096 48.7313 17.9061C48.7313 15.1324 50.5338 12.6768 53.1413 11.8553C53.2463 8.94027 54.4013 6.18427 56.4226 4.07311C58.5051 1.89127 61.2263 0.689941 64.0876 0.689941C70.1338 0.689941 75.0513 5.65427 75.0513 11.7581V42.7278C77.0201 42.7366 78.6301 44.3531 78.6388 46.3494C78.6388 48.3458 77.0288 49.9711 75.0513 49.9711H72.9776L69.5563 63.8129C68.4801 68.1413 64.6826 71.1888 60.2813 71.2771L63.2913 76.2326C63.4226 76.4446 63.4313 76.7273 63.3088 76.9569C63.2038 77.1689 62.9676 77.3103 62.7226 77.3103ZM24.8963 70.6588H55.9326L59.6251 76.6478C59.6426 76.6743 59.6688 76.6919 59.6951 76.6919H62.7226C62.7488 76.6919 62.7838 76.6743 62.8013 76.6478C62.8188 76.6213 62.8188 76.5859 62.8013 76.5594L59.2138 70.6588H60.1063C64.3063 70.6588 67.9638 67.7791 68.9876 63.6539L72.5313 49.3439H75.0776C76.7138 49.3439 78.0526 47.9924 78.0526 46.3406C78.0438 44.6888 76.7051 43.3373 75.0688 43.3373H74.4651V11.7493C74.4651 5.98994 69.8188 1.29944 64.1138 1.29944C58.6013 1.30827 53.8676 6.24611 53.7713 12.0938V12.3234L53.5526 12.3853C51.0938 13.0654 49.3788 15.3356 49.3788 17.9061C49.3788 18.0739 49.5101 18.2064 49.6763 18.2064H60.4388C60.6051 18.2064 60.7363 18.0739 60.7363 17.9061C60.7363 15.3444 59.0301 13.0743 56.5801 12.3941L56.3526 12.3323L56.3613 12.0938C56.4051 10.0003 57.2363 7.97744 58.6888 6.41394C60.1763 4.81511 62.1538 3.90527 64.1313 3.90527C66.2051 3.90527 68.1563 4.71794 69.6351 6.20194C71.1051 7.68594 71.9101 9.65577 71.9101 11.7581V43.3461H37.2513L37.1901 43.1164C36.6301 40.8993 34.6613 39.3446 32.4038 39.3446C32.0538 39.3446 31.6951 39.3976 31.2488 39.5036L30.9688 39.5743L30.8901 39.2916C29.9363 36.0144 26.9176 33.7178 23.5401 33.7178C20.2326 33.7178 17.3101 35.8554 16.2688 39.0266L16.1376 39.4329L15.7963 39.1768C14.8338 38.4613 13.7051 38.0814 12.5501 38.0814C9.89008 38.0903 7.47508 40.2898 7.06383 43.0899L7.02883 43.3549H3.96633C2.33008 43.3549 0.991328 44.7064 0.991328 46.3583C0.991328 48.0101 2.33008 49.3616 3.96633 49.3616H7.70258L11.2376 63.6716C12.2526 67.7968 15.9101 70.6676 20.1188 70.6676H21.6413L18.0626 76.5594C18.0451 76.5859 18.0363 76.6213 18.0538 76.6566C18.0713 76.6831 18.0976 76.7008 18.1238 76.7008H21.1251C21.1601 76.7008 21.1776 76.6831 21.1951 76.6654L24.8963 70.6588ZM62.5738 76.5153H59.7563L56.1426 70.6588H59.0126L62.5738 76.5153ZM60.0888 75.8969H61.4713L58.6626 71.2771H57.2451L60.0888 75.8969ZM21.0726 76.5153H18.2551L21.8163 70.6588H24.6863L21.0726 76.5153ZM19.3576 75.8969H20.7401L23.5838 71.2771H22.1663L19.3576 75.8969ZM60.1063 70.4821H20.1013C15.9713 70.4821 12.3926 67.6554 11.3951 63.6098L7.86883 49.3439H12.6113C12.6638 49.3439 12.6988 49.3086 12.6988 49.2556C12.6988 49.2026 12.6638 49.1673 12.6113 49.1673H3.94883C2.40883 49.1673 1.14883 47.8953 1.14883 46.3406C1.14883 44.7859 2.40883 43.5139 3.94883 43.5139H25.7451V49.1673H16.7938C16.7413 49.1673 16.7063 49.2026 16.7063 49.2556C16.7063 49.3086 16.7413 49.3439 16.7938 49.3439H25.7451V64.6698C25.7451 64.7228 25.7801 64.7581 25.8326 64.7581C25.8851 64.7581 25.9201 64.7228 25.9201 64.6698V62.0728H29.0351V64.6698C29.0351 64.7228 29.0701 64.7581 29.1226 64.7581C29.1751 64.7581 29.2101 64.7228 29.2101 64.6698V62.0728H32.3251V64.6698C32.3251 64.7228 32.3601 64.7581 32.4126 64.7581C32.4651 64.7581 32.5001 64.7228 32.5001 64.6698V62.0728H35.6063V64.6698C35.6063 64.7228 35.6413 64.7581 35.6938 64.7581C35.7463 64.7581 35.7813 64.7228 35.7813 64.6698V62.0728H38.8963V64.6698C38.8963 64.7228 38.9313 64.7581 38.9838 64.7581C39.0363 64.7581 39.0713 64.7228 39.0713 64.6698V62.0728H42.1863V64.6698C42.1863 64.7228 42.2213 64.7581 42.2738 64.7581C42.3263 64.7581 42.3613 64.7228 42.3613 64.6698V49.3351H60.9463C60.9988 49.3351 61.0338 49.2998 61.0338 49.2468C61.0338 49.1938 60.9988 49.1584 60.9463 49.1584H42.3613V43.5051H75.0601C76.6001 43.5051 77.8601 44.7771 77.8601 46.3318C77.8601 47.8953 76.6001 49.1673 75.0601 49.1673H65.9951C65.9426 49.1673 65.9076 49.2026 65.9076 49.2556C65.9076 49.3086 65.9426 49.3439 65.9951 49.3439H72.3388L68.8126 63.6098C67.8151 67.6554 64.2363 70.4821 60.1063 70.4821ZM8.65633 49.9623L11.9901 63.4684C12.9176 67.2403 16.2601 69.8638 20.1013 69.8638H60.1063C63.9476 69.8638 67.2901 67.2314 68.2176 63.4684L71.5513 49.9623H65.9951C65.6101 49.9623 65.2951 49.6443 65.2951 49.2556C65.2951 48.8669 65.6101 48.5489 65.9951 48.5489H75.0601C76.2676 48.5489 77.2476 47.5508 77.2476 46.3318C77.2476 45.1128 76.2676 44.1234 75.0601 44.1234H42.9738V48.5401H60.9463C61.3313 48.5401 61.6463 48.8581 61.6463 49.2468C61.6463 49.6354 61.3313 49.9534 60.9463 49.9534H42.9738V64.6698C42.9738 65.0584 42.6588 65.3764 42.2738 65.3764C41.8888 65.3764 41.5738 65.0584 41.5738 64.6698V62.6911H39.6838V64.6698C39.6838 65.0584 39.3688 65.3764 38.9838 65.3764C38.5988 65.3764 38.2838 65.0584 38.2838 64.6698V62.6911H36.3938V64.6698C36.3938 65.0584 36.0788 65.3764 35.6938 65.3764C35.3088 65.3764 34.9938 65.0584 34.9938 64.6698V62.6911H33.1126V64.6698C33.1126 65.0584 32.7976 65.3764 32.4126 65.3764C32.0276 65.3764 31.7126 65.0584 31.7126 64.6698V62.6911H29.8226V64.6698C29.8226 65.0584 29.5076 65.3764 29.1226 65.3764C28.7376 65.3764 28.4226 65.0584 28.4226 64.6698V62.6911H26.5326V64.6698C26.5326 65.0584 26.2176 65.3764 25.8326 65.3764C25.4476 65.3764 25.1326 65.0584 25.1326 64.6698V49.9623H16.7938C16.4088 49.9623 16.0938 49.6443 16.0938 49.2556C16.0938 48.8669 16.4088 48.5489 16.7938 48.5489H25.1326V44.1323H3.94883C2.74133 44.1323 1.76133 45.1216 1.76133 46.3406C1.76133 47.5596 2.74133 48.5489 3.94883 48.5489H12.6113C12.9963 48.5489 13.3113 48.8669 13.3113 49.2556C13.3113 49.6443 12.9963 49.9623 12.6113 49.9623H8.65633ZM42.1863 61.9049H25.9113V43.5139H42.1863V61.9049ZM26.5238 61.2866H41.5738V44.1323H26.5238V61.2866ZM74.2813 43.3549H72.0588V11.7493C72.0588 7.32377 68.4888 3.71977 64.1051 3.71977C59.9838 3.73744 56.3438 7.50044 56.1688 11.9436L56.1513 12.2793L55.8188 12.2351C55.6088 12.2086 55.3288 12.1733 55.0313 12.1733C54.7601 12.1733 54.5151 12.1998 54.2876 12.2351L53.9288 12.2793L53.9376 11.9171C54.0251 9.20527 55.0926 6.63477 56.9476 4.68261C58.8901 2.62444 61.4363 1.48494 64.0963 1.48494C66.8176 1.48494 69.3726 2.55377 71.2888 4.49711C73.2138 6.44044 74.2726 9.01977 74.2726 11.7581V43.3549H74.2813ZM72.6713 42.7366H73.6688V11.7669C73.6688 9.19644 72.6713 6.77611 70.8601 4.94761C69.0576 3.11911 66.6601 2.11211 64.1051 2.11211C61.6113 2.11211 59.2313 3.18094 57.3938 5.11544C55.7313 6.87327 54.7338 9.16111 54.5763 11.5814C54.7251 11.5638 54.8738 11.5549 55.0401 11.5549C55.2326 11.5549 55.4076 11.5638 55.5738 11.5814C55.7401 9.39961 56.6676 7.33261 58.2076 5.73377C59.8351 4.03777 61.9351 3.10144 64.1051 3.09261C68.8301 3.09261 72.6713 6.97044 72.6713 11.7404V42.7366ZM37.0851 43.3373H7.17758L7.23883 42.9751C7.69383 40.3074 10.0126 38.2316 12.5238 38.2316C12.5326 38.2316 12.5326 38.2316 12.5413 38.2316C13.8713 38.2316 15.1401 38.7351 16.1201 39.6361C16.1463 39.6626 16.1813 39.6626 16.1988 39.6538C16.2338 39.6449 16.2513 39.6184 16.2601 39.5919C17.1001 36.2264 20.0926 33.8768 23.5226 33.8768C27.0051 33.8768 29.9976 36.2618 30.8026 39.6803C30.8113 39.6979 30.8288 39.7244 30.8463 39.7333C30.8726 39.7421 30.8988 39.7509 30.9338 39.7421C31.4151 39.5919 31.9051 39.5124 32.3951 39.5124C34.5038 39.5124 36.3413 40.8904 36.9538 42.9398L37.0851 43.3373ZM7.92133 42.7189H36.2363C35.5888 41.1554 34.1013 40.1308 32.4038 40.1308C31.9751 40.1308 31.5376 40.2014 31.1176 40.3339L31.1001 40.3428C30.9163 40.3869 30.7238 40.3693 30.5663 40.2809C30.4001 40.1838 30.2688 40.0248 30.2251 39.8304C29.4813 36.6946 26.7338 34.5039 23.5401 34.5039C20.3901 34.5039 17.6426 36.6593 16.8726 39.7598C16.8113 39.9983 16.6363 40.1838 16.4001 40.2633L16.3826 40.2721C16.1463 40.3339 15.9013 40.2809 15.7176 40.1131C14.8426 39.3093 13.7226 38.8676 12.5501 38.8676C12.5413 38.8676 12.5413 38.8676 12.5326 38.8676C10.4151 38.8499 8.46383 40.5194 7.92133 42.7189ZM60.5351 18.0386H49.5451L49.5538 17.7206C49.6063 16.2984 50.1751 14.9734 51.1463 13.9929C52.1876 12.9418 53.5701 12.3676 55.0401 12.3676C56.5101 12.3676 57.8926 12.9418 58.9338 13.9929C59.9051 14.9734 60.4738 16.2984 60.5263 17.7206L60.5351 18.0386ZM50.1926 17.4203H59.8876C59.7738 16.2808 59.2838 15.2208 58.4963 14.4258C57.5688 13.4894 56.3438 12.9771 55.0401 12.9771C53.7363 12.9771 52.5026 13.4894 51.5838 14.4258C50.7876 15.2208 50.3063 16.2808 50.1926 17.4203Z" fill="#769C90"/>
<path d="M60.6315 24.5135C60.8503 24.5135 61.0253 24.3368 61.0253 24.116V22.7115C61.0253 22.4906 60.8503 22.314 60.6315 22.314C60.4128 22.314 60.2378 22.4906 60.2378 22.7115V24.116C60.2378 24.3368 60.4128 24.5135 60.6315 24.5135Z" fill="#73308A"/>
<path d="M54.647 32.2337C54.647 32.4545 54.822 32.6312 55.0407 32.6312C55.2595 32.6312 55.4345 32.4545 55.4345 32.2337V27.4107C55.4345 27.1899 55.2595 27.0132 55.0407 27.0132C54.822 27.0132 54.647 27.1899 54.647 27.4107V32.2337Z" fill="#73308A"/>
<path d="M55.0407 25.7943C55.2595 25.7943 55.4345 25.6176 55.4345 25.3968V22.7115C55.4345 22.4906 55.2595 22.314 55.0407 22.314C54.822 22.314 54.647 22.4906 54.647 22.7115V25.3968C54.647 25.6088 54.822 25.7943 55.0407 25.7943Z" fill="#73308A"/>
</svg>
