<svg width="59" height="60" viewBox="0 0 59 60" fill="none" xmlns="http://www.w3.org/2000/svg">
<path d="M1.51745 12.7332H48.9674V29.9999C48.9674 30.6782 49.5149 31.2332 50.1841 31.2332C50.8533 31.2332 51.4008 30.6782 51.4008 29.9999V12.7332H57.4841C58.1533 12.7332 58.7008 12.1782 58.7008 11.4999V1.63324C58.7008 0.954902 58.1533 0.399902 57.4841 0.399902H1.51745C0.848281 0.399902 0.300781 0.954902 0.300781 1.63324V11.4999C0.300781 12.1782 0.848281 12.7332 1.51745 12.7332Z" fill="#73308A"/>
<path d="M1.51633 59.6001H14.2913V54.2598H2.3315L0.445665 57.7748C0.238832 58.1571 0.250999 58.6258 0.469999 58.9958C0.688999 59.3658 1.0905 59.6001 1.51633 59.6001Z" fill="#769C90"/>
<path d="M16.7256 30.8262H42.2756V36.1665H16.7256V30.8262Z" fill="#769C90"/>
<path d="M1.51633 20.54H14.2913V15.1997H2.3315L0.445665 18.7147C0.238832 19.1094 0.250999 19.5657 0.469999 19.9357C0.688999 20.318 1.0905 20.54 1.51633 20.54Z" fill="#769C90"/>
<path d="M1.51633 36.1665H14.2913V30.8262H2.3315L0.445665 34.3412C0.238832 34.7235 0.250999 35.1922 0.469999 35.5622C0.688999 35.9322 1.0905 36.1665 1.51633 36.1665Z" fill="#769C90"/>
<path d="M1.51633 51.7932H14.2913V46.4404H2.34367L0.445665 49.9678C0.238832 50.3501 0.250999 50.8065 0.469999 51.1888C0.688999 51.5588 1.0905 51.7932 1.51633 51.7932Z" fill="#769C90"/>
<path d="M16.7256 46.4404H42.2756V51.7932H16.7256V46.4404Z" fill="#769C90"/>
<path d="M1.51633 28.3594H14.2913V23.0068H2.34367L0.445665 26.5341C0.238832 26.9165 0.250999 27.3728 0.469999 27.7551C0.688999 28.1251 1.0905 28.3594 1.51633 28.3594Z" fill="#769C90"/>
<path d="M16.7256 15.1997H42.2756V20.54H16.7256V15.1997Z" fill="#769C90"/>
<path d="M16.7256 23.0068H42.2756V28.3594H16.7256V23.0068Z" fill="#769C90"/>
<path d="M16.7256 38.6333H42.2756V43.9736H16.7256V38.6333Z" fill="#769C90"/>
<path d="M16.7256 54.2598H42.2756V59.6001H16.7256V54.2598Z" fill="#769C90"/>
<path d="M1.51633 43.9736H14.2913V38.6333H2.3315L0.445665 42.1483C0.238832 42.543 0.250999 42.9993 0.469999 43.3693C0.688999 43.7516 1.0905 43.9736 1.51633 43.9736Z" fill="#769C90"/>
<path d="M44.7085 15.1997H46.5335V20.54H44.7085V15.1997Z" fill="#769C90"/>
<path d="M44.7085 23.0068H46.5335V28.3594H44.7085V23.0068Z" fill="#769C90"/>
<path d="M56.6683 54.2598H44.7085V59.6001H57.4835C57.9093 59.6001 58.3108 59.3658 58.5298 58.9958C58.7488 58.6258 58.761 58.1571 58.5542 57.7748L56.6683 54.2598Z" fill="#769C90"/>
<path d="M56.6683 38.6333H44.7085V43.9736H57.4835C57.9093 43.9736 58.3108 43.7516 58.5298 43.3693C58.7488 42.9993 58.761 42.543 58.5542 42.1483L56.6683 38.6333Z" fill="#769C90"/>
<path d="M56.6683 30.8262H53.7362C53.3712 32.4665 51.9112 33.6998 50.1835 33.6998C48.4558 33.6998 46.9958 32.4665 46.6308 30.8262H44.7085V36.1665H57.4835C57.9093 36.1665 58.3108 35.9322 58.5298 35.5622C58.7488 35.1922 58.761 34.7235 58.5542 34.3412L56.6683 30.8262Z" fill="#769C90"/>
<path d="M56.6562 23.0068H53.8335V28.3594H57.4835C57.9093 28.3594 58.3108 28.1251 58.5298 27.7551C58.7488 27.3728 58.761 26.9165 58.5542 26.5341L56.6562 23.0068Z" fill="#769C90"/>
<path d="M56.6683 15.1997H53.8335V20.54H57.4835C57.9093 20.54 58.3108 20.318 58.5298 19.9357C58.7488 19.5657 58.761 19.1094 58.5542 18.7147L56.6683 15.1997Z" fill="#769C90"/>
<path d="M56.6562 46.4404H44.7085V51.7932H57.4835C57.9093 51.7932 58.3108 51.5588 58.5298 51.1888C58.7488 50.8065 58.761 50.3501 58.5542 49.9678L56.6562 46.4404Z" fill="#769C90"/>
</svg>
