<svg width="54" height="69" viewBox="0 0 54 69" fill="none" xmlns="http://www.w3.org/2000/svg">
<path d="M27.0002 60.9999C21.1682 60.9999 15.5042 59.0319 10.9322 55.4079C6.36024 51.7839 3.14424 46.7259 1.81224 41.0439C0.480243 35.3619 1.09824 29.4039 3.58224 24.1239C6.06624 18.8439 10.2542 14.5539 15.4802 11.9559C18.3482 10.5159 21.4622 9.63993 24.6602 9.36993C26.2262 9.21393 27.8102 9.21393 29.3762 9.36993C32.5682 9.64593 35.6762 10.5219 38.5382 11.9559C43.5722 14.4759 47.6582 18.5619 50.1782 23.5959C51.9662 27.1719 52.8962 31.1199 52.8842 35.1219C52.8722 39.1599 51.9242 43.1379 50.1062 46.7439C48.2942 50.3499 45.6602 53.4879 42.4262 55.8999C37.9682 59.2239 32.5562 61.0119 27.0002 60.9999ZM27.0002 11.4999C26.2862 11.4999 25.5782 11.5359 24.8702 11.6079C21.9482 11.8539 19.1042 12.6579 16.4822 13.9719C11.8802 16.2759 8.14824 20.0019 5.85024 24.6039C3.89424 28.5519 3.07224 32.9679 3.49224 37.3539C3.90624 41.7399 5.53824 45.9219 8.20824 49.4319C10.8722 52.9419 14.4662 55.6359 18.5822 57.2079C24.0182 59.2599 30.0122 59.2599 35.4422 57.2079C39.5582 55.6359 43.1522 52.9419 45.8162 49.4319C48.4802 45.9219 50.1182 41.7399 50.5322 37.3539C50.9462 32.9679 50.1302 28.5519 48.1682 24.6039C45.8642 20.0019 42.1382 16.2699 37.5362 13.9719C34.9202 12.6639 32.0822 11.8599 29.1662 11.6139C28.4402 11.5359 27.7202 11.4999 27.0002 11.4999Z" fill="#769C90"/>
<path d="M26.9999 55.792C21.5219 55.792 16.2599 53.614 12.3899 49.738C8.51994 45.862 6.33594 40.606 6.33594 35.122C6.33594 29.638 8.51394 24.382 12.3899 20.512C16.2659 16.642 21.5219 14.458 26.9999 14.458C32.4779 14.458 37.7399 16.636 41.6099 20.512C45.4799 24.388 47.6639 29.644 47.6639 35.122C47.6579 40.6 45.4799 45.85 41.6039 49.726C37.7339 53.602 32.4779 55.78 26.9999 55.792ZM26.9999 16.708C22.1159 16.708 17.4299 18.646 13.9799 22.102C10.5239 25.558 8.58594 30.238 8.58594 35.122C8.58594 40.006 10.5239 44.692 13.9799 48.142C17.4359 51.598 22.1159 53.536 26.9999 53.536C31.8839 53.536 36.5699 51.598 40.0199 48.142C43.4759 44.686 45.4139 40.006 45.4139 35.122C45.4079 30.238 43.4639 25.558 40.0139 22.108C36.5639 18.658 31.8839 16.714 26.9999 16.708Z" fill="#769C90"/>
<path d="M26.9996 22.75C26.6996 22.75 26.4176 22.63 26.2016 22.42C25.9916 22.21 25.8716 21.922 25.8716 21.622V19.372C25.8716 18.97 26.0876 18.598 26.4356 18.4C26.7836 18.202 27.2096 18.202 27.5636 18.4C27.9116 18.604 28.1276 18.97 28.1276 19.372V21.622C28.1276 21.922 28.0076 22.204 27.7976 22.42C27.5816 22.63 27.2996 22.75 26.9996 22.75Z" fill="#73308A"/>
<path d="M42.7499 36.2501H40.4999C40.0979 36.2501 39.7259 36.0341 39.5279 35.6861C39.3299 35.3381 39.3299 34.9121 39.5279 34.5581C39.7319 34.2101 40.0979 33.9941 40.4999 33.9941H42.7499C43.1519 33.9941 43.5239 34.2101 43.7219 34.5581C43.9199 34.9061 43.9199 35.3321 43.7219 35.6861C43.5239 36.0341 43.1519 36.2501 42.7499 36.2501Z" fill="#73308A"/>
<path d="M38.1353 47.3862C37.8353 47.3862 37.5533 47.2662 37.3373 47.0562L35.7473 45.4662C35.5313 45.2562 35.4113 44.9682 35.4053 44.6682C35.4053 44.3682 35.5193 44.0802 35.7353 43.8642C35.9453 43.6542 36.2393 43.5342 36.5393 43.5342C36.8393 43.5342 37.1273 43.6602 37.3373 43.8762L38.9273 45.4662C39.1373 45.6762 39.2573 45.9642 39.2573 46.2642C39.2573 46.5642 39.1373 46.8462 38.9273 47.0622C38.7233 47.2662 38.4353 47.3862 38.1353 47.3862Z" fill="#73308A"/>
<path d="M26.9996 52C26.6996 52 26.4176 51.88 26.2016 51.67C25.9916 51.46 25.8716 51.172 25.8716 50.872V48.622C25.8716 48.22 26.0876 47.848 26.4356 47.65C26.7836 47.452 27.2096 47.452 27.5636 47.65C27.9116 47.854 28.1276 48.22 28.1276 48.622V50.872C28.1276 51.172 28.0076 51.454 27.7976 51.67C27.5816 51.88 27.2996 52 26.9996 52Z" fill="#73308A"/>
<path d="M15.8643 47.3858C15.5643 47.3858 15.2823 47.2658 15.0663 47.0558C14.8563 46.8458 14.7363 46.5578 14.7363 46.2578C14.7363 45.9578 14.8563 45.6758 15.0663 45.4598L16.6563 43.8698C16.8663 43.6538 17.1543 43.5338 17.4543 43.5278C17.7543 43.5278 18.0423 43.6418 18.2583 43.8578C18.4683 44.0678 18.5883 44.3618 18.5883 44.6618C18.5883 44.9618 18.4623 45.2498 18.2463 45.4598L16.6563 47.0498C16.4463 47.2658 16.1643 47.3858 15.8643 47.3858Z" fill="#73308A"/>
<path d="M13.4999 36.2501H11.2499C10.8479 36.2501 10.4759 36.0341 10.2779 35.6861C10.0799 35.3381 10.0799 34.9121 10.2779 34.5581C10.4819 34.2101 10.8479 33.9941 11.2499 33.9941H13.4999C13.9019 33.9941 14.2739 34.2101 14.4719 34.5581C14.6699 34.9061 14.6699 35.3321 14.4719 35.6861C14.2739 36.0341 13.9019 36.2501 13.4999 36.2501Z" fill="#73308A"/>
<path d="M17.4547 26.7037C17.1547 26.7037 16.8727 26.5837 16.6567 26.3737L15.0667 24.7837C14.7907 24.4957 14.6887 24.0877 14.7907 23.7037C14.8987 23.3197 15.1927 23.0197 15.5767 22.9177C15.9607 22.8097 16.3687 22.9177 16.6567 23.1937L18.2467 24.7837C18.4567 24.9937 18.5767 25.2817 18.5767 25.5817C18.5767 25.8817 18.4567 26.1637 18.2467 26.3797C18.0367 26.5957 17.7547 26.7037 17.4547 26.7037Z" fill="#73308A"/>
<path d="M36.5469 26.7038C36.2469 26.7038 35.9649 26.5838 35.7489 26.3738C35.5329 26.1638 35.4189 25.8758 35.4189 25.5758C35.4189 25.2758 35.5389 24.9938 35.7489 24.7778L37.3389 23.1878C37.6269 22.9118 38.0349 22.8098 38.4189 22.9118C38.8029 23.0198 39.1029 23.3138 39.2049 23.6978C39.3129 24.0818 39.2049 24.4898 38.9289 24.7778L37.3389 26.3678C37.1289 26.5838 36.8469 26.7038 36.5469 26.7038Z" fill="#73308A"/>
<path d="M31.4996 36.25H26.9996C26.6996 36.25 26.4176 36.13 26.2016 35.92C25.9916 35.71 25.8716 35.422 25.8716 35.122V28.372C25.8716 27.97 26.0876 27.598 26.4356 27.4C26.7836 27.202 27.2096 27.202 27.5636 27.4C27.9116 27.604 28.1276 27.97 28.1276 28.372V34H31.4996C31.9016 34 32.2736 34.216 32.4716 34.564C32.6696 34.912 32.6696 35.338 32.4716 35.692C32.2736 36.034 31.9016 36.25 31.4996 36.25Z" fill="#73308A"/>
<path d="M49.1641 25.2281C48.9541 25.2281 48.75 25.1681 48.57 25.0601C48.39 24.9521 48.246 24.7901 48.156 24.6041C45.8521 20.0021 42.1261 16.2701 37.5241 13.9721C37.2001 13.8101 36.9721 13.5041 36.9181 13.1441C36.8581 12.7841 36.9781 12.4241 37.2301 12.1661L38.1421 11.2541C40.4161 8.98005 43.7281 8.09206 46.8361 8.92606C49.944 9.76006 52.368 12.1841 53.202 15.2921C54.036 18.4001 53.148 21.7121 50.874 23.9861L49.962 24.8981C49.746 25.1081 49.464 25.2221 49.1641 25.2281ZM39.8941 12.6881C43.8541 14.9801 47.1481 18.2681 49.434 22.2281C51.048 20.5061 51.648 18.0641 51.012 15.7961C50.376 13.5221 48.6 11.7461 46.3261 11.1101C44.0581 10.4741 41.6161 11.0741 39.8941 12.6881Z" fill="#769C90"/>
<path d="M50.0699 13.1798C49.7699 13.1798 49.4879 13.0598 49.2719 12.8498C49.0619 12.6398 48.9419 12.3518 48.9419 12.0518C48.9419 11.7518 49.0619 11.4698 49.2719 11.2538L50.8619 9.66378C51.0719 9.44778 51.3599 9.32178 51.6599 9.32178C51.9599 9.32178 52.2539 9.43578 52.4639 9.65178C52.6799 9.86778 52.7939 10.1558 52.7939 10.4558C52.7939 10.7558 52.6679 11.0438 52.4519 11.2538L50.8619 12.8438C50.6519 13.0598 50.3699 13.1798 50.0699 13.1798Z" fill="#769C90"/>
<path d="M4.83613 25.2281C4.53613 25.2281 4.25413 25.1081 4.03813 24.8981L3.12613 23.9861C0.852126 21.7121 -0.0358741 18.4001 0.798126 15.2921C1.63213 12.1841 4.05613 9.76006 7.16412 8.92606C10.2721 8.09206 13.5841 8.98005 15.8581 11.2541L16.7701 12.1661C17.0281 12.4241 17.1421 12.7841 17.0821 13.1441C17.0221 13.5041 16.8001 13.8101 16.4761 13.9721C11.8741 16.2761 8.14213 20.0021 5.84413 24.6041C5.74813 24.7901 5.61013 24.9461 5.43013 25.0601C5.25013 25.1681 5.04613 25.2221 4.83613 25.2281ZM9.49213 10.8701C7.72813 10.8701 6.03613 11.5601 4.77013 12.7961C3.51013 14.0321 2.77813 15.7061 2.74213 17.4701C2.70013 19.2341 3.35413 20.9441 4.56013 22.2341C6.84613 18.2741 10.1401 14.9801 14.1001 12.6941C12.8581 11.5181 11.2081 10.8641 9.49213 10.8701Z" fill="#769C90"/>
<path d="M3.9302 13.1801C3.6302 13.1801 3.3482 13.0601 3.1322 12.8501L1.5422 11.2601C1.3262 11.0501 1.2002 10.7621 1.2002 10.4621C1.2002 10.1621 1.3142 9.86812 1.5302 9.65812C1.7462 9.44212 2.0342 9.32812 2.3342 9.32812C2.6342 9.32812 2.9222 9.45412 3.1322 9.67012L4.7222 11.2601C4.9322 11.4701 5.0522 11.7581 5.0522 12.0581C5.0522 12.3581 4.9322 12.6401 4.7222 12.8561C4.5182 13.0601 4.2302 13.1801 3.9302 13.1801Z" fill="#769C90"/>
<path d="M31.5 7H22.5C21.906 7 21.33 6.76 20.91 6.34C20.49 5.92 20.25 5.344 20.25 4.75V2.5C20.25 1.906 20.49 1.33 20.91 0.91C21.33 0.49 21.906 0.25 22.5 0.25H31.5C32.094 0.25 32.67 0.49 33.09 0.91C33.51 1.33 33.75 1.906 33.75 2.5V4.75C33.75 5.344 33.51 5.92 33.09 6.34C32.67 6.76 32.094 7 31.5 7ZM22.5 2.5V4.75H31.5V2.5H22.5Z" fill="#769C90"/>
<path d="M29.2496 11.614C29.2076 11.614 29.1716 11.614 29.1296 11.608C27.7136 11.464 26.2856 11.464 24.8636 11.608C24.5456 11.638 24.2336 11.536 23.9936 11.326C23.7536 11.11 23.6216 10.81 23.6216 10.492V5.878C23.6216 5.578 23.7416 5.296 23.9516 5.08C24.1616 4.87 24.4496 4.75 24.7496 4.75H29.2496C29.5496 4.75 29.8316 4.87 30.0476 5.08C30.2576 5.29 30.3776 5.578 30.3776 5.878V10.492C30.3776 10.792 30.2576 11.074 30.0476 11.29C29.8316 11.494 29.5496 11.614 29.2496 11.614ZM26.9996 9.25C27.3836 9.25 27.7616 9.256 28.1276 9.274V7H25.8776V9.274C26.2376 9.256 26.6156 9.25 26.9996 9.25Z" fill="#769C90"/>
<path d="M9.9291 68.3861C9.6111 68.3861 9.2991 68.3441 8.9931 68.2601C8.1291 68.0261 7.3911 67.4621 6.9291 66.6881C6.4731 65.9141 6.3351 64.9961 6.5451 64.1261L9.1911 53.098C9.2871 52.708 9.5751 52.402 9.9591 52.282C10.3431 52.168 10.7571 52.264 11.0511 52.534C12.3951 53.788 13.8891 54.868 15.4971 55.756C15.7251 55.882 15.9051 56.08 16.0011 56.326C16.0971 56.566 16.1091 56.836 16.0311 57.082L13.2291 65.9681C13.0071 66.6701 12.5691 67.2821 11.9751 67.7141C11.3751 68.1521 10.6611 68.3861 9.9291 68.3861ZM10.9431 55.414L8.7291 64.6421C8.6331 65.0561 8.7591 65.4821 9.0651 65.7821C9.3651 66.0761 9.7971 66.1961 10.2111 66.0941C10.6191 65.9921 10.9491 65.6861 11.0811 65.2841L13.6071 57.262C12.9051 56.842 12.2271 56.386 11.5791 55.894C11.3631 55.744 11.1531 55.582 10.9431 55.414Z" fill="#769C90"/>
<path d="M44.0691 68.3861C43.3371 68.3861 42.6231 68.1521 42.0291 67.7201C41.4351 67.2881 40.9971 66.6761 40.7751 65.9741L37.9731 57.082C37.8951 56.836 37.9071 56.566 38.0031 56.326C38.0991 56.086 38.2791 55.882 38.5071 55.756C40.1151 54.868 41.6031 53.782 42.9531 52.534C43.2471 52.264 43.6611 52.168 44.0451 52.282C44.4291 52.396 44.7231 52.708 44.8131 53.098L47.4591 64.1261C47.6691 64.9961 47.5311 65.9201 47.0751 66.6881C46.6191 67.4621 45.8811 68.0261 45.0111 68.2601C44.7051 68.3441 44.3871 68.3861 44.0691 68.3861ZM40.3911 57.268L42.9231 65.2901C43.0551 65.6921 43.3851 65.9981 43.7931 66.0941C44.2011 66.1961 44.6391 66.0761 44.9391 65.7761C45.2391 65.4821 45.3651 65.0501 45.2691 64.6361L43.0551 55.42C42.8451 55.588 42.6291 55.75 42.4191 55.912C41.7651 56.398 41.0871 56.848 40.3911 57.268Z" fill="#769C90"/>
</svg>
