<svg width="96" height="96" viewBox="0 0 96 96" fill="none" xmlns="http://www.w3.org/2000/svg">
<path d="M68.0642 64.8958C70.9442 62.6878 74.8802 59.6158 76.7042 55.5838C77.7602 53.1838 77.0882 49.6318 75.0722 47.4238C73.5362 45.6958 71.6162 45.1198 69.6002 45.6958C68.8322 45.8878 68.1602 46.2718 67.4882 46.7518L67.8722 43.9678C67.9682 43.6798 67.9682 43.4878 67.9682 43.1998V43.1038C67.7762 38.4958 57.7922 36.3838 48.3842 36.3838C38.9762 36.3838 28.8962 38.4958 28.8002 43.1038V43.1998C28.8002 43.4878 28.8002 43.6798 28.8962 43.9678L31.8722 64.3198C19.2002 65.9518 6.24023 69.8878 6.24023 76.5118C6.24023 85.0558 27.7442 89.6638 48.0002 89.6638C68.2562 89.6638 89.7602 85.0558 89.7602 76.5118C89.7602 71.3278 81.7922 67.1038 68.0642 64.8958ZM34.8482 65.8558L34.7522 65.2798L32.0642 47.2318C35.5202 48.9598 41.5682 50.0158 48.3842 50.0158C49.8242 50.0158 51.2642 49.9198 52.6082 49.9198C57.6002 49.5358 61.9202 48.6718 64.7042 47.2318L61.9202 65.9518C61.1522 70.9438 56.8322 74.6878 51.8402 74.6878H44.8322C39.8402 74.5918 35.5202 70.8478 34.8482 65.8558ZM70.3682 48.2878C71.3282 47.9998 72.2882 48.2878 73.0562 49.2478C74.3042 50.6878 74.7842 53.0878 74.2082 54.5278C72.6722 57.9838 68.9282 60.8638 66.2402 62.8798C65.7602 63.2638 65.3762 63.5518 64.8962 63.8398L66.7202 51.1678C67.9682 49.6318 69.2162 48.5758 70.3682 48.2878ZM48.3842 39.0718C58.7522 39.0718 65.1842 41.6638 65.2802 43.1038V43.2958C65.2802 43.3918 65.1842 43.4878 65.0882 43.5838C63.7442 42.8158 61.9202 42.1438 59.6162 41.6638C58.8482 41.4718 58.1762 41.9518 57.9842 42.7198C57.7922 43.4878 58.2722 44.1598 59.0402 44.3518C60.2882 44.6398 61.3442 44.9278 62.3042 45.3118H62.2082C62.1122 45.3118 62.1122 45.3118 62.0162 45.4078C61.8242 45.5038 61.6322 45.5038 61.5362 45.5998C61.4402 45.5998 61.3442 45.6958 61.3442 45.6958C61.1522 45.7918 60.9602 45.7918 60.7682 45.8878H60.5762C60.2882 45.9838 60.0002 46.0798 59.7122 46.0798C59.6162 46.0798 59.6162 46.0798 59.5202 46.1758C59.3282 46.2718 59.0402 46.2718 58.8482 46.3678C58.7522 46.3678 58.6562 46.3678 58.5602 46.4638C58.3682 46.5598 58.0802 46.5598 57.7922 46.6558H57.5042C57.2162 46.7518 56.8322 46.7518 56.4482 46.8478H56.2562C55.9682 46.8478 55.6802 46.9438 55.3922 46.9438H55.0082C54.7202 46.9438 54.4322 47.0398 54.1442 47.0398H53.8562C53.4722 47.0398 53.0882 47.1358 52.7042 47.1358H52.5122C52.1282 47.1358 51.7442 47.1358 51.4562 47.2318H51.0722H50.1122H49.7282H48.3842H47.0402H46.6562H45.6962H45.3122C44.9282 47.2318 44.5442 47.2318 44.2562 47.1358H44.0642C43.6802 47.1358 43.2962 47.0398 42.9122 47.0398H42.5282C42.2402 47.0398 41.9522 46.9438 41.6642 46.9438H41.2802C40.9922 46.9438 40.7042 46.8478 40.4162 46.8478H40.2242C39.8402 46.7518 39.5522 46.7518 39.2642 46.6558C39.1682 46.6558 39.0722 46.6558 38.9762 46.5598C38.7842 46.5598 38.4962 46.4638 38.3042 46.4638C38.2082 46.4638 38.1122 46.4638 38.0162 46.3678C37.8242 46.2718 37.5362 46.2718 37.3442 46.1758C37.2482 46.1758 37.1522 46.1758 37.0562 46.0798C36.7682 45.9838 36.4802 45.9838 36.2882 45.8878C36.1922 45.8878 36.1922 45.8878 36.0962 45.7918C35.9042 45.6958 35.7122 45.6958 35.5202 45.5998C35.4242 45.5998 35.3282 45.5038 35.2322 45.5038C35.0402 45.4078 34.9442 45.4078 34.7522 45.3118C34.6562 45.3118 34.5602 45.2158 34.5602 45.2158H34.4642C37.3442 44.0638 42.2402 43.1998 48.3842 43.1998H50.2082C50.9762 43.1998 51.5522 42.6238 51.5522 41.8558C51.5522 41.0878 50.9762 40.5118 50.2082 40.5118H48.2882C41.1842 40.5118 34.9442 41.6638 31.5842 43.5838C31.4882 43.4878 31.4882 43.3918 31.3922 43.2958V43.1038C31.5842 41.7598 38.0162 39.0718 48.3842 39.0718ZM48.0002 87.0718C24.9602 87.0718 8.92823 81.5038 8.92823 76.6078C8.92823 73.2478 16.9922 68.9278 32.3522 67.0078C32.6402 68.6398 33.3122 70.1758 34.1762 71.5198C30.1442 72.7678 28.0322 74.4958 28.0322 76.6078C28.0322 81.3118 38.4002 83.4238 48.0002 83.4238C48.7682 83.4238 49.3442 82.8478 49.3442 82.0798C49.3442 81.3118 48.7682 80.6398 48.0002 80.6398C36.5762 80.6398 30.7202 77.7598 30.7202 76.5118C30.7202 76.1278 31.7762 74.7838 36.0962 73.7278C38.4002 75.9358 41.5682 77.2798 44.9282 77.2798H51.8402C55.1042 77.2798 58.1762 76.0318 60.4802 73.9198C64.3202 74.9758 65.2802 76.2238 65.2802 76.6078C65.2802 76.8958 64.7042 77.7598 62.0162 78.8158C61.3442 79.1038 60.9602 79.8718 61.2482 80.5438C61.4402 81.1198 61.9202 81.4078 62.4962 81.4078C62.6882 81.4078 62.7842 81.4078 62.9762 81.3118C66.3362 80.0638 67.9682 78.5278 67.9682 76.6078C67.9682 74.5918 66.0482 72.9598 62.4962 71.7118C63.3602 70.4638 64.0322 69.1198 64.4162 67.5838C64.6082 67.4878 64.8002 67.2958 64.9922 67.1998C79.4882 69.2158 87.0722 73.3438 87.0722 76.6078C87.0722 81.5038 71.0402 87.0718 48.0002 87.0718Z" fill="#769C90"/>
<path d="M46.5998 23.9921C46.5998 22.6481 45.9278 21.9761 44.8718 20.9201C43.7198 19.8641 42.2798 18.5201 42.2798 15.8321C42.2798 13.2401 43.7198 11.8961 44.8718 10.7441C46.0238 9.68812 46.5998 9.01612 46.5998 7.67212C46.5998 6.90413 47.1758 6.32812 47.9438 6.32812C48.7118 6.32812 49.2878 6.90413 49.2878 7.67212C49.2878 10.2641 47.8478 11.6081 46.6958 12.7601C45.5438 13.8161 44.9678 14.4881 44.9678 15.8321C44.9678 17.1761 45.6398 17.8481 46.6958 18.9041C47.8478 19.9601 49.2878 21.3041 49.2878 23.9921C49.2878 26.5841 47.8478 27.9281 46.6958 29.0801C45.5438 30.1361 44.9678 30.8081 44.9678 32.1521C44.9678 32.9201 44.3918 33.4961 43.6238 33.4961C42.8558 33.4961 42.2798 32.9201 42.2798 32.1521C42.2798 29.5601 43.7198 28.2161 44.8718 27.0641C46.0238 26.0081 46.5998 25.3361 46.5998 23.9921Z" fill="#73308A"/>
<path d="M47.5601 15.8321C47.5601 13.2401 49.0001 11.8961 50.1521 10.7441C51.3041 9.68812 51.8801 9.01612 51.8801 7.67212C51.8801 6.90413 52.4561 6.32812 53.2241 6.32812C53.9921 6.32812 54.5681 6.90413 54.5681 7.67212C54.5681 10.2641 53.1281 11.6081 51.9761 12.7601C50.8241 13.8161 50.2481 14.4881 50.2481 15.8321C50.2481 17.1761 50.9201 17.8481 51.9761 18.9041C53.1281 19.9601 54.5681 21.3041 54.5681 23.9921C54.5681 26.5841 53.1281 27.9281 51.9761 29.0801C50.8241 30.1361 50.2481 30.8081 50.2481 32.1521C50.2481 32.9201 49.6721 33.4961 48.9041 33.4961C48.1361 33.4961 47.5601 32.9201 47.5601 32.1521C47.5601 29.5601 49.0001 28.2161 50.1521 27.0641C51.3041 26.0081 51.8801 25.3361 51.8801 23.9921C51.8801 22.6481 51.2081 21.9761 50.1521 20.9201C49.0001 19.8641 47.5601 18.5201 47.5601 15.8321Z" fill="#73308A"/>
</svg>
