<svg width="85" height="69" viewBox="0 0 85 69" fill="none" xmlns="http://www.w3.org/2000/svg">
<path d="M84.4846 58.9685L69.6851 49.7197V54.8907H58.0859C64.0575 49.4532 67.9263 41.7443 68.2975 33.1407H73.4985L64.2475 18.3413L54.9972 33.1407H60.1288C59.8176 38.4884 57.6751 43.348 54.3272 47.1151C54.5798 46.5849 54.7321 46.0004 54.7321 45.3751V16.9369C55.4744 17.8245 56.1634 18.7692 56.7808 19.7795L57.4891 20.9389L64.4791 16.684L63.7709 15.5231C58.0383 6.12567 48.0521 0.515625 37.0604 0.515625C20.2759 0.515625 6.53864 13.8107 5.82307 30.4219H0.622062L9.87234 45.2213L19.1226 30.4219H13.991C14.2901 25.2984 16.2787 20.6293 19.3891 16.9332V45.375C19.3891 47.6234 21.2189 49.4531 23.4672 49.4531H50.6547C51.2529 49.4531 51.8156 49.3172 52.3282 49.0847C48.2501 52.6856 42.9133 54.8906 37.0597 54.8906H13.9503V57.6094H37.0597C51.3023 57.6094 62.8878 46.0239 62.8878 31.7812V30.4219H59.904L64.2472 23.4715L68.5904 30.4219H65.6066V31.7812C65.6066 47.5224 52.8002 60.3281 37.0597 60.3281H0.356567V63.0469H69.6847V68.2179L84.4846 58.9685ZM27.5445 22.2654V19.5467H30.2633V22.2654H32.982V19.5467H35.7008V22.2654H38.4195V19.5467H41.1383V22.2654H43.857V19.5467H46.5758V22.2654H49.2945V19.5467H52.0133V24.9842H22.107V19.5467H24.8258V22.2654H27.5445ZM11.232 31.781V33.1404H14.2158L9.87263 40.0908L5.52945 33.1404H8.51326V31.781C8.51326 16.0398 21.3197 3.23416 37.0601 3.23416C46.6425 3.23416 55.3845 7.90359 60.7118 15.7919L58.3629 17.2221C53.5329 10.1412 45.6668 5.95269 37.0603 5.95269C22.8177 5.95269 11.2322 17.5382 11.2322 31.7808L11.232 31.781ZM19.4724 16.8279C23.7151 11.8458 30.0197 8.67166 37.0601 8.67166C43.9371 8.67166 50.2798 11.6719 54.6399 16.8279H49.2947V14.1092H46.576V16.8279H43.8572V14.1092H41.1385V16.8279H38.4197V14.1092H35.701V16.8279H32.9822V14.1092H30.2635V16.8279H27.5447V14.1092H24.826V16.8279H19.4724ZM50.6539 46.7342H23.4664C22.7159 46.7342 22.107 46.1239 22.107 45.3748V27.7029H52.0133V45.3748C52.0133 46.1239 51.4044 46.7342 50.6539 46.7342ZM49.7892 60.3279C51.4952 59.5638 53.1183 58.653 54.6462 57.6092H72.4036V54.6239L79.354 58.9685L72.4036 63.3132V60.3279H49.7892Z" fill="#769D91"/>
<path d="M8.51562 54.8906H11.2344V57.6094H8.51562V54.8906Z" fill="#769D91"/>
<path d="M3.07812 54.8906H5.79688V57.6094H3.07812V54.8906Z" fill="#769D91"/>
<path d="M46.5781 30.4219H49.2969V33.1406H46.5781V30.4219Z" fill="#769D91"/>
<path d="M41.1406 30.4219H43.8594V33.1406H41.1406V30.4219Z" fill="#769D91"/>
<path d="M35.7031 30.4219H38.4219V33.1406H35.7031V30.4219Z" fill="#769D91"/>
<path d="M30.2656 30.4219H32.9844V33.1406H30.2656V30.4219Z" fill="#769D91"/>
<path d="M24.8281 30.4219H27.5469V33.1406H24.8281V30.4219Z" fill="#769D91"/>
<path d="M46.5781 35.8594H49.2969V38.5781H46.5781V35.8594Z" fill="#769D91"/>
<path d="M41.1406 35.8594H43.8594V38.5781H41.1406V35.8594Z" fill="#769D91"/>
<path d="M35.7031 35.8594H38.4219V38.5781H35.7031V35.8594Z" fill="#769D91"/>
<path d="M30.2656 35.8594H32.9844V38.5781H30.2656V35.8594Z" fill="#769D91"/>
<path d="M24.8281 35.8594H27.5469V38.5781H24.8281V35.8594Z" fill="#769D91"/>
<path d="M46.5781 41.2969H49.2969V44.0156H46.5781V41.2969Z" fill="#769D91"/>
<path d="M41.1406 41.2969H43.8594V44.0156H41.1406V41.2969Z" fill="#769D91"/>
<path d="M35.7031 41.2969H38.4219V44.0156H35.7031V41.2969Z" fill="#769D91"/>
<path d="M30.2656 41.2969H32.9844V44.0156H30.2656V41.2969Z" fill="#769D91"/>
<path d="M24.8281 41.2969H27.5469V44.0156H24.8281V41.2969Z" fill="#769D91"/>
</svg>
