<svg width="153" height="152" viewBox="0 0 153 152" fill="none" xmlns="http://www.w3.org/2000/svg">
<mask id="mask0_220_1167" style="mask-type:luminance" maskUnits="userSpaceOnUse" x="0" y="0" width="153" height="152">
<path d="M0.601562 0.595703H152.614V151.478H0.601562V0.595703Z" fill="white"/>
</mask>
<g mask="url(#mask0_220_1167)">
<mask id="mask1_220_1167" style="mask-type:luminance" maskUnits="userSpaceOnUse" x="0" y="0" width="153" height="152">
<path d="M76.5622 0.587891C34.6111 0.587891 0.601562 34.3618 0.601562 76.0291C0.601562 117.696 34.6111 151.47 76.5622 151.47C118.519 151.47 152.528 117.696 152.528 76.0291C152.528 34.3618 118.519 0.587891 76.5622 0.587891Z" fill="white"/>
</mask>
<g mask="url(#mask1_220_1167)">
<path d="M0.601562 0.587891H152.662V151.47H0.601562V0.587891Z" fill="#72308A"/>
</g>
</g>
<path d="M41.7314 79.8613H59.6814L59.4672 84.488H46.1868L45.6513 91.2353C46.6794 90.6516 47.654 90.2286 48.5858 89.9716C49.5283 89.7145 50.5564 89.586 51.6703 89.586C53.5392 89.586 55.2099 89.9394 56.6826 90.6356C58.1659 91.3371 59.3386 92.3652 60.1954 93.7201C61.0629 95.0802 61.5021 96.7296 61.5021 98.6681C61.5021 100.639 61.0522 102.347 60.1526 103.787C59.2637 105.217 58.0106 106.315 56.3827 107.086C54.7548 107.857 52.827 108.243 50.5993 108.243C48.7679 108.243 47.0703 107.954 45.5013 107.386C43.927 106.818 42.5668 106.037 41.4101 105.051C40.2641 104.066 39.3966 102.941 38.7969 101.667L43.2094 99.0536C43.7074 99.9426 44.2697 100.735 44.9016 101.431C45.5442 102.133 46.2778 102.69 47.1078 103.102C47.9325 103.504 48.9071 103.702 50.0209 103.702C51.6917 103.702 53.0305 103.263 54.0479 102.374C55.0761 101.474 55.5901 100.312 55.5901 98.8823C55.5901 97.9826 55.3599 97.1794 54.9047 96.4618C54.4442 95.7496 53.8176 95.1873 53.0197 94.7696C52.2165 94.3573 51.2847 94.1485 50.2137 94.1485C49.6407 94.1485 49.0999 94.202 48.5858 94.2984C48.0824 94.3841 47.5684 94.5661 47.0436 94.8339C46.5295 95.0909 45.9565 95.4711 45.33 95.9692C45.1425 96.0441 45.014 96.0763 44.9444 96.0763C44.8694 96.0763 44.7356 96.0334 44.5374 95.9477L40.4462 94.0414L41.7314 79.8613Z" fill="white"/>
<path d="M69.8288 107.814V86.8871H64.8594V83.6955C66.4552 83.6955 67.7511 83.5456 68.7364 83.2457C69.7217 82.9351 70.4553 82.4906 70.9426 81.9176C71.4246 81.35 71.7191 80.6646 71.8209 79.8613H75.5694V107.814H69.8288Z" fill="white"/>
<path d="M88.5998 79.4395C89.9279 79.4395 91.1167 79.7982 92.177 80.5105C93.2319 81.212 94.0673 82.1705 94.6831 83.3807C95.3096 84.5963 95.6256 85.9511 95.6256 87.4505C95.6256 88.9392 95.315 90.2726 94.7045 91.4561C94.1048 92.6449 93.2694 93.5766 92.1984 94.2621C91.1381 94.9475 89.9386 95.2902 88.5998 95.2902C87.2557 95.2902 86.0509 94.9475 84.9799 94.2621C83.9196 93.5766 83.0788 92.6449 82.4523 91.4561C81.8365 90.2726 81.5312 88.9392 81.5312 87.4505C81.5312 85.9511 81.8365 84.5963 82.4523 83.3807C83.0788 82.1705 83.9303 81.212 85.0013 80.5105C86.0723 79.7982 87.2718 79.4395 88.5998 79.4395ZM88.557 92.4414C89.5852 92.4414 90.3241 92.0023 90.7847 91.1133C91.2399 90.2298 91.4701 89.0088 91.4701 87.4505C91.4701 85.8387 91.2238 84.5749 90.7418 83.6592C90.2706 82.7488 89.5423 82.2883 88.557 82.2883C87.9144 82.2883 87.3789 82.4972 86.9505 82.9095C86.5328 83.3272 86.2222 83.9269 86.008 84.7088C85.7938 85.4799 85.6867 86.3956 85.6867 87.4505C85.6867 88.9928 85.9116 90.2137 86.3722 91.1133C86.8434 92.0023 87.5717 92.4414 88.557 92.4414ZM106.957 92.3129C108.285 92.3129 109.474 92.6716 110.534 93.3839C111.605 94.1014 112.446 95.0653 113.061 96.2756C113.672 97.4911 113.983 98.8406 113.983 100.324C113.983 101.813 113.672 103.151 113.061 104.351C112.462 105.54 111.626 106.482 110.555 107.178C109.495 107.864 108.296 108.206 106.957 108.206C105.597 108.206 104.386 107.864 103.315 107.178C102.244 106.482 101.393 105.54 100.766 104.351C100.151 103.151 99.8453 101.813 99.8453 100.324C99.8453 98.8406 100.156 97.4911 100.788 96.2756C101.414 95.0653 102.266 94.1014 103.337 93.3839C104.418 92.6716 105.629 92.3129 106.957 92.3129ZM106.914 105.293C107.567 105.293 108.113 105.095 108.542 104.694C108.97 104.297 109.281 103.724 109.484 102.98C109.699 102.241 109.806 101.368 109.806 100.367C109.806 99.2958 109.699 98.3747 109.484 97.6036C109.27 96.8325 108.949 96.2434 108.52 95.8257C108.092 95.4134 107.557 95.2046 106.914 95.2046C106.271 95.2046 105.736 95.4134 105.307 95.8257C104.89 96.2434 104.579 96.8432 104.365 97.625C104.151 98.3961 104.044 99.3118 104.044 100.367C104.044 101.368 104.14 102.241 104.344 102.98C104.558 103.724 104.879 104.297 105.307 104.694C105.736 105.095 106.271 105.293 106.914 105.293ZM108.563 79.568L89.7565 107.971L86.4364 107.928L105.286 79.568H108.563Z" fill="white"/>
<mask id="mask2_220_1167" style="mask-type:luminance" maskUnits="userSpaceOnUse" x="59" y="34" width="36" height="31">
<path d="M59.125 34.2715H94.0289V64.4308H59.125V34.2715Z" fill="white"/>
</mask>
<g mask="url(#mask2_220_1167)">
<path d="M81.6233 64.3533C80.2257 64.3533 79.0904 63.218 79.0904 61.8204V58.013C79.0904 57.3275 78.8066 56.6528 78.3086 56.1601C77.832 55.6835 77.2055 55.4211 76.5522 55.4211C76.5468 55.4211 76.5415 55.4211 76.5361 55.4211C75.8667 55.4265 75.2348 55.6889 74.7582 56.1655C74.2817 56.6421 74.0139 57.2793 74.0139 57.9594V61.8204C74.0139 63.218 72.8786 64.3533 71.481 64.3533C70.0833 64.3533 68.9427 63.218 68.9427 61.8204V47.1798C68.9427 46.232 68.4822 45.3323 67.7057 44.7861L60.0802 39.399C60.0749 39.3936 60.0641 39.3883 60.0534 39.3829C59.4804 38.9278 59.1484 38.2477 59.1484 37.5087C59.1484 36.593 59.6625 35.7737 60.4872 35.372C61.3065 34.9758 62.2597 35.0722 62.9773 35.6291L64.8194 36.8822C68.0591 39.0938 71.8505 40.2612 75.7703 40.2612H77.334C81.2592 40.2612 85.0452 39.0938 88.285 36.8822L90.1271 35.6291C90.85 35.0722 91.7978 34.9758 92.6172 35.372C93.4472 35.7737 93.9559 36.593 93.9559 37.5087C93.9559 38.2477 93.6292 38.9278 93.0509 39.3829C93.0402 39.3883 93.0295 39.3936 93.0241 39.399L85.404 44.7861C84.6221 45.3323 84.1616 46.232 84.1616 47.1798V61.8204C84.1616 63.218 83.021 64.3533 81.6233 64.3533ZM76.5522 54.152C77.5428 54.152 78.4853 54.5483 79.2029 55.2605C79.9365 55.9888 80.3542 56.9902 80.3542 58.013V61.8204C80.3542 62.5165 80.9272 63.0841 81.6233 63.0841C82.3249 63.0841 82.8925 62.5165 82.8925 61.8204V47.1798C82.8925 45.8196 83.5565 44.5344 84.6703 43.7526L92.2744 38.3762C92.5422 38.162 92.6921 37.8514 92.6921 37.5087C92.6921 37.0749 92.4565 36.7001 92.0656 36.5127C91.6747 36.3199 91.2356 36.3681 90.8928 36.6358C90.8821 36.6465 90.8714 36.6572 90.8607 36.6626L89.0025 37.9317C85.5486 40.2826 81.5109 41.5303 77.334 41.5303H75.7703C71.5934 41.5303 67.5558 40.2826 64.1018 37.9317L62.249 36.6626C62.2329 36.6572 62.2222 36.6465 62.2115 36.6358C61.8688 36.3681 61.4297 36.3199 61.0388 36.5127C60.6478 36.7001 60.4122 37.0749 60.4122 37.5087C60.4122 37.8514 60.5675 38.162 60.8299 38.3762L68.434 43.7526C69.5478 44.5344 70.2119 45.8196 70.2119 47.1798V61.8204C70.2119 62.5165 70.7795 63.0841 71.481 63.0841C72.1771 63.0841 72.7501 62.5165 72.7501 61.8204V57.9594C72.7501 56.942 73.1464 55.9888 73.864 55.2658C74.5762 54.5536 75.5187 54.1627 76.5254 54.152C76.5361 54.152 76.5415 54.152 76.5522 54.152Z" fill="white"/>
</g>
<path d="M76.5556 41.4939C73.7602 41.4939 71.4844 39.218 71.4844 36.4227C71.4844 33.6274 73.7602 31.3516 76.5556 31.3516C79.3509 31.3516 81.6267 33.6274 81.6267 36.4227C81.6267 39.218 79.3509 41.4939 76.5556 41.4939ZM76.5556 32.6153C74.4564 32.6153 72.7535 34.3236 72.7535 36.4227C72.7535 38.5219 74.4564 40.2248 76.5556 40.2248C78.6547 40.2248 80.3576 38.5219 80.3576 36.4227C80.3576 34.3236 78.6547 32.6153 76.5556 32.6153Z" fill="white"/>
<path d="M83.527 51.0074H69.5826C69.2291 51.0074 68.9453 50.7236 68.9453 50.3755C68.9453 50.0221 69.2291 49.7383 69.5826 49.7383H83.527C83.8804 49.7383 84.1642 50.0221 84.1642 50.3755C84.1642 50.7236 83.8804 51.0074 83.527 51.0074Z" fill="white"/>
<mask id="mask3_220_1167" style="mask-type:luminance" maskUnits="userSpaceOnUse" x="71" y="23" width="9" height="8">
<path d="M71.7188 23.6797H79.944V30.1592H71.7188V23.6797Z" fill="white"/>
</mask>
<g mask="url(#mask3_220_1167)">
<path d="M78.0707 30.0789C77.9689 30.0789 77.8672 30.0575 77.7762 30.0039L76.3999 29.2864L75.029 30.0039C74.8148 30.1164 74.5578 30.1003 74.365 29.9557C74.1669 29.8165 74.0705 29.5755 74.1133 29.3399L74.3704 27.8084L73.2619 26.7267C73.0905 26.5607 73.0263 26.309 73.1012 26.0787C73.1762 25.8485 73.3744 25.6825 73.6153 25.645L75.1469 25.4254L75.8323 24.0331C75.9394 23.8189 76.1589 23.6797 76.3999 23.6797C76.6463 23.6797 76.8658 23.8189 76.9729 24.0331L77.6583 25.4254L79.1899 25.645C79.4309 25.6825 79.629 25.8485 79.704 26.0787C79.7789 26.309 79.7147 26.5607 79.5433 26.7267L78.4295 27.8084L78.6919 29.3399C78.7347 29.5755 78.6383 29.8165 78.4402 29.9557C78.3331 30.0361 78.1992 30.0789 78.0707 30.0789ZM75.0665 26.716L75.4949 27.1337C75.6449 27.2836 75.7145 27.4924 75.677 27.6959L75.5806 28.285L76.1054 28.0065C76.2928 27.9101 76.5124 27.9101 76.6998 28.0065L77.2246 28.285L77.1282 27.6959C77.0907 27.4924 77.1603 27.2782 77.3103 27.1337L77.7387 26.716L77.1443 26.6303C76.9408 26.6035 76.7587 26.4696 76.6677 26.2822L76.3999 25.7467L76.1375 26.2822C76.0465 26.4696 75.8644 26.6035 75.6609 26.6303L75.0665 26.716Z" fill="white"/>
</g>
<path d="M70.1332 32.0613C70.0314 32.0613 69.9297 32.0399 69.8387 31.9864L68.4624 31.2688L67.0915 31.9864C66.8773 32.0988 66.6203 32.0827 66.4275 31.9382C66.2294 31.7989 66.133 31.558 66.1758 31.3223L66.4329 29.7908L65.3244 28.7091C65.153 28.5431 65.0888 28.2914 65.1637 28.0611C65.2387 27.8309 65.4369 27.6649 65.6778 27.6274L67.2094 27.4078L67.8948 26.0155C68.0019 25.8013 68.2214 25.6621 68.4624 25.6621C68.7088 25.6621 68.9283 25.8013 69.0354 26.0155L69.7208 27.4078L71.2524 27.6274C71.4934 27.6649 71.6915 27.8309 71.7665 28.0611C71.8414 28.2914 71.7772 28.5431 71.6058 28.7091L70.492 29.7908L70.7544 31.3223C70.7972 31.558 70.7008 31.7989 70.5027 31.9382C70.3956 32.0185 70.2617 32.0613 70.1332 32.0613ZM68.4624 29.9193C68.5642 29.9193 68.6659 29.9408 68.7623 29.9889L69.2871 30.2674L69.1907 29.6784C69.1532 29.4749 69.2228 29.266 69.3728 29.1161L69.8012 28.6984L69.2068 28.6127C69.0033 28.5859 68.8212 28.4521 68.7302 28.27L68.4624 27.7291L68.2 28.2646C68.109 28.4521 67.9269 28.5859 67.7234 28.6127L67.129 28.6984L67.5574 29.1161C67.7074 29.2607 67.777 29.4749 67.7395 29.6784L67.6378 30.2674L68.1679 29.9889C68.2643 29.9408 68.366 29.9193 68.4624 29.9193Z" fill="white"/>
<path d="M86.0785 32.0613C85.9767 32.0613 85.875 32.0399 85.7786 31.9864L84.4077 31.2688L83.0369 31.9864C82.8227 32.0988 82.5656 32.0827 82.3675 31.9382C82.1747 31.7989 82.0783 31.558 82.1158 31.3223L82.3782 29.7908L81.2697 28.7091C81.0983 28.5431 81.0341 28.2914 81.1091 28.0611C81.184 27.8309 81.3822 27.6649 81.6231 27.6274L83.1547 27.4078L83.8401 26.0155C83.9472 25.8013 84.1668 25.6621 84.4077 25.6621C84.6487 25.6621 84.8736 25.8013 84.9754 26.0155L85.6662 27.4078L87.1977 27.6274C87.4387 27.6649 87.6368 27.8309 87.7118 28.0611C87.7814 28.2914 87.7225 28.5431 87.5511 28.7091L86.4373 29.7908L86.6997 31.3223C86.7425 31.558 86.6461 31.7989 86.448 31.9382C86.3355 32.0185 86.207 32.0613 86.0785 32.0613ZM84.4077 29.9193C84.5095 29.9193 84.6112 29.9408 84.7023 29.9889L85.2324 30.2674L85.1307 29.6784C85.0985 29.4749 85.1681 29.266 85.3127 29.1161L85.7411 28.6984L85.1521 28.6127C84.9432 28.5859 84.7665 28.4521 84.6755 28.27L84.4077 27.7291L84.1453 28.2646C84.0543 28.4521 83.8722 28.5859 83.6687 28.6127L83.0743 28.6984L83.5027 29.1161C83.6527 29.2607 83.7223 29.4749 83.6848 29.6784L83.5831 30.2674L84.1132 29.9889C84.2042 29.9408 84.306 29.9193 84.4077 29.9193Z" fill="white"/>
</svg>
