<svg width="79" height="69" viewBox="0 0 79 69" fill="none" xmlns="http://www.w3.org/2000/svg">
<path fill-rule="evenodd" clip-rule="evenodd" d="M0.97168 44.0575C1.19168 43.3012 1.32918 42.5037 1.65918 41.8025C2.14043 40.8262 2.71793 39.8775 3.35043 38.9837C9.31793 30.4862 17.3892 24.9587 27.3304 22.1262C32.5279 20.655 37.8217 20.1737 43.2117 20.6137C52.4104 21.3562 60.6467 24.56 67.8379 30.3625C71.6604 33.4425 74.8229 37.1137 77.3392 41.3487C77.7654 42.0637 77.9992 42.82 78.1229 43.6175C78.1367 43.6862 78.1642 43.7412 78.1917 43.81V44.8825C78.1642 44.965 78.1504 45.0337 78.1229 45.1162C77.8479 45.9275 77.7104 46.8212 77.2842 47.55C74.9467 51.5925 71.9492 55.085 68.3742 58.0687C61.0729 64.1462 52.6442 67.4875 43.1842 68.2575C37.8217 68.6975 32.5279 68.2162 27.3442 66.745C17.3892 63.9262 9.31793 58.385 3.35043 49.8875C2.53918 48.7187 1.67293 47.5637 1.26043 46.175C1.15043 45.7762 1.06793 45.3775 0.97168 44.9787C0.97168 44.6625 0.97168 44.36 0.97168 44.0575ZM24.1954 44.4837C24.1954 52.9675 31.0842 59.8562 39.5679 59.8562C48.0654 59.8562 54.9679 52.9675 54.9679 44.47C54.9679 35.9862 48.0792 29.0975 39.5954 29.0975C31.0842 29.0837 24.1954 35.9725 24.1954 44.4837ZM29.0904 26.7737C29.0767 26.7325 29.0492 26.6775 29.0354 26.6362C27.3992 27.2137 25.7354 27.7362 24.1267 28.3962C16.7292 31.4625 10.8029 36.3025 6.48543 43.095C5.90793 44.0025 5.90793 44.8687 6.48543 45.7762C11.7792 54.0262 19.2454 59.3062 28.5954 62.015C28.6642 62.0287 28.7329 62.0287 28.8567 62.0287C15.6979 53.9025 15.7942 34.735 29.0904 26.7737ZM50.1417 26.6362C50.1279 26.6775 50.1142 26.7187 50.0867 26.76C56.4392 30.885 60.0279 36.6737 60.0829 44.3187C60.1379 51.95 56.6454 57.7937 50.2654 62.07C50.4442 62.0287 50.5129 62.015 50.5954 61.9875C55.9029 60.5025 60.7154 58.0275 64.9642 54.5075C68.0029 52.005 70.5742 49.09 72.6642 45.7487C73.2142 44.855 73.2829 43.9887 72.6642 43.095C72.5129 42.875 72.3754 42.6275 72.2242 42.3937C68.0029 36.0687 62.3517 31.4762 55.3804 28.5337C53.6754 27.8187 51.8879 27.2687 50.1417 26.6362Z" fill="#769C90"/>
<path fill-rule="evenodd" clip-rule="evenodd" d="M26.6294 16.1587C26.6157 17.7124 25.7082 18.7437 24.4569 18.9224C23.2332 19.1012 22.0919 18.3312 21.6932 17.1212C21.3356 16.0349 20.9232 14.9899 20.5382 13.9174C20.1806 12.9412 19.8506 11.9512 19.4931 10.9749C19.1356 10.0124 18.7782 9.04992 18.4207 8.08742C18.2144 7.52367 17.9669 6.95992 17.8156 6.38242C17.4719 5.13117 18.2831 3.75617 19.5207 3.39867C20.8682 3.01367 22.2019 3.74242 22.6419 5.04867C23.0132 6.16242 23.4532 7.26242 23.8519 8.36242C24.2094 9.33867 24.5257 10.3287 24.8832 11.3049C25.2269 12.2537 25.5982 13.2024 25.9419 14.1512C26.2169 14.9074 26.4644 15.6637 26.6294 16.1587Z" fill="#769C90"/>
<path fill-rule="evenodd" clip-rule="evenodd" d="M52.5889 16.4752C52.6439 16.2277 52.6576 15.9802 52.7401 15.7602C53.2489 14.3715 53.7851 12.9965 54.2939 11.6077C54.6514 10.6452 54.9676 9.66899 55.3114 8.69274C55.6551 7.75774 56.0126 6.82274 56.3564 5.88774C56.4389 5.66774 56.5076 5.44774 56.5764 5.22774C56.9889 3.79774 58.4601 3.04149 59.8764 3.55024C61.2239 4.03149 61.8426 5.59899 61.2789 6.96024C60.8526 7.99149 60.5089 9.06399 60.1101 10.1227C59.7389 11.1265 59.3539 12.1165 58.9826 13.1202C58.6526 14.0277 58.3226 14.949 57.9926 15.8702C57.7864 16.434 57.6214 17.0252 57.3876 17.5752C56.9339 18.6477 55.7514 19.239 54.6101 18.9915C53.4414 18.7165 52.6164 17.699 52.5889 16.4752Z" fill="#769C90"/>
<path fill-rule="evenodd" clip-rule="evenodd" d="M13.1269 22.8689C13.0444 24.0239 12.2744 25.0001 11.1882 25.2889C10.0882 25.5776 8.96069 25.0964 8.38319 24.1339C8.03944 23.5701 7.62693 23.0614 7.24193 22.5251C6.93943 22.0989 6.62319 21.6864 6.32069 21.2601C5.22069 19.7201 4.13443 18.1801 3.03444 16.6401C2.69069 16.1589 2.33319 15.6914 1.96194 15.2376C1.09569 14.1514 1.30194 12.5014 2.41569 11.6764C3.57068 10.8101 5.20694 11.1126 6.01819 12.2814C6.67819 13.2576 7.39319 14.1926 8.08068 15.1551C8.69943 16.0076 9.29068 16.8876 9.90943 17.7401C10.4869 18.5514 11.0919 19.3489 11.6832 20.1601C12.0269 20.6414 12.4257 21.0951 12.7007 21.6039C12.9069 21.9889 12.9894 22.4426 13.1269 22.8689Z" fill="#769C90"/>
<path fill-rule="evenodd" clip-rule="evenodd" d="M66.1182 22.9102C66.2694 22.484 66.3382 22.0165 66.5719 21.659C67.1082 20.834 67.7132 20.0502 68.2907 19.2527C68.9094 18.414 69.5144 17.5752 70.1332 16.7365C70.8069 15.8152 71.4669 14.9077 72.1407 13.9865C72.4707 13.519 72.8282 13.0652 73.1307 12.5702C73.6807 11.6765 74.4644 11.2227 75.4957 11.2915C76.5132 11.3602 77.2557 11.8965 77.6407 12.8452C78.0257 13.8077 77.8057 14.6877 77.1594 15.499C76.5132 16.2965 75.9357 17.149 75.3444 17.9877C74.6844 18.8952 74.0244 19.8027 73.3644 20.7102C72.8007 21.494 72.2369 22.264 71.6869 23.0477C71.3432 23.5427 71.0132 24.0515 70.6557 24.5327C70.0094 25.3715 68.8682 25.674 67.8644 25.3165C66.8607 24.959 66.1869 24.0102 66.1182 22.9102Z" fill="#769C90"/>
<path fill-rule="evenodd" clip-rule="evenodd" d="M42.0847 2.95884C42.0847 5.03509 42.0847 7.12509 42.0847 9.20134C42.0847 10.6726 42.0709 12.1301 42.0709 13.6013C42.0709 13.7251 42.0847 13.8488 42.0984 13.9726C42.2497 15.4438 41.1496 16.7226 39.7059 16.7638C38.1934 16.8051 37.0521 15.6088 37.0934 14.0963C37.1346 12.9688 37.0934 11.8551 37.0934 10.7276C37.0934 9.65509 37.1071 8.58258 37.0934 7.52383C37.0934 6.50633 37.0659 5.50258 37.0521 4.48508C37.0384 3.89383 36.9971 3.30259 37.0384 2.72509C37.1346 1.39134 38.3171 0.387585 39.6509 0.442585C41.0121 0.497585 42.0572 1.61134 42.0847 2.95884Z" fill="#769C90"/>
<path fill-rule="evenodd" clip-rule="evenodd" d="M38.6463 33.8276C37.9313 35.4914 37.89 37.1414 38.5913 38.7776C39.1413 40.0564 40.0488 41.0189 41.2725 41.6926C43.5688 42.9576 47.0888 42.6826 49.1788 39.6851C50.9113 42.7376 51.035 47.8664 47.6938 51.6751C44.4075 55.4289 38.9625 56.4464 34.5075 54.0951C30.1075 51.7851 27.8526 46.6839 29.1038 41.8576C30.465 36.6601 35.03 33.9926 38.6463 33.8276Z" fill="#73308A"/>
</svg>
