<svg width="59" height="96" viewBox="0 0 59 96" fill="none" xmlns="http://www.w3.org/2000/svg">
<path d="M34.2546 0.995361C28.9288 0.995361 24.5971 5.32673 24.5971 10.6526C24.5985 16.0116 28.9303 20.3097 34.2546 20.3097C39.6136 20.3097 43.9569 16.0116 43.9569 10.6526C43.9569 5.32673 39.6136 0.995361 34.2546 0.995361ZM32.8164 23.1493H31.2257H32.8546C32.8419 23.1492 32.8291 23.1492 32.8164 23.1493H32.8164ZM31.2087 23.1493L28.66 23.1598C25.4441 23.1598 21.8312 24.0114 19.1563 25.444H19.1669C13.3713 28.6473 9.52838 31.5369 7.11708 35.5447C4.2582 40.2964 3.99445 45.6779 4.0166 53.0775C4.01081 53.58 4.10498 54.0786 4.29361 54.5444C4.48225 55.0101 4.76159 55.4337 5.11541 55.7905C5.46922 56.1473 5.89044 56.4303 6.35457 56.6229C6.81871 56.8154 7.31649 56.9138 7.81899 56.9122C8.32148 56.9107 8.81866 56.8094 9.28161 56.614C9.74457 56.4186 10.1641 56.1331 10.5157 55.7741C10.8673 55.4151 11.1441 54.9898 11.3299 54.5229C11.5157 54.0561 11.6068 53.5569 11.5979 53.0545C11.5765 45.9 11.9915 42.1483 13.6132 39.4529C14.8522 37.3937 17.1495 35.3977 21.4644 32.8699L17.9797 49.5288L17.6859 50.9331C17.6859 50.9332 17.686 50.9331 17.6859 50.9331C17.2411 53.0604 17.5379 54.6677 18.7255 56.5084L25.3167 66.7246L27.1822 69.6158L42.2552 92.978C42.6355 93.5869 43.1331 94.114 43.719 94.5288C44.3049 94.9436 44.9674 95.2377 45.668 95.3942C46.3686 95.5507 47.0933 95.5662 47.8 95.4401C48.5067 95.314 49.1812 95.0486 49.7845 94.6594C50.3877 94.2702 50.9075 93.765 51.3137 93.1732C51.7199 92.5813 52.0044 91.9146 52.1506 91.2118C52.2969 90.509 52.3019 89.7841 52.1655 89.0794C52.0291 88.3746 51.7539 87.7039 51.356 87.1064L31.1204 55.7427L32.965 48.0436L34.3155 42.4074L37.1314 30.655C37.1314 30.655 37.1314 30.655 37.1329 30.655C38.0606 26.7581 34.9136 23.16 31.2107 23.1576H31.2093L31.2087 23.1493ZM39.0975 35.0733L36.6351 45.3507C36.7522 45.4721 36.8707 45.5924 36.9915 45.7107C40.95 49.5944 46.1231 51.0997 53.3259 52.7955C53.8131 52.9175 54.3198 52.9414 54.8164 52.8658C55.313 52.7903 55.7896 52.6168 56.2186 52.3555C56.6476 52.0941 57.0203 51.7501 57.3152 51.3435C57.6101 50.9368 57.8212 50.4757 57.9364 49.9867C58.0515 49.4978 58.0683 48.9909 57.9858 48.4954C57.9034 47.9999 57.7232 47.5258 57.4559 47.1005C57.1886 46.6752 56.8395 46.3072 56.4288 46.0181C56.0181 45.7289 55.554 45.5242 55.0635 45.4159C48.0994 43.7764 44.5463 42.5017 42.3009 40.2988C41.1271 39.1471 40.0977 37.5158 39.0975 35.0733ZM16.2018 58.0216L12.8332 74.1266L2.12553 86.4928C1.64813 87.0287 1.28198 87.6541 1.04837 88.3327C0.814767 89.0112 0.718355 89.7294 0.764744 90.4456C0.811133 91.1618 0.999398 91.8617 1.31859 92.5044C1.63779 93.1472 2.08156 93.7201 2.6241 94.1899C3.16664 94.6597 3.79714 95.0169 4.47895 95.2409C5.16077 95.4648 5.8803 95.5511 6.59574 95.4946C7.31117 95.4381 8.00824 95.24 8.64644 94.9117C9.28463 94.5835 9.85122 94.1316 10.3133 93.5824L21.9653 80.1258C22.584 79.4113 23.0049 78.5472 23.1862 77.6196L24.5022 70.8863L16.2018 58.0216Z" fill="white"/>
</svg>
