<svg width="80" height="96" viewBox="0 0 80 96" fill="none" xmlns="http://www.w3.org/2000/svg">
<path d="M70.2775 76.6875H63.724C65.8745 74.5965 67.09 71.7235 67.09 68.7145V62.3395C67.09 61.77 66.784 61.243 66.291 60.9625C65.798 60.682 65.1945 60.682 64.693 60.9625C64.2 61.2515 63.894 61.77 63.894 62.3395V68.7145C63.894 70.831 63.0525 72.854 61.5565 74.35C60.0605 75.846 58.0375 76.6875 55.921 76.6875H44.7775C43.6385 76.6875 42.5845 76.084 42.015 75.0895C41.4455 74.1035 41.4455 72.888 42.015 71.902C42.5845 70.916 43.6385 70.304 44.7775 70.304H55.9295C56.3545 70.304 56.754 70.134 57.06 69.8365C57.3575 69.539 57.5275 69.131 57.5275 68.706V57.5625H65.5005C65.9255 57.5625 66.325 57.3925 66.631 57.095C66.9285 56.7975 67.0985 56.3895 67.0985 55.9645V51.1875C67.0985 48.204 66.1635 45.3055 64.438 42.8745C62.7125 40.4435 60.2645 38.616 57.451 37.6385C59.5675 35.012 60.715 31.748 60.7235 28.382V20.902C60.7235 15.411 58.539 10.141 54.6545 6.248C50.7615 2.372 45.4915 0.1875 40.0005 0.1875C34.5095 0.1875 29.2395 2.372 25.3465 6.2565C21.462 10.141 19.2775 15.411 19.2775 20.9105V28.3905C19.2775 30.2095 19.609 32.0115 20.2635 33.7115C20.4675 34.247 20.9435 34.621 21.5045 34.7145C22.0655 34.7995 22.635 34.587 22.992 34.145C23.349 33.703 23.4425 33.0995 23.2385 32.5725C22.7285 31.238 22.465 29.827 22.465 28.399V20.919C22.465 16.2695 24.3095 11.807 27.599 8.526C30.8885 5.245 35.351 3.375 40.0005 3.375C44.65 3.375 49.1125 5.2195 52.3935 8.509C55.683 11.7985 57.5275 16.2525 57.5275 20.902V28.382C57.519 31.612 56.176 34.6975 53.8045 36.899C53.456 36.8735 53.1075 36.848 52.7505 36.848H48.9935C50.6595 35.505 52.011 33.805 52.9375 31.8755C53.864 29.946 54.34 27.8295 54.3485 25.6875V24.0895C54.3485 23.52 54.0425 22.993 53.5495 22.7125C53.0565 22.432 52.453 22.432 51.9515 22.7125C51.4585 23.0015 51.1525 23.52 51.1525 24.0895V25.6875C51.1525 29.674 49.0275 33.3545 45.5765 35.352C42.1255 37.341 37.8755 37.341 34.4245 35.352C30.9735 33.363 28.8485 29.674 28.8485 25.6875V19.185C31.866 18.692 34.4755 16.805 35.895 14.102C40.0515 17.4935 45.2535 19.338 50.617 19.321H52.7505C53.32 19.321 53.847 19.015 54.1275 18.522C54.408 18.029 54.408 17.4255 54.1275 16.924C53.8385 16.431 53.32 16.125 52.7505 16.125H50.6085C47.9565 16.1335 45.33 15.615 42.882 14.6035C40.434 13.592 38.207 12.096 36.3455 10.2175C36.082 9.954 35.725 9.784 35.351 9.7585C34.977 9.7245 34.603 9.835 34.2885 10.056C33.9825 10.277 33.7615 10.6 33.668 10.9655L33.617 11.1525C33.26 12.572 32.444 13.8385 31.288 14.7395C30.132 15.6405 28.7125 16.125 27.2505 16.125C26.8255 16.125 26.426 16.295 26.12 16.5925C25.8225 16.89 25.6525 17.298 25.6525 17.723V25.6875C25.6525 27.8295 26.137 29.946 27.0635 31.8755C27.99 33.805 29.333 35.505 31.0075 36.848H27.2505C23.451 36.8565 19.8045 38.3695 17.11 41.0555C14.424 43.7415 12.911 47.388 12.9025 51.196V68.723C12.9025 71.7235 14.118 74.5965 16.2685 76.696H9.71504C6.29804 76.696 3.14454 78.515 1.43604 81.473C-0.272462 84.431 -0.272462 88.0775 1.43604 91.0355C3.14454 93.9935 6.29804 95.8125 9.71504 95.8125H53.3455C55.2155 95.8125 56.9665 94.937 58.097 93.4495C59.219 91.962 59.5845 90.024 59.066 88.2305C58.505 86.284 57.3235 84.5755 55.7085 83.36C54.0935 82.1445 52.1215 81.4815 50.0985 81.473C48.985 81.473 47.897 81.1755 46.945 80.5975L45.7465 79.875H70.2775C72.5555 79.875 74.6635 81.0905 75.8025 83.0625C76.9415 85.0345 76.9415 87.4655 75.8025 89.4375C74.6635 91.4095 72.5555 92.625 70.2775 92.625H62.3045C61.735 92.625 61.208 92.931 60.9275 93.424C60.647 93.917 60.647 94.5205 60.9275 95.022C61.2165 95.515 61.735 95.821 62.3045 95.821H70.2775C73.6945 95.821 76.848 94.002 78.5565 91.044C80.265 88.086 80.265 84.4395 78.5565 81.4815C76.8565 78.5065 73.6945 76.6875 70.2775 76.6875ZM44.7775 39.194V40.027C44.7775 41.7355 43.868 43.3165 42.389 44.1665C40.91 45.0165 39.091 45.0165 37.612 44.1665C36.133 43.308 35.2235 41.7355 35.2235 40.027V39.194C38.309 40.3075 41.692 40.3075 44.7775 39.194ZM16.0985 68.723V57.5625H24.0715C24.4965 57.5625 24.896 57.3925 25.202 57.095C25.4995 56.7975 25.6695 56.3895 25.6695 55.9645V51.1875C25.6695 50.618 25.3635 50.091 24.8705 49.8105C24.3775 49.53 23.774 49.53 23.2725 49.8105C22.7795 50.0995 22.4735 50.618 22.4735 51.1875V54.375H16.0985V51.1875C16.0985 48.2295 17.28 45.3905 19.371 43.2995C21.462 41.2085 24.301 40.0355 27.259 40.027H32.036C32.036 42.8745 33.5575 45.501 36.0225 46.929C38.4875 48.3485 41.522 48.3485 43.9955 46.929C46.4605 45.501 47.982 42.8745 47.982 40.027H52.7505C55.7085 40.027 58.5475 41.2085 60.6385 43.2995C62.7295 45.3905 63.9025 48.2295 63.911 51.1875V54.375H57.536V51.1875C57.536 50.618 57.23 50.091 56.737 49.8105C56.244 49.53 55.6405 49.53 55.139 49.8105C54.646 50.0995 54.34 50.618 54.34 51.1875V67.125H44.786C42.95 67.1335 41.2075 67.9325 40.009 69.3265C38.8105 67.9325 37.068 67.1335 35.232 67.125H25.661V62.348C25.661 61.7785 25.355 61.2515 24.862 60.971C24.369 60.6905 23.7655 60.6905 23.264 60.971C22.771 61.26 22.465 61.7785 22.465 62.348V68.723C22.465 69.148 22.635 69.5475 22.9325 69.8535C23.23 70.151 23.638 70.321 24.063 70.321H35.215C36.354 70.321 37.408 70.9245 37.9775 71.919C38.547 72.905 38.547 74.1205 37.9775 75.1065C37.408 76.0925 36.354 76.7045 35.215 76.7045H24.063C21.9465 76.7045 19.9235 75.863 18.4275 74.367C16.9315 72.871 16.0985 70.831 16.0985 68.723ZM3.34854 86.25C3.34854 84.5585 4.02004 82.935 5.21854 81.745C6.41704 80.5465 8.03204 79.875 9.72354 79.875H38.411V92.625H9.72354C8.03204 92.625 6.40854 91.9535 5.21854 90.755C4.02004 89.565 3.34854 87.9415 3.34854 86.25ZM50.107 84.652C51.4415 84.652 52.7335 85.094 53.796 85.893C54.8585 86.692 55.632 87.8225 56.006 89.0975C56.244 89.9305 56.074 90.8315 55.5555 91.52C55.037 92.2085 54.221 92.6165 53.354 92.6165H41.5985V81.099L45.3215 83.326C46.7665 84.193 48.424 84.652 50.107 84.652Z" fill="#769C90"/>
<path d="M37.943 22.3048C37.6455 22.0073 37.2375 21.8373 36.8125 21.8373C36.3875 21.8373 35.988 22.0073 35.682 22.3048C35.427 22.5598 35.0105 22.5598 34.747 22.3048C34.4495 21.9988 34.0415 21.8203 33.6165 21.8203C33.1915 21.8203 32.775 21.9818 32.4775 22.2878C32.1715 22.5938 32.01 23.0018 32.01 23.4268C32.01 23.8518 32.1885 24.2598 32.4945 24.5573C33.217 25.2798 34.1945 25.6793 35.2145 25.6793C36.2345 25.6793 37.212 25.2713 37.9345 24.5573C38.232 24.2598 38.402 23.8518 38.402 23.4268C38.402 23.0103 38.2405 22.6023 37.943 22.3048Z" fill="#769C90"/>
<path d="M47.506 24.5573C47.812 24.2598 47.9905 23.8518 47.9905 23.4268C47.9905 23.0018 47.829 22.5853 47.523 22.2878C47.217 21.9818 46.809 21.8203 46.384 21.8203C45.959 21.8203 45.551 21.9988 45.2535 22.3048C44.9985 22.5598 44.582 22.5598 44.3185 22.3048C44.021 21.9988 43.613 21.8203 43.188 21.8203C42.763 21.8203 42.3465 21.9818 42.049 22.2878C41.743 22.5938 41.5815 23.0018 41.5815 23.4268C41.5815 23.8518 41.76 24.2598 42.066 24.5573C42.7885 25.2798 43.766 25.6793 44.786 25.6793C45.806 25.6793 46.7835 25.2798 47.506 24.5573Z" fill="#769C90"/>
<path d="M40.0004 33.3799C41.6154 33.3799 43.1709 32.7424 44.3184 31.5949C44.7094 31.1869 44.8539 30.6089 44.7094 30.0649C44.5564 29.5209 44.1399 29.0959 43.5959 28.9514C43.0519 28.8069 42.4739 28.9514 42.0659 29.3424C41.5219 29.8864 40.7739 30.1924 40.0089 30.1924C39.2439 30.1924 38.4959 29.8864 37.9519 29.3424C37.5439 28.9514 36.9659 28.8069 36.4219 28.9514C35.8779 29.1044 35.4528 29.5209 35.3083 30.0649C35.1638 30.6089 35.3084 31.1869 35.6994 31.5949C36.8299 32.7424 38.3854 33.3799 40.0004 33.3799Z" fill="#769C90"/>
</svg>
