<svg width="96" height="96" viewBox="0 0 96 96" fill="none" xmlns="http://www.w3.org/2000/svg">
<path d="M84.3841 83.7082C84.3627 83.6761 84.1808 83.4728 84.1487 83.4514L74.3891 73.8202C73.2548 72.6966 72.3666 71.3161 71.8101 69.7644L66.727 56.0775C65.5391 52.0966 61.8579 49.1965 57.4917 49.1965H39.8239C35.7253 49.1965 32.226 51.7648 30.8348 55.3712C30.8241 55.3926 30.8134 55.414 30.8027 55.4354L25.4841 69.7752C24.917 71.3268 24.0395 72.718 22.9051 73.8309L13.1455 83.4621C13.1134 83.4942 12.9315 83.6975 12.9101 83.719C12.5035 84.2112 12.2573 84.8319 12.2573 85.5061C12.2573 87.0792 13.5308 88.3526 15.1039 88.3526C15.6924 88.3526 16.2382 88.1707 16.6877 87.8711L18.9884 86.1802C18.6674 86.9721 18.4748 87.839 18.4748 88.7379C18.4748 92.4619 21.514 95.5011 25.238 95.5011H30.6529H61.173H61.1944C63.0992 95.5011 64.362 94.3453 64.4155 92.8793C64.4904 90.8353 62.1361 90.2467 61.1195 90.0755L36.5279 87.1648C36.0891 87.1113 35.7681 86.7153 35.8216 86.2766C35.8751 85.8378 36.2711 85.5275 36.7098 85.5703L61.3335 88.481C64.362 88.9626 66.0956 90.6213 66.01 92.9328C65.9779 93.9601 65.5712 94.8269 64.9185 95.5011H72.0455C75.7696 95.5011 78.8088 92.4619 78.8088 88.7379C78.8088 87.839 78.6268 86.9936 78.3058 86.2017L80.5745 87.8711C81.0239 88.1814 81.5697 88.3526 82.1583 88.3526C83.7314 88.3526 85.0048 87.0792 85.0048 85.5061C85.0369 84.8105 84.7908 84.2005 84.3841 83.7082ZM35.3614 81.9532H25.2487C25.0561 81.9532 24.8635 81.9639 24.6708 81.9853L27.5709 79.8558C29.4329 78.4967 30.9311 76.6454 31.937 74.473L35.3614 67.057V81.9532ZM72.0776 81.9532H61.8686V66.9072L65.3572 74.473C66.3631 76.6454 67.8613 78.4967 69.7233 79.8558L72.6234 81.9853C72.4415 81.9639 72.2596 81.9532 72.0776 81.9532Z" fill="white"/>
<path d="M48.6312 22.3684C49.2222 22.3684 49.7013 21.8893 49.7013 21.2983C49.7013 20.7073 49.2222 20.2281 48.6312 20.2281C48.0401 20.2281 47.561 20.7073 47.561 21.2983C47.561 21.8893 48.0401 22.3684 48.6312 22.3684Z" fill="white"/>
<path d="M48.6312 17.3602C49.2222 17.3602 49.7013 16.8811 49.7013 16.2901C49.7013 15.6991 49.2222 15.22 48.6312 15.22C48.0401 15.22 47.561 15.6991 47.561 16.2901C47.561 16.8811 48.0401 17.3602 48.6312 17.3602Z" fill="white"/>
<path d="M48.6312 12.3627C49.2222 12.3627 49.7013 11.8836 49.7013 11.2925C49.7013 10.7015 49.2222 10.2224 48.6312 10.2224C48.0401 10.2224 47.561 10.7015 47.561 11.2925C47.561 11.8836 48.0401 12.3627 48.6312 12.3627Z" fill="white"/>
<path d="M48.6312 7.35437C49.2222 7.35437 49.7013 6.87526 49.7013 6.28424C49.7013 5.69322 49.2222 5.21411 48.6312 5.21411C48.0401 5.21411 47.561 5.69322 47.561 6.28424C47.561 6.87526 48.0401 7.35437 48.6312 7.35437Z" fill="white"/>
<path d="M48.6312 2.35694C49.2222 2.35694 49.7013 1.87782 49.7013 1.28681C49.7013 0.695788 49.2222 0.216675 48.6312 0.216675C48.0401 0.216675 47.561 0.695788 47.561 1.28681C47.561 1.87782 48.0401 2.35694 48.6312 2.35694Z" fill="white"/>
<path d="M37.138 26.1031C37.729 26.1031 38.2081 25.624 38.2081 25.033C38.2081 24.442 37.729 23.9629 37.138 23.9629C36.547 23.9629 36.0679 24.442 36.0679 25.033C36.0679 25.624 36.547 26.1031 37.138 26.1031Z" fill="white"/>
<path d="M34.6981 21.7369C35.2891 21.7369 35.7682 21.2578 35.7682 20.6668C35.7682 20.0758 35.2891 19.5967 34.6981 19.5967C34.107 19.5967 33.6279 20.0758 33.6279 20.6668C33.6279 21.2578 34.107 21.7369 34.6981 21.7369Z" fill="white"/>
<path d="M32.2581 17.3602C32.8491 17.3602 33.3283 16.8811 33.3283 16.2901C33.3283 15.6991 32.8491 15.22 32.2581 15.22C31.6671 15.22 31.188 15.6991 31.188 16.2901C31.188 16.8811 31.6671 17.3602 32.2581 17.3602Z" fill="white"/>
<path d="M29.8182 12.994C30.4092 12.994 30.8883 12.5149 30.8883 11.9239C30.8883 11.3329 30.4092 10.8538 29.8182 10.8538C29.2272 10.8538 28.748 11.3329 28.748 11.9239C28.748 12.5149 29.2272 12.994 29.8182 12.994Z" fill="white"/>
<path d="M27.3787 8.62793C27.9697 8.62793 28.4488 8.14882 28.4488 7.5578C28.4488 6.96678 27.9697 6.48767 27.3787 6.48767C26.7877 6.48767 26.3086 6.96678 26.3086 7.5578C26.3086 8.14882 26.7877 8.62793 27.3787 8.62793Z" fill="white"/>
<path d="M28.5877 32.8129C29.1787 32.8129 29.6578 32.3338 29.6578 31.7427C29.6578 31.1517 29.1787 30.6726 28.5877 30.6726C27.9967 30.6726 27.5176 31.1517 27.5176 31.7427C27.5176 32.3338 27.9967 32.8129 28.5877 32.8129Z" fill="white"/>
<path d="M24.4036 30.084C24.9946 30.084 25.4738 29.6049 25.4738 29.0139C25.4738 28.4228 24.9946 27.9437 24.4036 27.9437C23.8126 27.9437 23.3335 28.4228 23.3335 29.0139C23.3335 29.6049 23.8126 30.084 24.4036 30.084Z" fill="white"/>
<path d="M20.2083 27.3445C20.7993 27.3445 21.2784 26.8654 21.2784 26.2744C21.2784 25.6833 20.7993 25.2042 20.2083 25.2042C19.6173 25.2042 19.1382 25.6833 19.1382 26.2744C19.1382 26.8654 19.6173 27.3445 20.2083 27.3445Z" fill="white"/>
<path d="M16.0242 24.605C16.6152 24.605 17.0944 24.1259 17.0944 23.5349C17.0944 22.9438 16.6152 22.4647 16.0242 22.4647C15.4332 22.4647 14.9541 22.9438 14.9541 23.5349C14.9541 24.1259 15.4332 24.605 16.0242 24.605Z" fill="white"/>
<path d="M11.8294 21.8761C12.4204 21.8761 12.8995 21.397 12.8995 20.806C12.8995 20.215 12.4204 19.7358 11.8294 19.7358C11.2384 19.7358 10.7593 20.215 10.7593 20.806C10.7593 21.397 11.2384 21.8761 11.8294 21.8761Z" fill="white"/>
<path d="M24.5106 44.0384C25.1016 44.0384 25.5807 43.5593 25.5807 42.9683C25.5807 42.3773 25.1016 41.8982 24.5106 41.8982C23.9195 41.8982 23.4404 42.3773 23.4404 42.9683C23.4404 43.5593 23.9195 44.0384 24.5106 44.0384Z" fill="white"/>
<path d="M19.8983 42.1123C20.4893 42.1123 20.9684 41.6332 20.9684 41.0422C20.9684 40.4512 20.4893 39.972 19.8983 39.972C19.3072 39.972 18.8281 40.4512 18.8281 41.0422C18.8281 41.6332 19.3072 42.1123 19.8983 42.1123Z" fill="white"/>
<path d="M15.2752 40.1968C15.8662 40.1968 16.3453 39.7177 16.3453 39.1267C16.3453 38.5356 15.8662 38.0565 15.2752 38.0565C14.6842 38.0565 14.2051 38.5356 14.2051 39.1267C14.2051 39.7177 14.6842 40.1968 15.2752 40.1968Z" fill="white"/>
<path d="M10.6522 38.2812C11.2432 38.2812 11.7223 37.8021 11.7223 37.2111C11.7223 36.6201 11.2432 36.141 10.6522 36.141C10.0611 36.141 9.58203 36.6201 9.58203 37.2111C9.58203 37.8021 10.0611 38.2812 10.6522 38.2812Z" fill="white"/>
<path d="M6.02912 36.355C6.62013 36.355 7.09925 35.8759 7.09925 35.2849C7.09925 34.6938 6.62013 34.2147 6.02912 34.2147C5.4381 34.2147 4.95898 34.6938 4.95898 35.2849C4.95898 35.8759 5.4381 36.355 6.02912 36.355Z" fill="white"/>
<path d="M20.9578 57.2333C21.5488 57.2333 22.028 56.7542 22.028 56.1631C22.028 55.5721 21.5488 55.093 20.9578 55.093C20.3668 55.093 19.8877 55.5721 19.8877 56.1631C19.8877 56.7542 20.3668 57.2333 20.9578 57.2333Z" fill="white"/>
<path d="M16.1209 55.9491C16.7119 55.9491 17.191 55.47 17.191 54.879C17.191 54.2879 16.7119 53.8088 16.1209 53.8088C15.5299 53.8088 15.0508 54.2879 15.0508 54.879C15.0508 55.47 15.5299 55.9491 16.1209 55.9491Z" fill="white"/>
<path d="M11.2835 54.6542C11.8745 54.6542 12.3536 54.1751 12.3536 53.584C12.3536 52.993 11.8745 52.5139 11.2835 52.5139C10.6925 52.5139 10.2134 52.993 10.2134 53.584C10.2134 54.1751 10.6925 54.6542 11.2835 54.6542Z" fill="white"/>
<path d="M6.4466 53.37C7.03761 53.37 7.51673 52.8909 7.51673 52.2999C7.51673 51.7088 7.03761 51.2297 6.4466 51.2297C5.85558 51.2297 5.37646 51.7088 5.37646 52.2999C5.37646 52.8909 5.85558 53.37 6.4466 53.37Z" fill="white"/>
<path d="M15.179 70.353C15.77 70.353 16.2491 69.8739 16.2491 69.2829C16.2491 68.6919 15.77 68.2128 15.179 68.2128C14.588 68.2128 14.1089 68.6919 14.1089 69.2829C14.1089 69.8739 14.588 70.353 15.179 70.353Z" fill="white"/>
<path d="M10.2137 69.743C10.8047 69.743 11.2838 69.2639 11.2838 68.6729C11.2838 68.0819 10.8047 67.6028 10.2137 67.6028C9.62267 67.6028 9.14355 68.0819 9.14355 68.6729C9.14355 69.2639 9.62267 69.743 10.2137 69.743Z" fill="white"/>
<path d="M5.24835 69.133C5.83937 69.133 6.31848 68.6539 6.31848 68.0629C6.31848 67.4719 5.83937 66.9928 5.24835 66.9928C4.65734 66.9928 4.17822 67.4719 4.17822 68.0629C4.17822 68.6539 4.65734 69.133 5.24835 69.133Z" fill="white"/>
<path d="M7.00324 83.6869C7.59425 83.6869 8.07337 83.2078 8.07337 82.6168C8.07337 82.0257 7.59425 81.5466 7.00324 81.5466C6.41222 81.5466 5.93311 82.0257 5.93311 82.6168C5.93311 83.2078 6.41222 83.6869 7.00324 83.6869Z" fill="white"/>
<path d="M1.99494 83.6869C2.58595 83.6869 3.06507 83.2078 3.06507 82.6168C3.06507 82.0257 2.58595 81.5466 1.99494 81.5466C1.40392 81.5466 0.924805 82.0257 0.924805 82.6168C0.924805 83.2078 1.40392 83.6869 1.99494 83.6869Z" fill="white"/>
<path d="M59.5037 26.1674C60.0947 26.1674 60.5739 25.6882 60.5739 25.0972C60.5739 24.5062 60.0947 24.0271 59.5037 24.0271C58.9127 24.0271 58.4336 24.5062 58.4336 25.0972C58.4336 25.6882 58.9127 26.1674 59.5037 26.1674Z" fill="white"/>
<path d="M61.9437 21.8012C62.5347 21.8012 63.0138 21.322 63.0138 20.731C63.0138 20.14 62.5347 19.6609 61.9437 19.6609C61.3527 19.6609 60.8735 20.14 60.8735 20.731C60.8735 21.322 61.3527 21.8012 61.9437 21.8012Z" fill="white"/>
<path d="M64.3836 17.4351C64.9746 17.4351 65.4537 16.9559 65.4537 16.3649C65.4537 15.7739 64.9746 15.2948 64.3836 15.2948C63.7926 15.2948 63.3135 15.7739 63.3135 16.3649C63.3135 16.9559 63.7926 17.4351 64.3836 17.4351Z" fill="white"/>
<path d="M66.8235 13.0582C67.4146 13.0582 67.8937 12.5791 67.8937 11.9881C67.8937 11.3971 67.4146 10.918 66.8235 10.918C66.2325 10.918 65.7534 11.3971 65.7534 11.9881C65.7534 12.5791 66.2325 13.0582 66.8235 13.0582Z" fill="white"/>
<path d="M69.2635 8.69214C69.8545 8.69214 70.3336 8.21303 70.3336 7.62201C70.3336 7.03099 69.8545 6.55188 69.2635 6.55188C68.6725 6.55188 68.1934 7.03099 68.1934 7.62201C68.1934 8.21303 68.6725 8.69214 69.2635 8.69214Z" fill="white"/>
<path d="M68.054 32.8771C68.645 32.8771 69.1241 32.398 69.1241 31.8069C69.1241 31.2159 68.645 30.7368 68.054 30.7368C67.463 30.7368 66.9839 31.2159 66.9839 31.8069C66.9839 32.398 67.463 32.8771 68.054 32.8771Z" fill="white"/>
<path d="M72.2381 30.1482C72.8291 30.1482 73.3082 29.6691 73.3082 29.0781C73.3082 28.487 72.8291 28.0079 72.2381 28.0079C71.6471 28.0079 71.168 28.487 71.168 29.0781C71.168 29.6691 71.6471 30.1482 72.2381 30.1482Z" fill="white"/>
<path d="M76.4334 27.4087C77.0244 27.4087 77.5035 26.9296 77.5035 26.3386C77.5035 25.7475 77.0244 25.2684 76.4334 25.2684C75.8424 25.2684 75.3633 25.7475 75.3633 26.3386C75.3633 26.9296 75.8424 27.4087 76.4334 27.4087Z" fill="white"/>
<path d="M80.6175 24.6692C81.2085 24.6692 81.6876 24.1901 81.6876 23.5991C81.6876 23.008 81.2085 22.5289 80.6175 22.5289C80.0265 22.5289 79.5474 23.008 79.5474 23.5991C79.5474 24.1901 80.0265 24.6692 80.6175 24.6692Z" fill="white"/>
<path d="M84.8123 21.9403C85.4033 21.9403 85.8825 21.4612 85.8825 20.8702C85.8825 20.2792 85.4033 19.8 84.8123 19.8C84.2213 19.8 83.7422 20.2792 83.7422 20.8702C83.7422 21.4612 84.2213 21.9403 84.8123 21.9403Z" fill="white"/>
<path d="M72.1312 44.1027C72.7222 44.1027 73.2013 43.6236 73.2013 43.0325C73.2013 42.4415 72.7222 41.9624 72.1312 41.9624C71.5402 41.9624 71.061 42.4415 71.061 43.0325C71.061 43.6236 71.5402 44.1027 72.1312 44.1027Z" fill="white"/>
<path d="M76.7435 42.1765C77.3345 42.1765 77.8136 41.6974 77.8136 41.1064C77.8136 40.5154 77.3345 40.0363 76.7435 40.0363C76.1525 40.0363 75.6733 40.5154 75.6733 41.1064C75.6733 41.6974 76.1525 42.1765 76.7435 42.1765Z" fill="white"/>
<path d="M81.3665 40.261C81.9575 40.261 82.4366 39.7819 82.4366 39.1909C82.4366 38.5998 81.9575 38.1207 81.3665 38.1207C80.7755 38.1207 80.2964 38.5998 80.2964 39.1909C80.2964 39.7819 80.7755 40.261 81.3665 40.261Z" fill="white"/>
<path d="M85.9896 38.3453C86.5806 38.3453 87.0597 37.8662 87.0597 37.2752C87.0597 36.6842 86.5806 36.2051 85.9896 36.2051C85.3985 36.2051 84.9194 36.6842 84.9194 37.2752C84.9194 37.8662 85.3985 38.3453 85.9896 38.3453Z" fill="white"/>
<path d="M90.6126 36.4192C91.2036 36.4192 91.6827 35.9401 91.6827 35.3491C91.6827 34.758 91.2036 34.2789 90.6126 34.2789C90.0216 34.2789 89.5425 34.758 89.5425 35.3491C89.5425 35.9401 90.0216 36.4192 90.6126 36.4192Z" fill="white"/>
<path d="M75.6844 57.2975C76.2754 57.2975 76.7545 56.8184 76.7545 56.2274C76.7545 55.6363 76.2754 55.1572 75.6844 55.1572C75.0934 55.1572 74.6143 55.6363 74.6143 56.2274C74.6143 56.8184 75.0934 57.2975 75.6844 57.2975Z" fill="white"/>
<path d="M80.5213 56.0133C81.1123 56.0133 81.5914 55.5342 81.5914 54.9432C81.5914 54.3522 81.1123 53.873 80.5213 53.873C79.9303 53.873 79.4512 54.3522 79.4512 54.9432C79.4512 55.5342 79.9303 56.0133 80.5213 56.0133Z" fill="white"/>
<path d="M85.3582 54.7184C85.9492 54.7184 86.4283 54.2393 86.4283 53.6483C86.4283 53.0572 85.9492 52.5781 85.3582 52.5781C84.7672 52.5781 84.2881 53.0572 84.2881 53.6483C84.2881 54.2393 84.7672 54.7184 85.3582 54.7184Z" fill="white"/>
<path d="M90.1951 53.4342C90.7861 53.4342 91.2653 52.9551 91.2653 52.3641C91.2653 51.7731 90.7861 51.2939 90.1951 51.2939C89.6041 51.2939 89.125 51.7731 89.125 52.3641C89.125 52.9551 89.6041 53.4342 90.1951 53.4342Z" fill="white"/>
<path d="M81.4627 70.4172C82.0537 70.4172 82.5328 69.9381 82.5328 69.3471C82.5328 68.7561 82.0537 68.277 81.4627 68.277C80.8717 68.277 80.3926 68.7561 80.3926 69.3471C80.3926 69.9381 80.8717 70.4172 81.4627 70.4172Z" fill="white"/>
<path d="M86.428 69.8073C87.019 69.8073 87.4982 69.3281 87.4982 68.7371C87.4982 68.1461 87.019 67.667 86.428 67.667C85.837 67.667 85.3579 68.1461 85.3579 68.7371C85.3579 69.3281 85.837 69.8073 86.428 69.8073Z" fill="white"/>
<path d="M91.3934 69.1973C91.9844 69.1973 92.4635 68.7182 92.4635 68.1271C92.4635 67.5361 91.9844 67.057 91.3934 67.057C90.8024 67.057 90.3232 67.5361 90.3232 68.1271C90.3232 68.7182 90.8024 69.1973 91.3934 69.1973Z" fill="white"/>
<path d="M89.6385 83.7511C90.2295 83.7511 90.7086 83.272 90.7086 82.681C90.7086 82.09 90.2295 81.6108 89.6385 81.6108C89.0475 81.6108 88.5684 82.09 88.5684 82.681C88.5684 83.272 89.0475 83.7511 89.6385 83.7511Z" fill="white"/>
<path d="M94.6468 83.7511C95.2378 83.7511 95.7169 83.272 95.7169 82.681C95.7169 82.09 95.2378 81.6108 94.6468 81.6108C94.0558 81.6108 93.5767 82.09 93.5767 82.681C93.5767 83.272 94.0558 83.7511 94.6468 83.7511Z" fill="white"/>
<path d="M50.2791 46.9363C55.7746 46.0444 59.5066 40.8663 58.6147 35.3708C57.7228 29.8752 52.5448 26.1432 47.0492 27.0351C41.5537 27.927 37.8217 33.1051 38.7135 38.6006C39.6054 44.0962 44.7835 47.8282 50.2791 46.9363Z" fill="white"/>
</svg>
