<svg width="93" height="118" viewBox="0 0 93 118" fill="none" xmlns="http://www.w3.org/2000/svg">
<path d="M3.00553 44.7232C6.09385 43.5919 9.17452 42.5828 12.2399 41.6961C12.3087 42.7281 12.6986 43.8747 13.2413 45.2201C10.2677 46.0839 7.27872 47.0624 4.26685 48.1632C4.18276 48.1938 4.09103 48.2243 4.00694 48.2549L4.01458 48.5301V113.645H88.5152V48.2549C85.4574 47.1159 82.3844 46.0916 79.2961 45.1972C79.8388 43.8441 80.221 42.7051 80.2898 41.6655C83.8827 42.7128 87.4526 43.9129 90.9996 45.2736L90.3498 46.986L91.0072 45.2736C91.7487 45.5565 92.1997 46.275 92.1844 47.0242V115.479C92.1844 116.496 91.3665 117.314 90.3498 117.314H2.17994C1.16324 117.314 0.345298 116.496 0.345298 115.479V48.5301C0.345298 48.0256 0.345298 47.9797 0.345298 47.9415C0.322365 47.0777 0.314721 46.642 0.765737 45.9922C1.2244 45.3424 1.63719 45.1972 2.47043 44.9143C2.60038 44.8685 2.76091 44.815 3.00553 44.7232ZM26.0532 38.5084C33.0937 37.2929 40.073 36.712 46.9834 36.7502C53.5652 36.7808 60.0629 37.3694 66.4994 38.4702C66.3771 38.6918 66.3083 38.9059 66.3083 39.1276C66.3007 41.1304 66.4306 41.3903 66.1325 42.1318C59.7877 41.0234 53.397 40.4424 46.9681 40.4118C40.18 40.3736 33.3306 40.9469 26.4125 42.1624C26.0991 41.4056 26.2367 41.161 26.2214 39.1352C26.2214 38.9288 26.1602 38.7148 26.0532 38.5084ZM3.76232 48.0867C3.64766 48.2473 3.70117 48.1861 3.78525 48.0867C3.83876 47.9874 3.8617 47.9339 3.76232 48.0867Z" fill="white"/>
<path fill-rule="evenodd" clip-rule="evenodd" d="M83.6762 39.1352C84.7006 39.3798 85.7326 39.6168 86.7646 39.8538C87.5366 35.9628 88.0641 31.9419 88.0412 27.9821C88.0029 21.6908 86.4206 15.2925 81.2606 11.2486C81.2224 11.218 81.1918 11.1875 81.1536 11.1645C80.4809 10.6829 79.5636 10.8052 79.0285 11.4168L78.9368 11.5467C76.6664 14.7192 72.2556 14.4745 68.8004 14.3446C67.9442 14.314 67.0804 14.2758 66.2319 14.2758C65.3528 14.2758 64.6418 14.9867 64.6418 15.8658C64.6418 16.7449 65.3528 17.4558 66.2319 17.4558C67.0574 17.4558 67.8678 17.4788 68.6933 17.5093C72.5002 17.6469 76.6817 17.8457 79.7929 15.2543L80.4733 14.6886L81.0619 15.3536C84.0661 18.7248 84.8535 23.6325 84.8764 28.005C84.8993 31.7125 84.3948 35.4888 83.6762 39.1352ZM6.18556 39.8079C7.21755 39.5786 8.24953 39.3492 9.27387 39.1123C8.50944 35.4659 7.93611 31.6972 7.8826 27.9744C7.82909 23.6401 8.5018 18.7248 11.4754 15.3536L12.0641 14.6886L12.752 15.2543C15.9092 17.8533 20.2359 17.6469 24.0886 17.517C24.9142 17.4864 25.7321 17.4635 26.5501 17.4635C27.4292 17.4635 28.1401 16.7525 28.1401 15.8734C28.1401 14.9943 27.4292 14.2834 26.5501 14.2834C25.6939 14.2834 24.8301 14.3216 23.9739 14.3522C20.5034 14.4745 15.8786 14.7421 13.6006 11.5544L13.5088 11.4244C12.9737 10.8129 12.0564 10.6906 11.3837 11.1722C11.3455 11.1951 11.3073 11.2257 11.2767 11.2563C6.10147 15.3154 4.64905 21.7214 4.72549 28.0127C4.779 31.9571 5.37526 35.9322 6.18556 39.8079Z" fill="white"/>
<path d="M42.504 11.5849C42.8709 10.6447 42.4046 9.5821 41.4644 9.21517C40.5241 8.84824 39.4615 9.31455 39.0946 10.2548C38.0473 12.938 36.465 15.3383 34.4698 17.3258C32.4746 19.321 30.0666 20.9034 27.3835 21.943C26.4432 22.3099 25.9693 23.3648 26.3362 24.3051C26.7031 25.2454 27.7581 25.7193 28.6983 25.3524C31.8631 24.1216 34.6991 22.2641 37.0459 19.9172C39.4004 17.5704 41.2732 14.742 42.504 11.5849Z" fill="white"/>
<path d="M42.5268 10.316C42.1981 9.36045 41.1508 8.85593 40.1953 9.19228C39.2397 9.52098 38.7352 10.5683 39.0715 11.5238C39.5302 12.8386 39.8513 14.184 40.0347 15.5447C40.2182 16.9131 40.2641 18.2967 40.1647 19.6803C40.0959 20.6894 40.8603 21.5608 41.8694 21.6296C42.8784 21.6984 43.7499 20.934 43.8187 19.9249C43.9257 18.312 43.8722 16.6837 43.6582 15.0555C43.4441 13.4502 43.0619 11.8678 42.5268 10.316Z" fill="white"/>
<path d="M65.437 25.36C66.3849 25.7117 67.4398 25.2224 67.7915 24.2669C68.1431 23.3114 67.6539 22.2641 66.6983 21.9124C63.2354 20.6435 60.1013 18.8318 57.4792 16.6378C54.8725 14.4592 52.7703 11.8984 51.3408 9.11581C50.8822 8.21378 49.7814 7.86214 48.8794 8.3208C47.9773 8.77946 47.6257 9.88025 48.0844 10.7823C49.7432 14.0235 52.1588 16.9742 55.1248 19.451C58.0755 21.9201 61.5766 23.9458 65.437 25.36Z" fill="white"/>
<path d="M40.8986 18.3273C40.0883 18.9312 39.9202 20.0779 40.5241 20.8958C41.128 21.7061 42.2746 21.8743 43.0926 21.2704C44.7055 20.0626 46.3338 18.4267 47.7556 16.6226C49.2004 14.8033 50.4541 12.8081 51.3026 10.9123C51.7154 9.98733 51.3102 8.90183 50.3853 8.48904C49.4603 8.07624 48.3748 8.48139 47.962 9.40636C47.2282 11.027 46.1427 12.7546 44.8814 14.337C43.6506 15.8964 42.267 17.303 40.8986 18.3273Z" fill="white"/>
<path d="M46.265 0.569458C52.3728 0.569458 57.8997 3.04623 61.8977 7.04422C65.8956 11.0422 68.3724 16.5691 68.3724 22.6769C68.3724 27.4317 66.8665 31.8425 64.3133 35.4506C62.815 35.2977 61.3167 35.1678 59.8184 35.0454C62.7997 31.7813 64.6114 27.4393 64.6114 22.6769C64.6114 17.6087 62.5551 13.0221 59.2374 9.70445C55.9198 6.3868 51.3332 4.33048 46.265 4.33048C41.1968 4.33048 36.6102 6.3868 33.2925 9.70445C29.9749 13.0221 27.9186 17.6087 27.9186 22.6769C27.9186 27.424 29.7226 31.7431 32.6733 34.9996C31.1827 35.1219 29.6844 35.2595 28.1938 35.42C25.6482 31.8195 24.1499 27.424 24.1499 22.6769C24.1499 16.5691 26.6267 11.0422 30.6247 7.04422C34.6303 3.04623 40.1572 0.569458 46.265 0.569458Z" fill="white"/>
<path d="M38.8193 26.2773C38.1466 26.2773 37.5962 26.8277 37.5962 27.5004C37.5962 28.1731 38.1466 28.7235 38.8193 28.7235H41.0591C41.7318 28.7235 42.2822 28.1731 42.2822 27.5004C42.2822 26.8277 41.7318 26.2773 41.0591 26.2773H38.8193Z" fill="white"/>
<path d="M51.4707 26.2773C50.798 26.2773 50.2476 26.8277 50.2476 27.5004C50.2476 28.1731 50.798 28.7235 51.4707 28.7235H53.7105C54.3832 28.7235 54.9335 28.1731 54.9335 27.5004C54.9335 26.8277 54.3832 26.2773 53.7105 26.2773H51.4707Z" fill="white"/>
<path d="M27.4445 39.1276C27.4445 39.7315 27.4368 40.1595 27.4292 40.5035C27.4139 41.0463 27.4139 41.2986 27.4751 41.505C27.5439 41.7343 27.712 42.063 28.0178 42.6669C28.3312 43.2784 28.7746 44.1575 29.4473 45.61C30.1276 47.0624 29.7531 48.3313 28.8969 49.2104C28.53 49.585 28.0713 49.8832 27.5668 50.0819C27.0775 50.273 26.5501 50.3647 26.0226 50.3495C25.6481 50.3342 25.2811 50.273 24.9295 50.1507C24.746 50.4565 24.509 50.7317 24.2338 50.9686C23.8822 51.2744 23.4618 51.5114 23.0031 51.6719C22.5521 51.8248 22.0781 51.9013 21.6042 51.8783C21.2602 51.863 20.9162 51.7942 20.5875 51.6796C20.404 51.9777 20.1747 52.2376 19.9072 52.4669C19.5555 52.7727 19.1351 53.0173 18.6841 53.1702L18.2789 52.0159L18.6841 53.1702C18.6382 53.1855 18.6 53.2008 18.5541 53.2084C18.1413 53.3384 17.7132 53.3919 17.2851 53.369C16.0085 53.3078 14.7778 52.5969 14.2274 51.0145C13.7305 49.5697 13.1725 48.232 12.6756 47.0395C11.5901 44.4327 10.7798 42.4834 11.0703 40.5647C11.5748 37.2471 13.5318 35.4889 15.955 34.755C17.1705 34.3881 18.4777 34.2887 19.7543 34.3957C21.0079 34.4951 22.2463 34.7856 23.3318 35.1831C25.7016 36.0622 27.4368 37.591 27.4445 39.1276ZM24.9906 40.4577C24.9983 40.1213 25.0059 39.6856 25.0059 39.1352C25.0059 38.6765 23.9434 38.0191 22.4909 37.484C21.6042 37.1553 20.5875 36.9183 19.5632 36.8419C18.5541 36.7655 17.5527 36.8266 16.6583 37.1018C15.0912 37.5758 13.8223 38.7377 13.4859 40.9469C13.2948 42.2006 13.9904 43.8747 14.923 46.1221C15.4123 47.2994 15.9627 48.6295 16.5284 50.2424C16.6965 50.724 17.0405 50.9381 17.3998 50.9534C17.5374 50.961 17.675 50.9457 17.805 50.9075C17.8279 50.8998 17.8508 50.8846 17.8814 50.8769C18.0343 50.8234 18.1795 50.7393 18.3018 50.6323C18.5694 50.3953 18.7146 50.0131 18.5465 49.5315L20.8474 48.7365C21.0156 49.2181 21.3596 49.4321 21.7189 49.4474C21.887 49.4551 22.0476 49.4321 22.2081 49.3786C22.3533 49.3251 22.4986 49.241 22.6285 49.134C22.8961 48.897 23.0413 48.5148 22.8732 48.0332L25.1741 47.2382C25.3346 47.7045 25.7092 47.9109 26.0838 47.9186C26.2825 47.9262 26.4966 47.888 26.6877 47.8115C26.8635 47.7427 27.024 47.6434 27.1463 47.5134C27.3375 47.3146 27.4139 47.0165 27.2381 46.6419C26.6265 45.3271 26.1602 44.4098 25.8392 43.7677C25.4646 43.0262 25.2582 42.621 25.1359 42.2159C24.9677 41.6655 24.9754 41.2833 24.9906 40.4577Z" fill="white"/>
<path d="M67.524 39.1352C67.524 39.6856 67.5317 40.1213 67.5393 40.4577C67.5546 41.2833 67.5622 41.6655 67.4017 42.2159C67.2794 42.621 67.073 43.0262 66.6984 43.7677C66.3774 44.4098 65.9111 45.3271 65.2995 46.642C65.1237 47.0089 65.2001 47.3147 65.3913 47.5134C65.5136 47.6357 65.6741 47.7427 65.8499 47.8115C66.041 47.888 66.2474 47.9262 66.4538 47.9186C66.836 47.9033 67.203 47.7045 67.3635 47.2382L69.6644 48.0332C69.4963 48.5148 69.6415 48.897 69.9091 49.134C70.039 49.241 70.1766 49.3251 70.3295 49.3786C70.4824 49.4321 70.6506 49.4551 70.8187 49.4474C71.1704 49.4321 71.522 49.2181 71.6902 48.7365L73.9911 49.5315C73.823 50.0131 73.9606 50.3953 74.2358 50.6323C74.3657 50.7393 74.5033 50.8234 74.6562 50.8769C74.8091 50.9304 74.9773 50.9534 75.1454 50.9457C75.4971 50.9304 75.8487 50.7164 76.0169 50.2348C76.5749 48.6218 77.1253 47.2994 77.6222 46.1145C78.5548 43.8671 79.2504 42.1929 79.0593 40.9393C78.723 38.7301 77.454 37.5758 75.8869 37.0942C74.9925 36.8266 73.9911 36.7578 72.9821 36.8343C71.9501 36.9184 70.941 37.1477 70.0543 37.4764C68.5866 38.0191 67.524 38.6765 67.524 39.1352ZM65.1008 40.5035C65.0931 40.1596 65.0855 39.7238 65.0855 39.1276C65.0931 37.5987 66.8284 36.0622 69.1981 35.1907C70.2836 34.7856 71.522 34.5027 72.7757 34.4034C74.0523 34.304 75.3671 34.3957 76.5749 34.7626C78.9905 35.4965 80.9551 37.2547 81.4597 40.5723C81.7501 42.4911 80.9398 44.4327 79.8543 47.0471C79.3575 48.2396 78.7994 49.5774 78.3025 51.0222C77.7521 52.6045 76.5214 53.3155 75.2448 53.3766C74.7709 53.3995 74.2969 53.3231 73.8459 53.1702C73.3872 53.0097 72.9668 52.7727 72.6151 52.4669C72.3552 52.2376 72.1259 51.9701 71.9348 51.6796C71.6061 51.7942 71.2621 51.863 70.9181 51.8783C70.4442 51.9013 69.9702 51.8248 69.5192 51.6719C69.0605 51.5114 68.6401 51.2744 68.2885 50.9686C68.0209 50.7317 67.7839 50.4565 67.5928 50.1507C67.2412 50.273 66.8743 50.3342 66.4997 50.3495C65.9722 50.3647 65.4371 50.273 64.9555 50.0819C64.451 49.8832 63.9923 49.5927 63.6254 49.2105C62.7692 48.3314 62.3947 47.0624 63.075 45.61C63.7477 44.1652 64.1987 43.2861 64.5045 42.6669C64.8103 42.063 64.9708 41.7419 65.0473 41.505C65.1161 41.2986 65.1161 41.0463 65.1008 40.5035Z" fill="white"/>
</svg>
