<svg width="153" height="152" viewBox="0 0 153 152" fill="none" xmlns="http://www.w3.org/2000/svg">
<mask id="mask0_220_1168" style="mask-type:luminance" maskUnits="userSpaceOnUse" x="0" y="0" width="153" height="152">
<path d="M0.789062 0.595703H152.849V151.478H0.789062V0.595703Z" fill="white"/>
</mask>
<g mask="url(#mask0_220_1168)">
<mask id="mask1_220_1168" style="mask-type:luminance" maskUnits="userSpaceOnUse" x="0" y="0" width="153" height="152">
<path d="M76.7419 0.587891C34.7908 0.587891 0.78125 34.3618 0.78125 76.0291C0.78125 117.696 34.7908 151.47 76.7419 151.47C118.698 151.47 152.708 117.696 152.708 76.0291C152.708 34.3618 118.698 0.587891 76.7419 0.587891Z" fill="white"/>
</mask>
<g mask="url(#mask1_220_1168)">
<path d="M0.78125 0.587891H152.842V151.47H0.78125V0.587891Z" fill="#72308A"/>
</g>
</g>
<path d="M35.2006 88.4808C35.2006 86.4673 35.6718 84.7965 36.6143 83.4685C37.5568 82.1405 38.8313 81.1498 40.4485 80.4911C42.0603 79.8217 43.8543 79.4844 45.8249 79.4844C47.908 79.4844 49.7662 79.7575 51.3941 80.2983C53.022 80.8445 54.3072 81.6692 55.2497 82.7831C56.1922 83.8862 56.6634 85.2838 56.6634 86.9814C56.6634 88.3683 56.2618 89.5893 55.4639 90.6442C54.6606 91.6884 53.3647 92.5184 51.5655 93.1289C52.5936 93.4181 53.5414 93.8518 54.4143 94.4355C55.2979 95.0085 56.0047 95.7529 56.5349 96.6632C57.0597 97.5628 57.3274 98.6445 57.3274 99.8976C57.3274 101.268 57.0168 102.479 56.4064 103.518C55.8066 104.562 54.9712 105.44 53.9002 106.152C52.8292 106.854 51.5922 107.384 50.1946 107.737C48.7916 108.08 47.2922 108.251 45.6964 108.251C43.4526 108.235 41.5409 107.866 39.9558 107.138C38.3707 106.409 37.1552 105.37 36.3144 104.01C35.4683 102.655 35.0346 101.049 35.0078 99.1908H40.4485C40.7162 100.776 41.3321 101.927 42.2906 102.639C43.2599 103.341 44.4112 103.689 45.7392 103.689C46.9066 103.689 47.908 103.528 48.738 103.196C49.5627 102.854 50.1999 102.382 50.6444 101.783C51.0835 101.183 51.3084 100.497 51.3084 99.7263C51.3084 98.9284 51.0782 98.2429 50.623 97.6699C50.1624 97.0862 49.5306 96.6311 48.7166 96.2991C47.9026 95.9724 46.9709 95.7957 45.932 95.7636L43.2759 95.6565V91.1797L45.675 91.0512C46.671 91.0083 47.5439 90.8263 48.2882 90.4942C49.0433 90.1515 49.6269 89.7017 50.0446 89.1448C50.457 88.5772 50.6658 87.9399 50.6658 87.2384C50.6658 86.553 50.4516 85.9639 50.0232 85.4605C49.6055 84.9625 49.0218 84.5716 48.2668 84.2825C47.5224 83.9986 46.671 83.8541 45.7178 83.8541C44.8182 83.8541 43.9935 84.004 43.2545 84.3039C42.5102 84.593 41.8943 85.075 41.4124 85.7604C40.9411 86.4352 40.6627 87.3402 40.577 88.4808H35.2006Z" fill="white"/>
<path d="M71.4832 79.4844C74.8086 79.4844 77.4272 80.7267 79.3443 83.2115C81.2721 85.6855 82.236 89.2465 82.236 93.9C82.236 98.5267 81.2828 102.077 79.3871 104.546C77.4861 107.02 74.8515 108.251 71.4832 108.251C68.0988 108.251 65.4481 107.025 63.5364 104.567C61.6353 102.099 60.6875 98.5482 60.6875 93.9214C60.6875 90.837 61.1213 88.2184 61.9941 86.0603C62.8777 83.9076 64.1254 82.269 65.7426 81.1551C67.3545 80.0413 69.2662 79.4844 71.4832 79.4844ZM71.4832 103.625C73.1379 103.625 74.3534 102.886 75.1246 101.397C75.9064 99.9137 76.3027 97.4236 76.3027 93.9214C76.3027 90.355 75.9064 87.7953 75.1246 86.2531C74.3374 84.7109 73.1164 83.9397 71.4617 83.9397C69.8178 83.9397 68.5915 84.7216 67.7775 86.2745C66.9743 87.8328 66.578 90.3818 66.578 93.9214C66.578 97.4075 66.9743 99.8976 67.7775 101.397C68.5754 102.886 69.8124 103.625 71.4832 103.625Z" fill="white"/>
<path d="M92.7795 79.4395C94.1076 79.4395 95.2964 79.7982 96.3567 80.5105C97.4116 81.212 98.247 82.1705 98.8628 83.3807C99.4893 84.5963 99.8053 85.9511 99.8053 87.4505C99.8053 88.9392 99.4947 90.2726 98.8842 91.4561C98.2845 92.6449 97.4491 93.5766 96.3781 94.2621C95.3178 94.9475 94.1183 95.2902 92.7795 95.2902C91.4354 95.2902 90.2306 94.9475 89.1596 94.2621C88.0993 93.5766 87.2585 92.6449 86.632 91.4561C86.0162 90.2726 85.7109 88.9392 85.7109 87.4505C85.7109 85.9511 86.0162 84.5963 86.632 83.3807C87.2585 82.1705 88.11 81.212 89.181 80.5105C90.252 79.7982 91.4515 79.4395 92.7795 79.4395ZM92.7367 92.4414C93.7648 92.4414 94.5038 92.0023 94.9644 91.1133C95.4195 90.2298 95.6498 89.0088 95.6498 87.4505C95.6498 85.8387 95.4035 84.5749 94.9215 83.6592C94.4503 82.7488 93.722 82.2883 92.7367 82.2883C92.0941 82.2883 91.5586 82.4972 91.1302 82.9095C90.7125 83.3272 90.4019 83.9269 90.1877 84.7088C89.9735 85.4799 89.8664 86.3956 89.8664 87.4505C89.8664 88.9928 90.0913 90.2137 90.5519 91.1133C91.0231 92.0023 91.7514 92.4414 92.7367 92.4414ZM111.136 92.3129C112.464 92.3129 113.653 92.6716 114.714 93.3839C115.785 94.1014 116.625 95.0653 117.241 96.2756C117.852 97.4911 118.162 98.8406 118.162 100.324C118.162 101.813 117.852 103.151 117.241 104.351C116.641 105.54 115.806 106.482 114.735 107.178C113.675 107.864 112.475 108.206 111.136 108.206C109.776 108.206 108.566 107.864 107.495 107.178C106.424 106.482 105.573 105.54 104.946 104.351C104.33 103.151 104.025 101.813 104.025 100.324C104.025 98.8406 104.336 97.4911 104.967 96.2756C105.594 95.0653 106.445 94.1014 107.516 93.3839C108.598 92.6716 109.808 92.3129 111.136 92.3129ZM111.094 105.293C111.747 105.293 112.293 105.095 112.722 104.694C113.15 104.297 113.461 103.724 113.664 102.98C113.878 102.241 113.985 101.368 113.985 100.367C113.985 99.2958 113.878 98.3747 113.664 97.6036C113.45 96.8325 113.129 96.2434 112.7 95.8257C112.272 95.4134 111.736 95.2046 111.094 95.2046C110.451 95.2046 109.916 95.4134 109.487 95.8257C109.069 96.2434 108.759 96.8432 108.545 97.625C108.33 98.3961 108.223 99.3118 108.223 100.367C108.223 101.368 108.32 102.241 108.523 102.98C108.737 103.724 109.059 104.297 109.487 104.694C109.916 105.095 110.451 105.293 111.094 105.293ZM112.743 79.568L93.9362 107.971L90.6161 107.928L109.466 79.568H112.743Z" fill="white"/>
<mask id="mask2_220_1168" style="mask-type:luminance" maskUnits="userSpaceOnUse" x="59" y="26" width="36" height="37">
<path d="M59.0391 26.3867H94.5909V62.3134H59.0391V26.3867Z" fill="white"/>
</mask>
<g mask="url(#mask2_220_1168)">
<path d="M76.7534 50.7466C73.2459 50.7466 70.2631 48.128 69.808 44.6526C69.7598 44.2778 70.0275 43.9404 70.397 43.8868C70.7719 43.8386 71.1146 44.1064 71.1628 44.4759C71.5269 47.2658 73.9259 49.3704 76.748 49.3704C79.5648 49.3704 81.9692 47.2658 82.3279 44.4759C82.3815 44.101 82.7189 43.8386 83.0937 43.8868C83.4739 43.9404 83.7309 44.2778 83.6828 44.6526C83.2436 48.128 80.2609 50.7466 76.7534 50.7466ZM94.4677 44.101C94.4677 34.3282 86.5263 26.3867 76.7534 26.3867C66.9805 26.3867 59.0391 34.3282 59.0391 44.101C59.0391 53.8739 66.9805 61.8154 76.7534 61.8154C86.5263 61.8154 94.4677 53.8632 94.4677 44.101ZM93.1022 44.101C93.1022 53.1135 85.7658 60.4498 76.7534 60.4498C67.7409 60.4498 60.4046 53.1135 60.4046 44.101C60.4046 35.0886 67.7409 27.7522 76.7534 27.7522C85.7658 27.7522 93.1022 35.0886 93.1022 44.101ZM72.6675 39.6725V36.2613C72.6675 35.6027 72.1267 35.0725 71.4734 35.0725C70.8147 35.0725 70.2846 35.6134 70.2846 36.2613V39.6725C70.2846 40.3311 70.8254 40.8613 71.4734 40.8613C72.132 40.8613 72.6675 40.3311 72.6675 39.6725ZM83.2222 39.6725V36.2613C83.2222 35.6027 82.6867 35.0725 82.0334 35.0725C81.3747 35.0725 80.8446 35.6134 80.8446 36.2613V39.6725C80.8446 40.3311 81.3801 40.8613 82.0334 40.8613C82.6921 40.8613 83.2222 40.3311 83.2222 39.6725Z" fill="white"/>
</g>
</svg>
