<svg width="113" height="91" viewBox="0 0 113 91" fill="none" xmlns="http://www.w3.org/2000/svg">
<path d="M92.4354 31.4473C91.559 31.4473 90.8479 30.7362 90.8479 29.8598C90.8479 27.5839 90.4023 25.3755 89.5246 23.2952C88.6725 21.2848 87.4559 19.4803 85.9089 17.9333C84.3607 16.385 82.5574 15.1684 80.5457 14.3176C79.7379 13.9761 79.3609 13.0452 79.7023 12.2373C80.0451 11.4295 80.9748 11.0525 81.7839 11.3927C84.1725 12.4035 86.3165 13.8488 88.1541 15.6881C89.9905 17.5245 91.4357 19.6672 92.4477 22.0571C93.4928 24.5323 94.0224 27.1574 94.0224 29.8586C94.0228 30.7363 93.3118 31.4474 92.4353 31.4474L92.4354 31.4473Z" fill="#722F89"/>
<path d="M51.1909 66.7122C50.5356 66.7122 49.9437 66.3083 49.7075 65.6911L40.2652 40.9737L37.103 51.4512C36.9013 52.1205 36.2824 52.5803 35.5841 52.5803L9.51098 52.5798C8.63456 52.5798 7.92348 51.8688 7.92348 50.9923C7.92348 50.1159 8.63456 49.4049 9.51098 49.4049H34.4051L38.5706 35.6052C38.7661 34.9549 39.354 34.5014 40.0324 34.4775C40.7422 34.4597 41.3305 34.8636 41.5728 35.4974L50.8882 59.8845L60.7535 21.1421C60.925 20.4703 61.5117 19.9879 62.2037 19.9494C62.9123 19.9138 63.5332 20.3264 63.7771 20.9742L74.4917 49.4053L102.22 49.4049C103.096 49.4049 103.808 50.116 103.808 50.9924C103.808 51.8688 103.096 52.5799 102.22 52.5799H73.3931C72.7313 52.5799 72.1409 52.171 71.9074 51.5526L62.5841 26.814L52.7275 65.5173C52.5572 66.1878 51.9718 66.6703 51.281 66.71C51.2504 66.7125 51.2202 66.7125 51.1896 66.7125L51.1909 66.7122Z" fill="#722F89"/>
<path d="M1.71136 52.3571C1.2934 52.3571 0.887013 52.1922 0.593865 51.8871C0.29042 51.5948 0.123817 51.1884 0.123817 50.7696C0.123817 50.3504 0.290007 49.944 0.581049 49.6393C1.17801 49.0551 2.24581 49.0551 2.83043 49.6393C3.13387 49.944 3.29924 50.3504 3.29924 50.7696C3.29924 51.176 3.13429 51.5952 2.83043 51.8871C2.53815 52.1794 2.13052 52.3571 1.71135 52.3571H1.71136Z" fill="#722F89"/>
<path d="M111.29 52.3575C110.871 52.3575 110.466 52.1797 110.173 51.8875C109.868 51.5952 109.703 51.1888 109.703 50.77C109.703 50.3508 109.868 49.9444 110.16 49.6525C110.768 49.0555 111.823 49.0555 112.408 49.6396C112.712 49.9443 112.878 50.3507 112.878 50.77C112.878 51.1892 112.713 51.5955 112.408 51.8875C112.116 52.1797 111.709 52.3575 111.29 52.3575L111.29 52.3575Z" fill="#722F89"/>
<path d="M94.4117 46.0982C94.0599 46.0982 93.7031 45.9813 93.4096 45.7402C92.7299 45.1867 92.6286 44.1858 93.1822 43.5074C96.5324 39.4026 98.4528 33.8529 98.4528 28.2843C98.4528 14.7345 87.4313 3.7098 73.8857 3.7098C67.8697 3.7098 62.0694 5.9286 57.5546 9.95682C56.9514 10.4938 56.0443 10.4938 55.4412 9.95682C50.9189 5.9232 45.12 3.7007 39.1101 3.7007C25.5655 3.7007 14.5451 14.6978 14.5451 28.2159C14.5451 33.8763 16.496 39.4427 19.8979 43.4898C20.4618 44.1603 20.3754 45.1625 19.7049 45.7264C19.0318 46.2903 18.031 46.2026 17.467 45.5321C13.5921 40.9233 11.3697 34.6101 11.3697 28.2156C11.3697 12.947 23.8125 0.525391 39.1096 0.525391C45.4394 0.525391 51.562 2.70492 56.497 6.68976C61.4286 2.71064 67.5502 0.534069 73.8843 0.534069C89.1815 0.534069 101.626 12.9822 101.626 28.2836C101.626 34.5728 99.4444 40.8534 95.641 45.5132C95.3276 45.8985 94.8704 46.0978 94.4107 46.0978L94.4117 46.0982Z" fill="#722F89"/>
<path d="M56.5551 90.4682C56.0904 90.4682 55.6485 90.2636 55.3475 89.9105L28.7379 58.6865C28.169 58.0197 28.2488 57.0175 28.9169 56.4487C29.5837 55.8786 30.5846 55.9584 31.1547 56.6277L56.5568 86.4346L81.9885 56.6266C82.5562 55.9623 83.5595 55.88 84.2275 56.4501C84.8944 57.019 84.9742 58.0211 84.4053 58.688L57.7618 89.9119C57.4608 90.265 57.0185 90.4684 56.5538 90.4684L56.5551 90.4682Z" fill="#722F89"/>
</svg>
