<?xml version="1.0" encoding="UTF-8"?>
<svg width="1200pt" height="1200pt" version="1.1" viewBox="0 0 1200 1200" xmlns="http://www.w3.org/2000/svg">
 <g fill="#722f89">
  <path d="m522.94 470.62c-3.875 0-7.5781-1.5977-10.238-4.4141-5.4531-4.2891-12.008-6.9414-18.906-7.6523-6.9023-0.71094-13.859 0.54688-20.074 3.6289-6.168 4.7383-15.012 3.5781-19.75-2.5938-4.7344-6.168-3.5742-15.008 2.5938-19.746 16.34-12.555 55.68-15.141 76.586 7.0234v-0.003906c3.8789 4.0781 4.9531 10.078 2.7305 15.246-2.2227 5.1719-7.3125 8.5195-12.941 8.5117z"/>
  <path d="m676.06 470.62c-5.6094 0-10.684-3.3398-12.906-8.4922-2.2227-5.1523-1.1719-11.133 2.6797-15.219 20.898-22.152 60.254-19.574 76.586-7.0234l-0.003907 0.003906c5.9805 4.7852 7.0273 13.477 2.3594 19.547-4.6641 6.0703-13.332 7.293-19.496 2.7461-6.2109-3.082-13.172-4.3438-20.07-3.6328-6.8984 0.71094-13.457 3.3594-18.91 7.6445-2.6562 2.8242-6.3594 4.4258-10.238 4.4258z"/>
  <path d="m599.52 828.9c-4.9844 0.003906-9.957-0.49219-14.844-1.4805-37.246-7.5-136.43-36.562-252.8-145.37-82.172-76.809-126.51-206.02-126.51-288.59 0-141.7 93.242-248.56 216.9-248.56l0.003906-0.003906c33.211 0.26562 65.957 7.832 95.922 22.16s56.41 35.07 77.469 60.754c0.91016 1.2031 2.3242 1.9258 3.832 1.9492 1.5156-0.023438 2.9297-0.74219 3.8438-1.9492 21.062-25.695 47.516-46.441 77.488-60.773 29.973-14.328 62.73-21.891 95.949-22.148 123.65 0 216.89 106.88 216.89 248.56 0 82.566-44.336 211.78-126.5 288.59-116.41 108.8-215.61 137.91-252.8 145.38-4.8867 0.98828-9.8633 1.4844-14.848 1.4805zm-177.25-655.88c-109.39 0-188.77 92.711-188.77 220.43 0 76.66 41.25 196.65 117.59 268.05 111.1 103.87 204.23 131.34 239.12 138.34 6.1523 1.2305 12.484 1.2305 18.637 0 34.875-6.9922 127.98-34.48 239.06-138.34 76.367-71.398 117.58-191.39 117.58-268.05 0-127.73-79.387-220.43-188.77-220.43v-0.003906c-29.098 0.27344-57.781 6.9375-84.016 19.527-26.238 12.586-49.383 30.789-67.805 53.316-6.2656 7.5859-15.578 11.992-25.414 12.031-9.8359-0.035157-19.145-4.4453-25.406-12.031-18.418-22.523-41.566-40.727-67.801-53.312-26.23-12.59-54.914-19.254-84.008-19.531z"/>
  <path d="m1051.5 738.9c-9.3203-8.3789-21.957-12.055-34.32-9.9727-31.633 5.25-53.68 39.535-73.125 70.387-5.4648-6.9492-12.914-12.066-21.355-14.68-8.4453-2.6133-17.48-2.5938-25.914 0.054688-19.895 5.5586-73.961 34.949-103.97 53.578-53.117 33.086-93.516 83.125-114.66 142.02-11.68 29.887-35.164 131.82-27.133 174.38 1.3281 8.1484 5.543 15.551 11.879 20.848 11.418 9.7031 42.883 13.602 71.793 13.602v0.003907c17.816 0.81641 35.641-1.3594 52.734-6.4414 10.164-4.4414 17.555-13.523 19.836-24.375 1.0312-4.1445 1.8008-9.6016 2.6797-15.938h0.003906c1.4414-16.211 5.3828-32.102 11.68-47.109 13.258-25.668 46.219-52.5 72.703-74.062 12.375-10.059 23.062-18.75 30.938-26.559 37.414-37.012 133.93-188.44 137.16-228.61h0.003906c0.76172-10.25-3.2773-20.27-10.934-27.125zm-19.133 33.402c-13.801 41.438-92.289 168.09-126.87 202.29-6.918 6.8438-17.598 15.543-28.914 24.75-28.52 23.195-63.992 52.059-79.941 82.941v0.003906c-7.8633 17.789-12.777 36.738-14.551 56.109-0.74219 5.3242-1.4453 10.312-2.1289 13.078h0.003906c-0.27734 2.6445-2.0664 4.8828-4.5859 5.7344-12.684 6.0195-82.762 4.9297-94.273-3.1797v0.003906c-1.4492-1.1406-2.3398-2.8477-2.4492-4.6875-6.2539-33.066 13.648-128.04 25.688-158.88 19.035-53.168 55.426-98.375 103.3-128.32 30.746-19.508 63.098-36.367 96.703-50.391 1.8828-0.53906 3.832-0.82031 5.793-0.83594 4.7656-0.1875 9.2969 2.0859 11.992 6.0195 3.3047 4.9609 2.9219 11.516-0.9375 16.059-9.2227 10.043-19.754 18.797-31.312 26.027-22.211 15.617-47.383 33.328-56.371 61.809h-0.003906c-2.3281 7.4102 1.7891 15.305 9.1992 17.633 7.4102 2.332 15.305-1.7852 17.633-9.1953 6.1211-19.414 26.25-33.582 45.723-47.27 24.078-18.168 44.672-40.543 60.789-66.039 14.746-25.527 35.195-56.035 54.938-59.316v0.003907c3.8164-0.64844 7.7227 0.42187 10.676 2.9219 2.1211 1.9805 2.2969 6.7891-0.10156 12.734z"/>
  <path d="m406.41 838.25c-30-18.629-84.055-48.02-103.97-53.578-8.4375-2.6602-17.488-2.6797-25.941-0.066407-8.4531 2.6172-15.91 7.75-21.371 14.711-19.387-30.852-41.438-65.137-73.07-70.387-12.363-2.0977-25.004 1.5742-34.32 9.9648-7.6523 6.8477-11.695 16.855-10.953 27.094 3.2422 40.133 99.75 191.6 137.18 228.61 7.8828 7.8008 18.57 16.5 30.938 26.559 26.484 21.562 59.445 48.375 72.703 74.062 6.293 15.012 10.23 30.898 11.672 47.109 0.89062 6.3281 1.6602 11.785 2.6797 15.938h0.003907c2.2852 10.852 9.6758 19.93 19.836 24.375 17.094 5.0781 34.922 7.2539 52.734 6.4336 28.914 0 60.375-3.8906 71.805-13.594 6.3281-5.3047 10.543-12.711 11.875-20.859 8.0352-42.516-15.461-144.45-27.141-174.38-21.145-58.891-61.543-108.92-114.66-142zm114.17 311.13c-0.10547 1.7773-0.94922 3.4297-2.3281 4.5547-11.625 8.2109-81.703 9.3086-94.406 3.2812-2.5117-0.85547-4.3008-3.0938-4.582-5.7344-0.67578-2.7383-1.3789-7.7539-2.1289-13.078-1.7695-19.367-6.6797-38.316-14.539-56.102-15.938-30.891-51.43-59.758-79.941-82.961-11.316-9.1953-22.004-17.898-28.922-24.742-34.762-34.387-113.91-162.19-127.08-202.96v0.003907c-1.5469-3.8711-1.5039-8.1953 0.12109-12.035 2.6914-2.9648 6.8516-4.1055 10.68-2.9258 19.688 3.75 39.254 34.34 54.938 59.316 7.9961 12.73 36.254 52.078 60.777 66.039 20.691 11.766 39.609 27.852 45.73 47.27v-0.003906c2.457 7.2344 10.246 11.184 17.535 8.8906 7.2891-2.293 11.414-9.9883 9.2852-17.328-8.9805-28.508-34.152-46.172-56.352-61.836-11.559-7.2305-22.09-15.984-31.312-26.027-3.8633-4.543-4.2461-11.098-0.9375-16.059 1.9922-2.6914 4.8164-4.6602 8.0312-5.5938 3.2188-0.9375 6.6523-0.79297 9.7812 0.41016 33.609 14.02 65.957 30.875 96.703 50.391 47.887 29.953 84.281 75.176 103.3 128.36 11.988 30.832 31.93 125.81 25.641 158.87z"/>
  <path d="m651.49 525.57c-6.7344-7.9648-16.637-12.559-27.066-12.551h-49.836c-10.469 0.011719-20.398 4.6328-27.145 12.633-6.7461 8.0039-9.6289 18.57-7.8711 28.887 3.0938 19.141 15.145 35.652 32.426 44.438 17.285 8.7852 37.727 8.7852 55.012 0 17.285-8.7852 29.336-25.297 32.43-44.438 1.75-10.355-1.1602-20.953-7.9492-28.969zm-51.984 51.93c-7.9023 0.51562-15.695-2.082-21.711-7.2305-6.0156-5.1484-9.7812-12.445-10.492-20.332-0.38672-2.1602 0.20312-4.3789 1.6094-6.0664 1.4023-1.6875 3.4805-2.668 5.6758-2.6797h49.836c2.1914 0.015625 4.2656 0.99609 5.668 2.6836 1.4023 1.6836 1.9922 3.9023 1.6055 6.0625-0.70703 7.8867-4.4727 15.184-10.488 20.332-6.0117 5.1484-13.801 7.7461-21.703 7.2305z"/>
  <path d="m1147.7 511.7-22.191-12.188-12.133-22.18c-3.8711-7.0781-10.164-12.527-17.723-15.344-7.5625-2.8203-15.883-2.8203-23.445 0-7.5586 2.8164-13.852 8.2656-17.723 15.344l-12.133 22.18-22.191 12.188c-7.0781 3.875-12.527 10.164-15.344 17.727-2.8203 7.5586-2.8203 15.883 0 23.445 2.8164 7.5586 8.2656 13.852 15.344 17.723l22.191 12.133 12.133 22.18c3.8672 7.082 10.16 12.535 17.723 15.355 7.5586 2.8203 15.887 2.8203 23.445 0 7.5625-2.8203 13.855-8.2734 17.723-15.355l12.133-22.18 22.191-12.133c7.0781-3.8711 12.527-10.164 15.344-17.723 2.8203-7.5625 2.8203-15.887 0-23.445-2.8164-7.5625-8.2656-13.852-15.344-17.727zm-13.5 34.219-28.012 15.32c-0.91797 0.49609-1.6719 1.25-2.168 2.1641l-15.32 28.012 0.003907 0.003906c-0.95313 1.7422-2.7852 2.8281-4.7734 2.8281s-3.8203-1.0859-4.7734-2.8281l-15.316-27.977c-0.5-0.91406-1.2539-1.6641-2.168-2.1641l-28.012-15.32c-1.7461-0.95312-2.8281-2.7852-2.8281-4.7734 0-1.9883 1.082-3.8164 2.8281-4.7695l28.012-15.328c0.91406-0.5 1.6641-1.25 2.168-2.1562l15.32-28.023h-0.003907c0.96094-1.7383 2.7891-2.8203 4.7734-2.8203s3.8125 1.082 4.7734 2.8203l15.32 28.023h-0.003906c0.5 0.91016 1.25 1.6602 2.168 2.1562l28.012 15.328c1.7266 0.95703 2.7969 2.7773 2.7969 4.7539 0 1.9727-1.0703 3.793-2.7969 4.75z"/>
  <path d="m324.89 47.812-8.625-4.6875-4.6875-8.6328c-3.582-6.5508-9.4062-11.59-16.402-14.199-6.9961-2.6055-14.695-2.6055-21.691 0-6.9961 2.6094-12.82 7.6484-16.402 14.199l-4.6875 8.6328-8.6445 4.6875c-6.5508 3.582-11.59 9.4062-14.199 16.402-2.6055 6.9961-2.6055 14.695 0 21.691 2.6094 6.9961 7.6484 12.82 14.199 16.402l8.6328 4.6875 4.6875 8.625c3.5859 6.5508 9.4062 11.59 16.402 14.199 6.9961 2.6055 14.699 2.6055 21.695 0 6.9961-2.6094 12.816-7.6484 16.402-14.199l4.6875-8.625 8.625-4.6875c6.5469-3.582 11.59-9.4062 14.195-16.402 2.6094-6.9961 2.6094-14.695 0-21.691-2.6055-6.9961-7.6484-12.82-14.195-16.402zm-13.492 29.785-15.102 8.2578c-0.5 0.26172-0.90625 0.66797-1.1719 1.1641l-8.25 15.102c-0.51562 0.9375-1.5 1.5156-2.5703 1.5156-1.0664 0-2.0508-0.57812-2.5664-1.5156l-8.2695-15.102c-0.26562-0.49219-0.67188-0.89844-1.1641-1.1641l-15.102-8.2578c-0.94141-0.51562-1.5234-1.5039-1.5234-2.5742 0-1.0703 0.58203-2.0586 1.5234-2.5742l15.102-8.2578c0.48828-0.27344 0.89062-0.67578 1.1641-1.1641l8.2578-15.102c0.51563-0.94141 1.5-1.5273 2.5703-1.5273s2.0547 0.58594 2.5703 1.5273l8.2578 15.102c0.27344 0.49219 0.67969 0.89453 1.1719 1.1641l15.102 8.2578c0.9375 0.51953 1.5156 1.5039 1.5156 2.5742 0 1.0703-0.57812 2.0547-1.5156 2.5742z"/>
  <path d="m187.21 177.66-16.023-8.7734-8.7656-16.023c-3.7422-6.8359-9.8203-12.098-17.125-14.82s-15.344-2.7227-22.648 0c-7.3047 2.7227-13.383 7.9844-17.125 14.82l-8.7656 16.023-16.031 8.7656c-6.8359 3.7422-12.098 9.8203-14.82 17.125s-2.7227 15.344 0 22.648c2.7227 7.3047 7.9844 13.383 14.82 17.125l16.031 8.7656 8.7656 16.031c3.7422 6.8359 9.8203 12.098 17.125 14.82 7.3047 2.7227 15.344 2.7227 22.648 0s13.383-7.9844 17.125-14.82l8.7656-16.031 16.023-8.7656c6.8359-3.7422 12.098-9.8203 14.82-17.121 2.7227-7.3047 2.7227-15.344 0-22.648-2.7227-7.3008-7.9844-13.379-14.82-17.121zm-13.492 32.215-22.152 12.113c-0.72266 0.39453-1.3164 0.99219-1.707 1.7148l-12.113 22.145c-0.75781 1.3594-2.1914 2.1992-3.75 2.1992-1.5547 0-2.9922-0.83984-3.75-2.1992l-12.121-22.145c-0.39062-0.72266-0.98438-1.3203-1.707-1.7148l-22.152-12.113c-1.3594-0.75781-2.2031-2.1953-2.2031-3.75 0-1.5586 0.84375-2.9922 2.2031-3.75l22.152-12.121c0.72266-0.39453 1.3125-0.98828 1.707-1.707l12.113-22.152c0.76172-1.3555 2.1953-2.1953 3.75-2.1953 1.5547 0 2.9883 0.83984 3.75 2.1953l12.113 22.152c0.39063 0.71875 0.98438 1.3125 1.7031 1.707l22.152 12.121h0.003907c1.3594 0.75391 2.2031 2.1914 2.207 3.7461 0 1.5586-0.83984 2.9922-2.1992 3.7539z"/>
 </g>
</svg>
