<svg width="124" height="124" viewBox="0 0 124 124" fill="none" xmlns="http://www.w3.org/2000/svg">
<g clip-path="url(#clip0_409_164)">
<path d="M71.0583 38.8985C81.8018 34.7985 85.1622 25.823 86.9143 17.2039L87.2006 15.7983L85.7729 15.6656C84.9988 15.5931 84.2223 15.5563 83.4605 15.5563C77.2508 15.5563 71.5854 17.9915 67.51 22.4159C63.5905 26.6671 61.4895 32.4075 61.6431 38.3309C43.2327 39.6578 28.6558 55.0604 28.6558 73.8062C28.6558 93.417 44.6125 109.374 64.2245 109.374C83.8365 109.374 99.7895 93.417 99.7895 73.8062C99.7895 56.5299 87.4107 42.0943 71.0583 38.8985ZM69.4021 24.1606C72.9874 20.2719 77.9794 18.1303 83.4605 18.1303C83.6669 18.1303 83.8721 18.1328 84.081 18.1389C82.0021 27.3281 77.8517 35.8207 64.2122 38.0471C64.1311 32.867 65.9839 27.8688 69.4021 24.1606ZM64.2245 106.798C46.0316 106.798 31.2311 91.9979 31.2311 73.805C31.2311 56.423 44.7427 42.1385 61.8151 40.8988L61.8212 40.9701L62.8275 40.8423C63.2907 40.8226 63.7551 40.8103 64.2245 40.8103C82.4162 40.8103 97.2155 55.6109 97.2155 73.8038C97.2155 91.9979 82.4162 106.798 64.2245 106.798Z" fill="white"/>
<path d="M120.719 59.6273C120.719 59.6273 123.735 31.6997 124.166 22.3495C124.341 18.6021 121.116 15.5476 117.364 15.5476C114.523 15.5476 112.274 17.3894 111.075 19.7877C109.713 22.5068 104.14 31.9774 103.193 42.2073C102.412 50.6359 105.317 56.9808 106.579 59.2808L103.102 100.884C103.102 106.691 107.826 111.416 113.633 111.416C119.443 111.416 124.166 106.69 124.166 100.884L120.719 59.6273ZM113.632 108.823C109.266 108.823 105.712 105.276 105.693 100.911L109.215 58.8385C109.215 58.8385 104.791 50.8485 105.772 42.4468C106.967 32.2084 113.619 20.4672 113.619 20.4672C114.311 19.0948 115.723 18.1401 117.363 18.1401C119.674 18.1401 121.553 20.0126 121.57 22.3188L118.114 59.604L121.571 100.909C121.555 105.276 118.001 108.823 113.632 108.823Z" fill="white"/>
<path d="M21.7617 58.4294C26.0645 55.9241 28.7234 51.4002 28.7234 46.3712L26.2574 19.3663C26.2574 17.4103 24.6675 15.8192 22.7127 15.8192C21.8182 15.8192 21.011 16.162 20.3868 16.7099C19.6435 15.9924 18.6372 15.5452 17.524 15.5452C16.4244 15.5452 15.4304 15.9826 14.6907 16.6854C13.9499 15.9826 12.9559 15.5452 11.8574 15.5452C10.7701 15.5452 9.7859 15.9764 9.04624 16.6657C8.43067 16.1472 7.64556 15.8204 6.77689 15.8204C4.82085 15.8204 3.22972 17.4115 3.22972 19.3676L0.746582 46.3712C0.746582 51.4002 3.40542 55.9241 7.70822 58.4294L4.20283 100.383C4.20283 106.191 8.92583 110.914 14.735 110.914C20.5429 110.914 25.2671 106.19 25.2671 100.383L21.7617 58.4294ZM14.735 108.322C10.3671 108.322 6.81252 104.775 6.79655 100.412L10.4113 56.8555L9.64091 56.5667C5.79027 54.6389 3.39068 50.7821 3.34644 46.4855L5.83941 19.2914C5.87873 18.8011 6.27805 18.419 6.77812 18.4104C7.75736 18.3932 7.75982 19.3651 7.75982 19.3651C7.75245 19.4683 7.76719 46.37 7.76719 46.37H10.3597V19.4806C10.4592 18.7274 11.0785 18.1364 11.8587 18.1364C12.6512 18.1364 13.2827 18.7483 13.3638 19.5199L13.4387 46.3737L16.0312 46.3663L15.987 19.6735H15.9882C15.9882 19.6723 15.9882 19.671 15.9882 19.6698C15.9907 18.8233 16.6787 18.1352 17.5253 18.1352C18.3731 18.1352 19.0623 18.8257 19.0623 19.6735L19.109 46.37H21.7015L21.7568 19.3651C21.7568 18.838 22.1856 18.4104 22.7115 18.4104C23.2116 18.4104 23.6096 18.8011 23.6477 19.2926L26.121 46.4855C26.078 50.7821 23.6784 54.6389 19.8266 56.5667L19.0365 56.998L22.6709 100.412C22.6574 104.776 19.1017 108.322 14.735 108.322Z" fill="white"/>
</g>
<defs>
<clipPath id="clip0_409_164">
<rect width="122.867" height="122.867" fill="white" transform="translate(0.746582 0.835571)"/>
</clipPath>
</defs>
</svg>
