<svg width="153" height="152" viewBox="0 0 153 152" fill="none" xmlns="http://www.w3.org/2000/svg">
<mask id="mask0_220_1170" style="mask-type:luminance" maskUnits="userSpaceOnUse" x="0" y="0" width="153" height="152">
<path d="M0.1875 0.595703H152.114V151.478H0.1875V0.595703Z" fill="white"/>
</mask>
<g mask="url(#mask0_220_1170)">
<mask id="mask1_220_1170" style="mask-type:luminance" maskUnits="userSpaceOnUse" x="0" y="0" width="153" height="152">
<path d="M76.13 0.587891C34.1736 0.587891 0.164062 34.3618 0.164062 76.0291C0.164062 117.696 34.1736 151.47 76.13 151.47C118.081 151.47 152.091 117.696 152.091 76.0291C152.091 34.3618 118.081 0.587891 76.13 0.587891Z" fill="white"/>
</mask>
<g mask="url(#mask1_220_1170)">
<path d="M0.164062 0.587891H152.23V151.47H0.164062V0.587891Z" fill="#72308A"/>
</g>
</g>
<path d="M46.6922 79.8613H52.24V96.8902H56.5668V101.624H52.24V107.814H46.8207L46.8422 101.624H33.9688V96.9973L46.6922 79.8613ZM39.1738 96.8902H46.8422V86.6515L39.1738 96.8902Z" fill="white"/>
<path d="M62.2705 79.8613H80.2204L80.0062 84.488H66.7258L66.1903 91.2353C67.2185 90.6516 68.1931 90.2286 69.1249 89.9716C70.0673 89.7145 71.0955 89.586 72.2093 89.586C74.0782 89.586 75.749 89.9394 77.2216 90.6356C78.705 91.3371 79.8777 92.3652 80.7345 93.7201C81.602 95.0802 82.0411 96.7296 82.0411 98.6681C82.0411 100.639 81.5913 102.347 80.6917 103.787C79.8027 105.217 78.5497 106.315 76.9217 107.086C75.2938 107.857 73.366 108.243 71.1383 108.243C69.3069 108.243 67.6094 107.954 66.0404 107.386C64.466 106.818 63.1059 106.037 61.9492 105.051C60.8032 104.066 59.9357 102.941 59.3359 101.667L63.7485 99.0536C64.2465 99.9426 64.8087 100.735 65.4406 101.431C66.0832 102.133 66.8169 102.69 67.6469 103.102C68.4716 103.504 69.4462 103.702 70.56 103.702C72.2308 103.702 73.5695 103.263 74.587 102.374C75.6151 101.474 76.1292 100.312 76.1292 98.8823C76.1292 97.9826 75.8989 97.1794 75.4438 96.4618C74.9832 95.7496 74.3567 95.1873 73.5588 94.7696C72.7556 94.3573 71.8238 94.1485 70.7528 94.1485C70.1798 94.1485 69.6389 94.202 69.1249 94.2984C68.6215 94.3841 68.1074 94.5661 67.5826 94.8339C67.0685 95.0909 66.4956 95.4711 65.869 95.9692C65.6816 96.0441 65.5531 96.0763 65.4835 96.0763C65.4085 96.0763 65.2746 96.0334 65.0765 95.9477L60.9853 94.0414L62.2705 79.8613Z" fill="white"/>
<path d="M92.5842 79.4395C93.9123 79.4395 95.1011 79.7982 96.1614 80.5105C97.2163 81.212 98.0517 82.1705 98.6675 83.3807C99.294 84.5963 99.61 85.9511 99.61 87.4505C99.61 88.9392 99.2994 90.2726 98.6889 91.4561C98.0892 92.6449 97.2538 93.5766 96.1828 94.2621C95.1225 94.9475 93.923 95.2902 92.5842 95.2902C91.2401 95.2902 90.0352 94.9475 88.9642 94.2621C87.904 93.5766 87.0632 92.6449 86.4367 91.4561C85.8209 90.2726 85.5156 88.9392 85.5156 87.4505C85.5156 85.9511 85.8209 84.5963 86.4367 83.3807C87.0632 82.1705 87.9147 81.212 88.9857 80.5105C90.0567 79.7982 91.2562 79.4395 92.5842 79.4395ZM92.5414 92.4414C93.5695 92.4414 94.3085 92.0023 94.7691 91.1133C95.2242 90.2298 95.4545 89.0088 95.4545 87.4505C95.4545 85.8387 95.2082 84.5749 94.7262 83.6592C94.255 82.7488 93.5267 82.2883 92.5414 82.2883C91.8988 82.2883 91.3633 82.4972 90.9349 82.9095C90.5172 83.3272 90.2066 83.9269 89.9924 84.7088C89.7782 85.4799 89.6711 86.3956 89.6711 87.4505C89.6711 88.9928 89.896 90.2137 90.3565 91.1133C90.8278 92.0023 91.5561 92.4414 92.5414 92.4414ZM110.941 92.3129C112.269 92.3129 113.458 92.6716 114.518 93.3839C115.589 94.1014 116.43 95.0653 117.046 96.2756C117.656 97.4911 117.967 98.8406 117.967 100.324C117.967 101.813 117.656 103.151 117.046 104.351C116.446 105.54 115.611 106.482 114.54 107.178C113.479 107.864 112.28 108.206 110.941 108.206C109.581 108.206 108.371 107.864 107.3 107.178C106.229 106.482 105.377 105.54 104.751 104.351C104.135 103.151 103.83 101.813 103.83 100.324C103.83 98.8406 104.14 97.4911 104.772 96.2756C105.399 95.0653 106.25 94.1014 107.321 93.3839C108.403 92.6716 109.613 92.3129 110.941 92.3129ZM110.898 105.293C111.552 105.293 112.098 105.095 112.526 104.694C112.955 104.297 113.265 103.724 113.469 102.98C113.683 102.241 113.79 101.368 113.79 100.367C113.79 99.2958 113.683 98.3747 113.469 97.6036C113.254 96.8325 112.933 96.2434 112.505 95.8257C112.076 95.4134 111.541 95.2046 110.898 95.2046C110.256 95.2046 109.72 95.4134 109.292 95.8257C108.874 96.2434 108.564 96.8432 108.349 97.625C108.135 98.3961 108.028 99.3118 108.028 100.367C108.028 101.368 108.124 102.241 108.328 102.98C108.542 103.724 108.863 104.297 109.292 104.694C109.72 105.095 110.256 105.293 110.898 105.293ZM112.548 79.568L93.7409 107.971L90.4208 107.928L109.27 79.568H112.548Z" fill="white"/>
<mask id="mask2_220_1170" style="mask-type:luminance" maskUnits="userSpaceOnUse" x="69" y="23" width="28" height="27">
<path d="M69.875 23.6797H96.0931V49.3515H69.875V23.6797Z" fill="white"/>
</mask>
<g mask="url(#mask2_220_1170)">
<path d="M87.8707 48.3585C87.7475 48.3585 87.6297 48.321 87.5333 48.2407L83.7045 45.0223L79.8757 48.2407C79.8435 48.2674 79.8061 48.2888 79.7739 48.3049C79.624 48.3799 79.4526 48.3799 79.3027 48.3049C79.1581 48.2299 79.051 48.0907 79.0242 47.9301L78.1567 43.0035H73.1551C72.9731 43.0035 72.7964 42.9071 72.7053 42.7464C72.6143 42.5858 72.6143 42.3876 72.7053 42.227L75.2061 37.8948L71.3773 34.6765C71.2327 34.5586 71.1631 34.3712 71.1952 34.1891C71.2273 34.0071 71.3559 33.8518 71.5326 33.7929L76.2289 32.0793L75.3614 27.158C75.3293 26.9813 75.3935 26.7993 75.5274 26.6761C75.6666 26.5476 75.8701 26.5101 76.0522 26.5743L80.7539 28.2879L83.2547 23.9558C83.3457 23.7951 83.5171 23.6934 83.7045 23.6934C83.8919 23.6934 84.0633 23.7951 84.1543 23.9558L86.6551 28.2879L91.3568 26.5743C91.5281 26.5154 91.7263 26.5476 91.8655 26.6654C92.0101 26.7885 92.0797 26.976 92.0476 27.158L91.1747 32.0793L95.8764 33.7929C96.0531 33.8518 96.1816 34.0071 96.2084 34.1891C96.2459 34.3712 96.1763 34.5586 96.0317 34.6765L92.2029 37.8948L94.7036 42.2216C94.7947 42.3823 94.7947 42.5858 94.7036 42.7464C94.6073 42.9071 94.4359 43.0035 94.2538 43.0035H89.2523L88.3848 47.9301C88.3526 48.1121 88.2241 48.2674 88.0474 48.3263C87.9885 48.3531 87.9296 48.3585 87.8707 48.3585ZM74.0601 41.9646H78.5958C78.8475 41.9646 79.0617 42.1467 79.1045 42.393L79.8917 46.8591L83.3671 43.9459C83.5653 43.7853 83.8437 43.7853 84.0365 43.9459L87.5119 46.8591L88.2991 42.393C88.3419 42.1467 88.5615 41.9646 88.8132 41.9646H93.3488L91.0783 38.034C90.9551 37.8198 91.0033 37.5414 91.1961 37.3754L94.6715 34.4623L90.4089 32.9093C90.1733 32.8236 90.0287 32.5773 90.0769 32.331L90.8641 27.8649L86.6015 29.4125C86.3659 29.4982 86.0982 29.4071 85.9696 29.1876L83.7045 25.257L81.434 29.1876C81.3108 29.4071 81.0431 29.5035 80.8074 29.4125L76.5449 27.8649L77.332 32.331C77.3749 32.5773 77.2357 32.8236 76.9947 32.9093L72.7375 34.4623L76.2128 37.3754C76.4056 37.5414 76.4538 37.8145 76.3253 38.034L74.0601 41.9646Z" fill="white"/>
</g>
<mask id="mask3_220_1170" style="mask-type:luminance" maskUnits="userSpaceOnUse" x="56" y="24" width="32" height="37">
<path d="M56.0391 24.6758H87.6764V60.6346H56.0391V24.6758Z" fill="white"/>
</mask>
<g mask="url(#mask3_220_1170)">
<path d="M79.0018 61.0524H68.49C67.0655 61.0524 65.9089 59.8957 65.9089 58.4766V55.6759H62.4495C61.3143 55.6759 60.3879 54.7549 60.3879 53.6196V47.8523H58.2512C57.4854 47.8523 56.6447 47.3918 56.2859 46.7813C56.0503 46.3743 56.0396 45.9299 56.2592 45.5389L59.1883 40.3499C59.1776 40.1036 59.1669 39.8519 59.1669 39.6163C59.1669 31.6641 65.6358 25.1953 73.5879 25.1953C76.5064 25.1953 79.3231 26.0628 81.7222 27.7068C81.9471 27.8621 82.0167 28.162 81.8774 28.3976L81.4223 29.1848C81.2991 29.4043 81.0314 29.5007 80.7957 29.415L76.5332 27.8621L77.3203 32.3282C77.3632 32.5799 77.224 32.8262 76.983 32.9119L72.7204 34.4595L76.1958 37.3779C76.3939 37.5386 76.4421 37.817 76.3136 38.0366L74.0484 41.9618H78.5841C78.8358 41.9618 79.05 42.1439 79.0929 42.3956L79.88 46.8616L83.3554 43.9485C83.5536 43.7825 83.832 43.7825 84.0248 43.9485L86.1882 45.7585C86.3756 45.9191 86.4292 46.1869 86.3114 46.4064C85.1922 48.5002 83.5589 50.2942 81.5829 51.6169V58.4712C81.5829 59.8957 80.4262 61.0524 79.0018 61.0524ZM73.5879 26.2395C66.2141 26.2395 60.2111 32.2371 60.2111 39.6163C60.2111 39.8841 60.2218 40.1625 60.2379 40.4463C60.2433 40.5427 60.2218 40.6445 60.1683 40.7302L57.1695 46.053C57.1481 46.0851 57.1213 46.1387 57.1909 46.2565C57.3569 46.5457 57.8657 46.8134 58.2512 46.8134H60.9126C61.2018 46.8134 61.4321 47.0437 61.4321 47.3329V53.6196C61.4321 54.1819 61.8873 54.6371 62.4495 54.6371H66.4283C66.7175 54.6371 66.9531 54.8673 66.9531 55.1565V58.4766C66.9531 59.3227 67.6439 60.0135 68.49 60.0135H79.0018C79.8533 60.0135 80.5387 59.3227 80.5387 58.4766V51.333C80.5387 51.1563 80.6297 50.9903 80.7797 50.8993C82.6004 49.7373 84.1158 48.1468 85.1868 46.2833L83.6928 45.0302L79.8586 48.2432C79.7194 48.361 79.5213 48.3985 79.3499 48.3342C79.1732 48.27 79.0447 48.1147 79.0125 47.9326L78.145 43.0114H73.1435C72.956 43.0114 72.7847 42.9096 72.6936 42.749C72.6026 42.5883 72.6026 42.3902 72.6936 42.2295L75.1944 37.8974L71.3602 34.6844C71.221 34.5612 71.1514 34.3738 71.1835 34.1917C71.2157 34.0096 71.3442 33.8597 71.5209 33.7954L76.2172 32.0818L75.3497 27.1606C75.3176 26.9839 75.3818 26.8018 75.5157 26.684C75.6549 26.5501 75.8584 26.5126 76.0405 26.5823L80.6726 28.2637C78.5466 26.9357 76.1101 26.2395 73.5879 26.2395Z" fill="white"/>
</g>
<path d="M83.703 39.1614C82.7659 39.1614 81.8823 38.7437 81.2879 38.0155C81.1059 37.7906 81.1434 37.4639 81.3629 37.2818C81.5878 37.0998 81.9145 37.1319 82.0965 37.3568C82.4928 37.8387 83.0765 38.1172 83.703 38.1172C84.3242 38.1172 84.9133 37.8387 85.3042 37.3568C85.4863 37.1319 85.8183 37.0998 86.0378 37.2818C86.2627 37.4639 86.2949 37.7906 86.1128 38.0155C85.5184 38.7437 84.6402 39.1614 83.703 39.1614Z" fill="white"/>
<path d="M82.5708 34.4908C82.4208 34.4908 82.2709 34.4266 82.1692 34.3034C81.9817 34.0731 81.7086 33.9446 81.4141 33.9446C81.1196 33.9446 80.8465 34.0731 80.659 34.3034C80.477 34.523 80.1503 34.5551 79.9254 34.373C79.7059 34.1909 79.6684 33.8643 79.8504 33.6447C80.236 33.1735 80.809 32.9004 81.4141 32.9004C82.0192 32.9004 82.5922 33.1735 82.9778 33.6447C83.1598 33.8643 83.1223 34.1909 82.9028 34.373C82.801 34.4533 82.6886 34.4908 82.5708 34.4908Z" fill="white"/>
<path d="M87.1457 34.4908C86.9958 34.4908 86.8458 34.4266 86.7441 34.3034C86.5566 34.0731 86.2835 33.9446 85.989 33.9446C85.6945 33.9446 85.4214 34.0731 85.234 34.3034C85.0519 34.523 84.7252 34.5551 84.5003 34.373C84.2808 34.1909 84.2486 33.8643 84.4307 33.6447C84.8109 33.1735 85.3839 32.9004 85.989 32.9004C86.5995 32.9004 87.1671 33.1735 87.5527 33.6447C87.7347 33.8643 87.7026 34.1909 87.4777 34.373C87.3813 34.4533 87.2635 34.4908 87.1457 34.4908Z" fill="white"/>
<path d="M83.7009 42.1318C80.338 42.1318 77.6016 39.3954 77.6016 36.0271C77.6016 32.6641 80.338 29.9277 83.7009 29.9277C87.0638 29.9277 89.8002 32.6641 89.8002 36.0271C89.8002 39.3954 87.0638 42.1318 83.7009 42.1318ZM83.7009 30.972C80.9109 30.972 78.6404 33.2425 78.6404 36.0324C78.6404 38.817 80.9109 41.0875 83.7009 41.0875C86.4909 41.0875 88.7614 38.817 88.7614 36.0324C88.7614 33.2425 86.4909 30.972 83.7009 30.972Z" fill="white"/>
</svg>
