<svg width="97" height="78" viewBox="0 0 97 78" fill="none" xmlns="http://www.w3.org/2000/svg">
  <path d="M16.2047 21.7235C15.1791 16.5168 17.3091 12.3751 24.133 8.15458C30.0497 4.44681 39.5163 1.13347 43.4213 0.502361C47.9575 -0.247083 51.9019 1.6068 54.4263 4.32847C56.9113 7.08958 58.7258 9.73236 59.9091 13.3612C61.408 17.9368 61.408 22.5518 57.3452 27.5218C53.8741 31.7818 44.368 38.8029 37.7019 41.8007C31.0358 44.7985 25.7108 41.5246 22.2002 35.8446C18.9658 30.6774 17.0725 26.2596 16.2047 21.7235Z" fill="white"/>
  <path d="M32.3768 45.745C33.1657 44.5617 34.2307 44.1672 36.0057 44.6406C37.544 45.035 39.7135 46.2578 40.2657 46.81C41.0546 47.5989 41.3307 48.3878 41.1729 49.6106C41.0546 50.5967 40.8179 51.425 40.3446 52.3717C39.6346 53.7522 38.6879 54.5806 37.3863 54.62C36.124 54.6595 33.4024 54.3439 31.9035 53.6734C30.3651 53.0028 30.2074 51.3856 30.7201 49.6106C31.154 47.9934 31.7062 46.7706 32.3768 45.745Z" fill="white"/>
  <path d="M10.4474 76.3937C4.2941 76.3937 2.08521 71.266 2.08521 66.8876C2.08521 62.5093 4.25465 57.3815 10.4474 57.3815C16.6008 57.3815 18.8097 62.5093 18.8097 66.8876C18.8097 71.266 16.6008 76.3937 10.4474 76.3937ZM10.4474 56.356C3.66299 56.356 0.546875 61.7993 0.546875 66.8482C0.546875 71.8971 3.62354 77.3404 10.4474 77.3404C17.2319 77.3404 20.348 71.8971 20.348 66.8482C20.348 61.7993 17.2713 56.356 10.4474 56.356Z" fill="white"/>
  <path d="M29.342 62.0358H27.1331V57.9336C27.1331 57.0264 26.6598 57.0264 26.4625 57.0264C26.2653 57.0264 25.792 57.0264 25.792 57.9336V61.9964H23.5831C23.2675 61.9964 23.0703 62.1147 23.0703 62.3908C23.0703 62.6669 23.2281 62.7853 23.5831 62.7853H25.792V76.4725C25.792 77.3797 26.2653 77.3797 26.4625 77.3797C26.6598 77.3797 27.1331 77.3797 27.1331 76.4725V62.8247H29.342C29.6575 62.8247 29.8548 62.7064 29.8548 62.4303C29.8548 62.1541 29.697 62.0358 29.342 62.0358Z" fill="white"/>
  <path d="M40.5453 70.5163C39.6775 70.2007 37.1925 69.2935 36.2459 68.9779C34.1948 68.2285 33.3664 67.1635 33.3664 65.6252C33.3664 63.2979 36.2853 61.8779 39.007 61.8779C40.7031 61.8779 42.5175 62.2329 44.0953 63.1007C44.8448 63.5346 44.2531 64.3629 43.5431 64.0079C42.3598 63.3768 41.4525 62.6668 39.0859 62.6668C36.9953 62.6668 34.8653 63.6135 34.8653 65.4674C34.8653 66.5324 35.6936 67.3213 36.9953 67.7551C37.3898 67.9129 40.2692 68.899 40.782 69.0963C43.4642 70.0429 45.042 71.1079 45.042 73.2379C45.042 75.7229 42.557 77.419 38.8098 77.419C35.6936 77.419 33.6031 76.0385 32.7353 75.1313C32.0253 74.4213 32.8931 73.6718 33.4848 74.2635C34.1159 74.8946 35.7725 76.5907 38.8886 76.5907C41.492 76.5907 43.5036 75.1707 43.5036 73.3168C43.5431 71.5024 41.9653 71.029 40.5453 70.5163Z" fill="white"/>
  <path d="M61.8836 61.8389C61.6864 61.8389 61.2131 61.8389 61.2131 62.7461V71.8578C61.2131 73.0805 61.1342 74.1061 60.5425 74.895C59.7536 75.9994 58.2153 76.5911 56.1248 76.5911C54.0736 76.5911 52.5748 75.9994 51.7464 74.8555C51.1942 74.0666 51.0364 73.0805 51.0364 71.8578V62.7461C51.0364 61.8389 50.5631 61.8389 50.3659 61.8389C50.1686 61.8389 49.6953 61.8389 49.6953 62.7461V72.3705C49.6953 75.4078 52.2198 77.38 56.1248 77.38C60.0298 77.38 62.5542 75.4078 62.5542 72.3705V62.7461C62.5542 61.8389 62.0809 61.8389 61.8836 61.8389Z" fill="white"/>
  <path d="M78.5304 77.0642C79.2404 77.577 79.5165 77.2614 79.6349 77.1037C79.7532 76.9459 80.0293 76.5909 79.3588 76.0387L70.6415 69.0176L79.1615 62.6275C79.6349 62.2725 79.4771 62.0359 79.3982 61.9176C79.3193 61.7992 79.1221 61.602 78.6488 61.957L69.0638 69.0176V55.6064C69.0638 54.6992 68.5904 54.6992 68.3932 54.6992C68.196 54.6992 67.7227 54.6992 67.7227 55.6064V76.4726C67.7227 77.3798 68.196 77.3798 68.3932 77.3798C68.5904 77.3798 69.0638 77.3798 69.0638 76.4726V69.4514C69.0638 69.4514 78.5304 77.0642 78.5304 77.0642Z" fill="white"/>
  <path d="M89.298 76.5517C84.9985 76.5517 83.3813 72.8044 83.3813 69.6094C83.3813 66.1383 85.2747 62.6672 89.298 62.6672C93.558 62.6672 95.0569 66.4144 95.0569 69.6094C95.0569 72.8044 93.558 76.5517 89.298 76.5517ZM95.7274 61.8389C95.5302 61.8389 95.0569 61.8783 95.0569 62.7461V65.9016C94.3469 63.8505 92.4141 61.8389 89.2191 61.8389C84.2097 61.8389 81.9219 65.8622 81.9219 69.6094C81.9219 73.3566 83.8547 77.38 89.298 77.38C92.6508 77.38 94.3863 75.2894 95.0963 73.3172V76.4728C95.0963 77.38 95.5697 77.38 95.7669 77.38C95.9641 77.38 96.4374 77.38 96.4374 76.4728V62.7066C96.398 61.8783 95.9247 61.8389 95.7274 61.8389Z" fill="white"/>
</svg>
