<svg width="99" height="99" viewBox="0 0 99 99" fill="none" xmlns="http://www.w3.org/2000/svg">
<path d="M30.7212 58.7896V27.0024H62.5002L71.9547 17.5479C71.6165 14.1324 68.7207 11.4429 65.2227 11.4429H33.7655C30.0447 11.4429 27.0005 14.4871 27.0005 18.2079V62.5021L30.7212 58.7896ZM45.728 17.9604H53.2685C53.7635 17.9604 54.1677 18.5296 54.1677 19.2309C54.1677 19.9321 53.7635 20.5014 53.2685 20.5014H45.728C45.233 20.5014 44.8287 19.9321 44.8287 19.2309C44.8287 18.5296 45.233 17.9604 45.728 17.9604Z" fill="#769C90"/>
<path d="M68.2743 36.399V71.9978H32.6838L27.0078 77.6738V80.7923C27.0078 84.513 30.0521 87.5573 33.7728 87.5573H65.2301C68.9508 87.5573 71.9951 84.513 71.9951 80.7923V32.6865L68.2743 36.399ZM49.4973 83.9603C47.1873 83.9603 45.3063 82.0875 45.3063 79.7693C45.3063 77.451 47.1791 75.5783 49.4973 75.5783C51.8073 75.5783 53.6883 77.451 53.6883 79.7693C53.6883 82.0875 51.8073 83.9603 49.4973 83.9603Z" fill="#769C90"/>
<path d="M10.0482 90.0569C9.19848 90.0569 8.34873 89.7351 7.70523 89.0834C6.41823 87.7881 6.42648 85.7009 7.72173 84.4139L84.2817 8.43961C85.577 7.15261 87.6642 7.16086 88.9512 8.45611C90.2382 9.75136 90.23 11.8386 88.9347 13.1256L12.3747 89.0999C11.7312 89.7351 10.8897 90.0569 10.0482 90.0569Z" fill="#73308A"/>
</svg>
