<svg width="153" height="152" viewBox="0 0 153 152" fill="none" xmlns="http://www.w3.org/2000/svg">
<mask id="mask0_220_1169" style="mask-type:luminance" maskUnits="userSpaceOnUse" x="0" y="0" width="153" height="152">
<path d="M0.398438 0.595703H152.464V151.478H0.398438V0.595703Z" fill="white"/>
</mask>
<g mask="url(#mask0_220_1169)">
<mask id="mask1_220_1169" style="mask-type:luminance" maskUnits="userSpaceOnUse" x="0" y="0" width="153" height="152">
<path d="M76.3825 0.587891C34.4314 0.587891 0.421875 34.3618 0.421875 76.0291C0.421875 117.696 34.4314 151.47 76.3825 151.47C118.339 151.47 152.348 117.696 152.348 76.0291C152.348 34.3618 118.339 0.587891 76.3825 0.587891Z" fill="white"/>
</mask>
<g mask="url(#mask1_220_1169)">
<path d="M0.421875 0.587891H152.488V151.47H0.421875V0.587891Z" fill="#72308A"/>
</g>
</g>
<path d="M46.0116 79.4844C47.768 79.4844 49.3852 79.8057 50.8739 80.4483C52.3573 81.0802 53.5621 82.0012 54.4939 83.2115C55.4203 84.411 55.9344 85.8568 56.0361 87.5383H50.8739C50.5312 86.3709 49.9582 85.4766 49.1603 84.8608C48.3571 84.2503 47.3503 83.9397 46.1401 83.9397C44.796 83.9397 43.6768 84.3253 42.7772 85.0964C41.8882 85.8568 41.2564 86.9171 40.8708 88.288C40.4852 89.6482 40.3835 91.2332 40.5709 93.0432C40.9993 92.4328 41.5402 91.908 42.1988 91.4796C42.8521 91.0512 43.5804 90.7245 44.3837 90.4942C45.1976 90.2533 46.0437 90.1301 46.9326 90.1301C48.8176 90.1301 50.4669 90.4889 51.8807 91.2011C53.3051 91.9026 54.4189 92.8933 55.2222 94.1785C56.0201 95.4637 56.4217 96.9738 56.4217 98.6981C56.4217 100.53 55.9719 102.163 55.0722 103.603C54.1726 105.033 52.9195 106.168 51.3237 107.009C49.7387 107.834 47.8858 108.251 45.776 108.251C43.4037 108.251 41.3527 107.684 39.6284 106.538C37.8988 105.381 36.5707 103.769 35.6443 101.697C34.7286 99.6299 34.2734 97.1933 34.2734 94.3927C34.2734 91.3243 34.734 88.6735 35.6657 86.4459C36.6082 84.2182 37.9577 82.5046 39.7141 81.3051C41.4706 80.0948 43.5697 79.4844 46.0116 79.4844ZM45.6046 94.3498C44.8014 94.3498 44.0302 94.5319 43.2912 94.8853C42.563 95.2441 41.9632 95.6939 41.492 96.2348C41.0207 96.781 40.7851 97.3379 40.7851 97.9056C40.769 99.164 40.9618 100.24 41.3635 101.14C41.7758 102.029 42.3488 102.714 43.077 103.196C43.8053 103.684 44.6407 103.925 45.5832 103.925C46.4935 103.925 47.3182 103.721 48.0465 103.303C48.7748 102.875 49.3531 102.291 49.7815 101.547C50.2206 100.792 50.4455 99.9351 50.4455 98.9766C50.4455 97.9377 50.2313 97.0809 49.8029 96.4062C49.3745 95.7207 48.7962 95.2066 48.0679 94.8639C47.3396 94.5212 46.515 94.3498 45.6046 94.3498Z" fill="white"/>
<path d="M59.9975 88.4808C59.9975 86.4673 60.4687 84.7965 61.4112 83.4685C62.3537 82.1405 63.6282 81.1498 65.2454 80.4911C66.8572 79.8217 68.6511 79.4844 70.6218 79.4844C72.7049 79.4844 74.5631 79.7575 76.191 80.2983C77.8189 80.8445 79.1041 81.6692 80.0466 82.7831C80.989 83.8862 81.4603 85.2838 81.4603 86.9814C81.4603 88.3683 81.0587 89.5893 80.2608 90.6442C79.4575 91.6884 78.1616 92.5184 76.3623 93.1289C77.3905 93.4181 78.3383 93.8518 79.2112 94.4355C80.0948 95.0085 80.8016 95.7529 81.3318 96.6632C81.8566 97.5628 82.1243 98.6445 82.1243 99.8976C82.1243 101.268 81.8137 102.479 81.2032 103.518C80.6035 104.562 79.7681 105.44 78.6971 106.152C77.6261 106.854 76.3891 107.384 74.9915 107.737C73.5884 108.08 72.089 108.251 70.4933 108.251C68.2495 108.235 66.3378 107.866 64.7527 107.138C63.1676 106.409 61.952 105.37 61.1113 104.01C60.2652 102.655 59.8315 101.049 59.8047 99.1908H65.2454C65.5131 100.776 66.1289 101.927 67.0875 102.639C68.0567 103.341 69.2081 103.689 70.5361 103.689C71.7035 103.689 72.7049 103.528 73.5349 103.196C74.3596 102.854 74.9968 102.382 75.4413 101.783C75.8804 101.183 76.1053 100.497 76.1053 99.7263C76.1053 98.9284 75.875 98.2429 75.4199 97.6699C74.9593 97.0862 74.3274 96.6311 73.5135 96.2991C72.6995 95.9724 71.7677 95.7957 70.7289 95.7636L68.0728 95.6565V91.1797L70.4718 91.0512C71.4679 91.0083 72.3407 90.8263 73.0851 90.4942C73.8401 90.1515 74.4238 89.7017 74.8415 89.1448C75.2538 88.5772 75.4627 87.9399 75.4627 87.2384C75.4627 86.553 75.2485 85.9639 74.8201 85.4605C74.4024 84.9625 73.8187 84.5716 73.0637 84.2825C72.3193 83.9986 71.4679 83.8541 70.5147 83.8541C69.615 83.8541 68.7904 84.004 68.0514 84.3039C67.307 84.593 66.6912 85.075 66.2093 85.7604C65.738 86.4352 65.4596 87.3402 65.3739 88.4808H59.9975Z" fill="white"/>
<path d="M92.6702 79.4395C93.9982 79.4395 95.187 79.7982 96.2473 80.5105C97.3022 81.212 98.1376 82.1705 98.7534 83.3807C99.38 84.5963 99.6959 85.9511 99.6959 87.4505C99.6959 88.9392 99.3853 90.2726 98.7748 91.4561C98.1751 92.6449 97.3397 93.5766 96.2687 94.2621C95.2084 94.9475 94.0089 95.2902 92.6702 95.2902C91.3261 95.2902 90.1212 94.9475 89.0502 94.2621C87.9899 93.5766 87.1492 92.6449 86.5226 91.4561C85.9068 90.2726 85.6016 88.9392 85.6016 87.4505C85.6016 85.9511 85.9068 84.5963 86.5226 83.3807C87.1492 82.1705 88.0006 81.212 89.0716 80.5105C90.1426 79.7982 91.3421 79.4395 92.6702 79.4395ZM92.6273 92.4414C93.6555 92.4414 94.3945 92.0023 94.855 91.1133C95.3102 90.2298 95.5404 89.0088 95.5404 87.4505C95.5404 85.8387 95.2941 84.5749 94.8122 83.6592C94.3409 82.7488 93.6126 82.2883 92.6273 82.2883C91.9847 82.2883 91.4492 82.4972 91.0208 82.9095C90.6031 83.3272 90.2925 83.9269 90.0783 84.7088C89.8641 85.4799 89.757 86.3956 89.757 87.4505C89.757 88.9928 89.9819 90.2137 90.4425 91.1133C90.9137 92.0023 91.642 92.4414 92.6273 92.4414ZM111.027 92.3129C112.355 92.3129 113.544 92.6716 114.604 93.3839C115.675 94.1014 116.516 95.0653 117.132 96.2756C117.742 97.4911 118.053 98.8406 118.053 100.324C118.053 101.813 117.742 103.151 117.132 104.351C116.532 105.54 115.697 106.482 114.626 107.178C113.565 107.864 112.366 108.206 111.027 108.206C109.667 108.206 108.457 107.864 107.386 107.178C106.315 106.482 105.463 105.54 104.837 104.351C104.221 103.151 103.916 101.813 103.916 100.324C103.916 98.8406 104.226 97.4911 104.858 96.2756C105.485 95.0653 106.336 94.1014 107.407 93.3839C108.489 92.6716 109.699 92.3129 111.027 92.3129ZM110.984 105.293C111.638 105.293 112.184 105.095 112.612 104.694C113.041 104.297 113.351 103.724 113.555 102.98C113.769 102.241 113.876 101.368 113.876 100.367C113.876 99.2958 113.769 98.3747 113.555 97.6036C113.34 96.8325 113.019 96.2434 112.591 95.8257C112.162 95.4134 111.627 95.2046 110.984 95.2046C110.342 95.2046 109.806 95.4134 109.378 95.8257C108.96 96.2434 108.649 96.8432 108.435 97.625C108.221 98.3961 108.114 99.3118 108.114 100.367C108.114 101.368 108.21 102.241 108.414 102.98C108.628 103.724 108.949 104.297 109.378 104.694C109.806 105.095 110.342 105.293 110.984 105.293ZM112.634 79.568L93.8268 107.971L90.5067 107.928L109.356 79.568H112.634Z" fill="white"/>
<mask id="mask2_220_1169" style="mask-type:luminance" maskUnits="userSpaceOnUse" x="58" y="23" width="37" height="38">
<path d="M58.5469 23.6797H94.4735V60.3186H58.5469V23.6797Z" fill="white"/>
</mask>
<g mask="url(#mask2_220_1169)">
<path d="M93.9982 42.3843C91.1655 39.3802 85.1357 37.0615 80.0806 42.1326C77.5423 40.1031 74.5543 40.0603 71.1056 41.5329L69.7455 33.6717C70.4952 33.7467 71.1592 33.5432 71.7429 33.072L71.7857 33.2059C71.8553 33.4254 71.9732 33.6128 72.1392 33.7735C72.3052 33.9341 72.4979 34.0412 72.7229 34.1001C72.9424 34.1644 73.1673 34.1644 73.3922 34.1162C73.6118 34.0627 73.8099 33.9609 73.9866 33.8056L77.778 30.3838C77.96 30.2124 78.11 30.0196 78.2171 29.7894C78.3242 29.5645 78.3831 29.3288 78.3991 29.0772C78.4152 28.8255 78.3831 28.5845 78.2974 28.3489C78.2171 28.1079 78.0939 27.8991 77.9279 27.7063L75.7966 25.2912C75.5396 24.9967 75.2451 24.761 74.9077 24.5683C74.5703 24.3808 74.2115 24.247 73.8313 24.1827C73.4511 24.1131 73.0709 24.1077 72.6907 24.172C72.3105 24.2309 71.9464 24.3541 71.609 24.5361L65.6114 27.7491C64.6636 28.2578 64.0531 29.0343 63.78 30.0732C62.2753 35.8084 59.6513 45.849 58.9284 48.6979C58.5428 50.2133 58.6713 51.3914 59.3032 52.2054C59.7691 52.7837 60.3742 53.1104 61.1132 53.1907C73.4297 61.6998 81.5479 58.1012 83.2186 57.1855C87.7757 59.0544 90.721 59.2954 93.6555 58.9527C93.8001 58.9259 93.9286 58.8509 94.025 58.7331C94.1214 58.6153 94.1696 58.4814 94.1696 58.3261V42.8181C94.1696 42.6521 94.1107 42.5075 93.9982 42.3843ZM64.0692 33.993C65.4775 34.9409 67.0251 35.3371 68.712 35.1819L68.9476 36.5313C66.8163 36.7455 64.6154 35.7334 63.7372 35.2675C63.8496 34.8391 63.9621 34.4107 64.0692 33.993ZM65.0117 30.3945C65.1884 29.7144 65.59 29.2057 66.2112 28.8737L72.2088 25.6607C72.6479 25.4197 73.1138 25.3501 73.6064 25.4358C74.0991 25.5268 74.5114 25.7571 74.8381 26.1319L76.9747 28.5524C77.0872 28.6809 77.1407 28.8308 77.13 29.0022C77.1193 29.1789 77.0497 29.3235 76.9212 29.4359L76.4339 29.8804L74.9345 28.1615L75.0041 27.8669C75.0469 27.7009 75.0201 27.5403 74.9291 27.3903C74.8381 27.2457 74.7096 27.1494 74.5382 27.1065C74.3722 27.0637 74.2115 27.0851 74.0616 27.1761C73.9117 27.2618 73.8153 27.3903 73.7671 27.5563C73.6975 27.9044 73.4458 28.4453 73.751 28.7451L75.486 30.7372L74.6614 31.4815L73.2744 29.7198C73.4136 29.543 73.4618 29.3449 73.4136 29.1254C73.3655 28.9058 73.2423 28.7451 73.0442 28.6488C72.8835 28.5791 72.7175 28.5738 72.5568 28.638C72.3908 28.7023 72.273 28.8148 72.2034 28.9808L71.9517 29.5591C71.8553 29.7947 71.8821 30.0089 72.0374 30.2071L73.7135 32.3383L73.1298 32.8631C73.0709 32.9167 73.0281 32.906 73.0013 32.8257L72.5836 31.4815C72.4872 31.1924 72.2837 31.0424 71.9785 31.0424C71.6679 31.0424 71.4698 31.187 71.368 31.4762C71.3198 31.6101 70.8807 32.7989 69.1457 32.2687C68.9208 32.1991 68.7173 32.2473 68.5406 32.4026C68.1229 32.7078 68.4656 33.5164 68.4924 33.9181C66.9769 34.0198 65.6168 33.6075 64.4173 32.6704C64.6261 31.8618 64.8296 31.096 65.0117 30.3945ZM83.4382 55.8896C83.224 55.7932 83.0205 55.8093 82.8277 55.9378C82.7474 55.986 74.6078 61.0411 61.6969 52.0447C61.2578 51.7716 60.9847 52.1358 60.2993 51.4128C59.9351 50.9309 59.8869 50.1009 60.1654 49.0084C60.6634 47.0378 62.0825 41.5971 63.4052 36.5367C64.4976 37.1204 67.1376 38.0896 69.1618 37.7897L70.2274 43.9426L68.396 44.8476C68.2407 44.9226 68.1336 45.0458 68.0747 45.2118C68.0212 45.3778 68.0265 45.5384 68.1068 45.6991C68.1872 45.8544 68.305 45.9615 68.471 46.0204C68.6423 46.0793 68.803 46.0686 68.9583 45.9882L71.2181 44.8744C71.5019 44.7352 71.6197 44.5049 71.5662 44.1943L71.3306 42.8288C73.8046 41.6935 75.9787 41.4847 77.7887 42.2237C80.4876 43.3322 81.5211 46.2239 81.5372 46.272C81.5961 46.4381 81.7032 46.5612 81.8585 46.6415C82.0191 46.7165 82.1798 46.7272 82.3458 46.6737C82.5118 46.6148 82.6349 46.5077 82.7153 46.347C82.7902 46.1917 82.801 46.0311 82.742 45.8597C82.3404 44.8048 81.7621 43.8569 81.007 43.0109C82.8652 41.2705 84.8519 40.3923 86.8547 40.4083C89.8963 40.4405 92.2579 42.4754 92.8951 43.0805V55.4773C88.413 55.5362 86.5548 53.5977 86.5227 53.5602C86.4049 53.4317 86.2603 53.3674 86.0836 53.3567C85.9122 53.3513 85.7623 53.4049 85.6337 53.5174C85.5052 53.6352 85.4303 53.7797 85.4195 53.9511C85.4088 54.1225 85.457 54.2778 85.5695 54.4063C85.457 54.4384 88.2095 56.9553 92.8951 56.7518V57.7639C89.5857 57.9406 86.4316 57.314 83.4382 55.8896Z" fill="white"/>
</g>
<path d="M88.6084 44.0918C88.7423 44.1989 88.8922 44.2471 89.069 44.2311C89.2403 44.2203 89.3849 44.1454 89.4974 44.0115C89.6098 43.883 89.658 43.7277 89.6473 43.5563C89.6366 43.385 89.567 43.2404 89.4331 43.1226C86.7556 40.6807 83.6658 42.6031 82.5841 44.1025C82.477 44.2471 82.4341 44.4024 82.4609 44.5738C82.4823 44.7505 82.568 44.8897 82.7072 44.9968C82.8464 45.1039 83.0017 45.1414 83.1785 45.12C83.3498 45.0932 83.4944 45.0129 83.5961 44.8737C84.2869 44.0008 85.1759 43.4546 86.2629 43.235C87.1733 43.1708 87.9551 43.4599 88.6084 44.0918Z" fill="white"/>
<path d="M80.814 53.5823C73.8632 57.138 68.0209 52.2061 67.7799 51.9972C67.6461 51.8848 67.4908 51.8366 67.3194 51.8526C67.1481 51.8633 67.0035 51.9383 66.891 52.0668C66.7786 52.2007 66.725 52.3506 66.7357 52.522C66.7464 52.6987 66.816 52.8433 66.9446 52.9558C69.0384 54.8354 75.5929 57.9198 81.3977 54.7175C81.5476 54.6319 81.6494 54.5087 81.7029 54.3427C81.7511 54.1767 81.7404 54.016 81.6601 53.8661C81.5798 53.7108 81.462 53.6037 81.2959 53.5502C81.1299 53.4966 80.9693 53.5073 80.814 53.5823Z" fill="white"/>
</svg>
