<svg width="158" height="207" viewBox="0 0 158 207" fill="none" xmlns="http://www.w3.org/2000/svg">
<g clip-path="url(#clip0_1492_3915)">
<path d="M79 207C122.631 207 158 195.077 158 180.37C158 165.663 122.631 153.741 79 153.741C35.3695 153.741 0 165.663 0 180.37C0 195.077 35.3695 207 79 207Z" fill="#CFDDBB"/>
<path d="M143.256 139.858C144.758 127.815 117.198 114.462 81.6971 110.035C46.1966 105.608 16.1997 111.782 14.6972 123.826C13.1946 135.87 40.7554 149.222 76.2559 153.649C111.756 158.076 141.753 151.902 143.256 139.858Z" fill="#769D91"/>
<path d="M81.6937 33.9508C101.564 30.6834 116.46 20.6675 114.965 11.5798C113.47 2.49211 96.1501 -2.22614 76.2799 1.04131C56.4097 4.30876 41.5137 14.3246 43.0087 23.4123C44.5037 32.5 61.8236 37.2183 81.6937 33.9508Z" fill="#C1C4D6"/>
<path d="M80.1153 108.468C112.483 106.641 138.223 96.32 137.608 85.4141C136.992 74.5082 110.254 67.1477 77.886 68.974C45.5182 70.8003 19.7778 81.1217 20.3934 92.0277C21.009 102.934 47.7474 110.294 80.1153 108.468Z" fill="#A87BC9"/>
<path d="M127.932 55.7693C128.635 46.6579 107.33 37.5851 80.3462 35.5045C53.3626 33.4239 30.9183 39.1234 30.2154 48.2348C29.5126 57.3462 50.8174 66.419 77.8011 68.4996C104.785 70.5802 127.229 64.8806 127.932 55.7693Z" fill="#8B85CA"/>
</g>
<defs>
<clipPath id="clip0_1492_3915">
<rect width="158" height="207" fill="white"/>
</clipPath>
</defs>
</svg>
