<svg width="68" height="78" viewBox="0 0 68 78" fill="none" xmlns="http://www.w3.org/2000/svg">
<path d="M57.8086 20.2803C57.5205 19.9922 57.1367 19.6085 56.7527 19.3203L57.7127 18.0722L58.2886 18.5522C58.8646 18.9362 59.6327 18.8403 60.0168 18.3603L61.7449 16.1521C62.129 15.5762 62.0331 14.8081 61.5531 14.424L54.6412 9.04775C54.0653 8.66368 53.2971 8.75962 52.9131 9.23962L51.2806 11.2562C50.8965 11.8321 50.9925 12.6003 51.4725 12.9843L52.0484 13.4643L50.8966 14.9043C47.4406 12.8884 43.5047 11.4484 39.5686 10.8725V8.08842H40.6245C41.6804 8.08842 42.5445 7.22434 42.5445 6.16842V2.2325C42.5445 1.17658 41.6804 0.3125 40.6245 0.3125H27.5685C26.5126 0.3125 25.6485 1.17658 25.6485 2.2325V6.16842C25.6485 7.22434 26.5126 8.08842 27.5685 8.08842H28.6244V10.8725C24.5926 11.5444 20.7526 12.8884 17.2964 14.9043L16.1446 13.4643L16.7205 12.9843C17.2964 12.6003 17.3924 11.7362 16.9124 11.2562L15.1842 9.04802C14.8001 8.47208 13.936 8.37615 13.456 8.85615L6.5442 14.2324C5.96827 14.6165 5.87233 15.4805 6.35233 15.9605L8.08049 18.1687C8.46455 18.7446 9.32865 18.8406 9.80865 18.3606L10.3846 17.8806L11.3446 19.1287C10.9605 19.4169 10.6727 19.8006 10.2887 20.0887C3.95275 26.4247 0.400665 34.8727 0.400665 43.8967C0.400665 52.9207 3.85659 61.3687 10.2887 67.7047C16.6246 74.0407 25.0727 77.5928 34.0967 77.5928C43.1207 77.5928 51.5687 74.1368 57.9047 67.7047C64.2406 61.3688 67.7927 52.9207 67.7927 43.8967C67.7924 34.8719 64.1445 26.6159 57.8087 20.2799L57.8086 20.2803ZM34.0006 72.6003C18.2566 72.6003 5.3926 59.7363 5.3926 43.9923C5.3926 28.2483 18.2566 15.3843 34.0006 15.3843C49.7446 15.3843 62.6086 28.2483 62.6086 43.9923C62.6086 59.8323 49.7446 72.6003 34.0006 72.6003Z" fill="#769C90"/>
<path d="M34 20.2812V67.8013C47.152 67.8013 57.808 57.1453 57.808 43.9933C57.808 30.9373 47.152 20.2812 34 20.2812Z" fill="#769C90"/>
</svg>
