<svg width="115" height="115" viewBox="0 0 115 115" fill="none" xmlns="http://www.w3.org/2000/svg">
<path d="M110.208 41.3675H70.15V16.9108C70.15 15.6402 69.645 14.4213 68.7465 13.5226C67.8481 12.6242 66.6292 12.1191 65.3583 12.1191H4.79167C3.52073 12.1191 2.30192 12.6241 1.40348 13.5226C0.505042 14.4214 0 15.6403 0 16.9108V57.0841C0 58.3547 0.504994 59.5736 1.40348 60.4723C2.30192 61.3708 3.52082 61.8758 4.79167 61.8758H7.5899V71.7783C7.59964 72.1384 7.71307 72.4884 7.91709 72.7853C8.12148 73.0825 8.40711 73.3142 8.7399 73.452C8.96413 73.5407 9.20185 73.5883 9.44293 73.5928C9.92508 73.5763 10.3825 73.3753 10.7206 73.0305L21.7347 61.8247H44.7347V86.3197C44.7347 87.594 45.2408 88.8159 46.1419 89.7169C47.043 90.6179 48.2648 91.1241 49.5391 91.1241H93.2008L104.215 102.33H104.215C104.555 102.669 105.012 102.865 105.493 102.879C105.732 102.874 105.969 102.831 106.195 102.751C106.536 102.61 106.827 102.37 107.032 102.063C107.237 101.756 107.346 101.396 107.345 101.026V91.124H110.156C111.438 91.1375 112.672 90.637 113.582 89.734C114.492 88.8315 115.002 87.6014 114.999 86.3196V46.1587C114.999 44.8878 114.494 43.669 113.596 42.7705C112.697 41.8717 111.478 41.367 110.207 41.367L110.208 41.3675ZM44.8375 46.1591V58.1191H21.0067C20.5249 58.1255 20.0652 58.3232 19.729 58.6687L11.3084 67.2428V60.0231C11.3223 59.5207 11.1314 59.0345 10.7799 58.6755C10.428 58.3165 9.94543 58.1158 9.44307 58.1192H4.7918C4.19209 58.1192 3.70582 57.6329 3.70582 57.0332V16.9107C3.70582 16.311 4.19209 15.8247 4.7918 15.8247H65.3585C65.9582 15.8247 66.4445 16.311 66.4445 16.9107V41.3674H49.642C48.3688 41.364 47.147 41.8671 46.2456 42.7663C45.3441 43.6651 44.8377 44.8859 44.8377 46.159L44.8375 46.1591ZM66.4441 45.0728V57.0845C66.4441 57.6842 65.9578 58.1705 65.3581 58.1705H48.5557V46.1597C48.5624 45.5578 49.0524 45.0734 49.6544 45.0734L66.4441 45.0728ZM111.294 86.3195C111.294 86.9214 110.81 87.4115 110.208 87.4182H105.544C105.052 87.4148 104.579 87.6091 104.231 87.9572C103.882 88.3054 103.688 88.7786 103.691 89.2712V96.452L95.2963 87.9292V87.9295C94.962 87.5814 94.5012 87.3834 94.0186 87.38H49.6411C49.0343 87.38 48.5424 86.8881 48.5424 86.2809V61.876H65.3573C66.6282 61.876 67.847 61.371 68.7455 60.4725C69.6439 59.5737 70.1489 58.3548 70.1489 57.0843V45.0735L110.207 45.0731C110.804 45.0802 111.287 45.5624 111.293 46.1595L111.294 86.3195Z" fill="#722F89"/>
</svg>
