<svg width="123" height="123" viewBox="0 0 123 123" fill="none" xmlns="http://www.w3.org/2000/svg">
<path fill-rule="evenodd" clip-rule="evenodd" d="M91.7104 35.8422C92.5716 33.3578 93.8261 31.3158 95.2038 29.1509C95.3512 29.028 95.5482 29.1264 95.4989 29.2494C94.2689 31.7342 92.9897 33.9972 93.0145 36.8016C93.0145 37.1951 93.0389 37.6136 93.113 38.0316C94.9336 37.8101 96.6308 36.2358 97.3688 34.7596C98.6725 32.103 98.4018 25.3872 98.3526 25.3872C98.2541 25.3135 91.4647 26.9371 89.8411 29.7414C88.4882 32.1029 88.7096 35.4486 90.8989 37.2936C90.9974 37.4165 91.0959 37.4657 91.194 37.5394C91.3417 36.9 91.5139 36.3342 91.7105 35.8421L91.7104 35.8422Z" fill="#769C90"/>
<path fill-rule="evenodd" clip-rule="evenodd" d="M50.9959 35.5471C49.9381 32.4721 48.3393 29.8892 46.568 27.1829C46.4203 26.9863 46.1252 27.1585 46.2481 27.3551C47.7732 30.3809 49.2987 33.2344 49.2987 36.7523C49.2987 37.2443 49.2495 37.7364 49.1758 38.253C46.9616 38.0315 44.8464 36.0637 43.9115 34.1694C42.2631 30.8978 42.6323 22.4844 42.7059 22.4844C42.8288 22.3859 51.2667 24.4279 53.3085 27.9457C55.0306 30.8485 54.7107 35.1043 52.0293 37.3677C51.8819 37.4413 51.759 37.5643 51.6361 37.6379C51.4391 36.9 51.1933 36.1621 50.9963 35.5471L50.9959 35.5471Z" fill="#769C90"/>
<path fill-rule="evenodd" clip-rule="evenodd" d="M39.0894 41.5987C37.1952 39.9014 35.0795 38.7451 32.7921 37.5151C32.5462 37.4415 32.3985 37.6629 32.6199 37.761C34.8829 39.2861 37.0971 40.639 38.4256 43.1483C38.6226 43.4926 38.7699 43.8125 38.9177 44.2554C37.343 44.9444 35.0796 44.4279 33.6774 43.4682C31.2666 41.8202 28.1667 35.8424 28.1916 35.7931C28.2901 35.6946 34.8829 33.7759 37.7858 35.3995C40.1229 36.7772 41.5002 39.8274 40.5409 42.5088C40.5164 42.6321 40.4672 42.7302 40.4424 42.8532C39.9259 42.3859 39.5078 41.9923 39.0895 41.5988L39.0894 41.5987Z" fill="#769C90"/>
<path fill-rule="evenodd" clip-rule="evenodd" d="M76.7046 68.6093C75.4502 65.9771 73.7525 63.837 71.7846 61.5985C71.6617 61.4015 71.4403 61.5985 71.514 61.7955C73.2361 64.354 74.9826 66.7155 75.3762 69.889C75.4006 70.3563 75.4006 70.7747 75.4006 71.2667C73.3838 71.2908 71.2682 69.7656 70.2103 68.1665C68.3897 65.387 67.7503 57.8099 67.7995 57.8099C67.9472 57.7114 75.7208 58.5727 77.9594 61.5243C79.8533 63.9599 80.001 67.7728 77.8609 70.1099C77.7376 70.2084 77.5902 70.3313 77.4917 70.4298C77.2211 69.7656 76.9752 69.1506 76.7046 68.6092L76.7046 68.6093Z" fill="#769C90"/>
<path fill-rule="evenodd" clip-rule="evenodd" d="M87.6006 74.3904C88.6336 72.8653 89.1505 71.2417 89.7407 69.5196C89.7652 69.3967 89.5686 69.2982 89.5193 69.4211C88.6585 71.2169 87.945 72.8897 86.1736 74.0456C85.9522 74.2426 85.6571 74.3162 85.362 74.464C84.5008 73.4062 84.5256 71.7333 85.0669 70.6755C85.9526 68.8061 90.3312 66.0506 90.3312 66.0998C90.4297 66.0998 93.1848 70.7491 92.3732 72.8892C91.7086 74.7098 89.47 76.0138 87.1329 75.5218C87.01 75.4725 86.8871 75.4233 86.813 75.4233C87.0593 75.0789 87.3543 74.7098 87.6006 74.3903L87.6006 74.3904Z" fill="#769C90"/>
<path fill-rule="evenodd" clip-rule="evenodd" d="M61.4267 27.8717C61.2053 27.724 61.0332 27.8225 60.9098 27.9206C59.0896 30.0118 57.2446 32.1027 57.2939 35.104C57.3924 37.1948 58.1796 38.9662 59.8524 39.5075C59.9754 38.3512 60.0002 37.2445 60.1968 36.1374C60.4919 34.883 60.8362 33.6282 61.2054 32.423C61.2054 32.3001 61.4024 32.3493 61.4024 32.4474C61.3527 34.0954 61.2054 35.8419 61.5249 37.4163C61.7219 38.1791 62.0414 38.8921 62.312 39.5812C64.354 39.0155 66.1497 36.8998 65.9776 34.7841C65.707 32.0042 63.6898 29.2983 61.4268 27.8717L61.4267 27.8717Z" fill="#769C90"/>
<path fill-rule="evenodd" clip-rule="evenodd" d="M85.2395 29.2248C85.1654 29.0526 84.9195 29.0278 84.7474 29.0771C82.1397 29.8891 79.4338 30.7499 77.9576 33.3821C76.9734 35.2027 76.7276 37.0965 77.9331 38.4743C78.5974 37.5149 79.2123 36.5556 79.9503 35.7436C80.836 34.7842 81.7216 33.923 82.7054 33.0622C82.8039 33.0129 82.9513 33.0622 82.8532 33.1607C81.9923 34.6121 81.0574 36.0386 80.4669 37.5886C80.221 38.3513 80.1225 39.0893 80.024 39.8272C82.0904 40.3685 84.649 39.458 85.559 37.5149C86.8139 34.9812 86.3955 31.66 85.2395 29.2248L85.2395 29.2248Z" fill="#769C90"/>
<path fill-rule="evenodd" clip-rule="evenodd" d="M63.7645 47.478C63.9123 47.3795 64.0352 47.4535 64.1581 47.5765C65.6832 49.2986 67.3068 51.0451 67.2575 53.5788C67.159 55.3009 66.5196 56.7767 65.0682 57.2688C65.0194 56.285 64.9457 55.3501 64.7735 54.44C64.5765 53.3574 64.2074 52.3488 63.9371 51.3158C63.9127 51.2173 63.7649 51.2173 63.7649 51.3158C63.8142 52.718 63.9127 54.1938 63.5928 55.5223C63.4694 56.1621 63.248 56.7523 63.0022 57.3181C61.3049 56.826 59.8043 55.0551 59.9764 53.3082C60.1485 50.9467 61.8214 48.7081 63.7645 47.4781L63.7645 47.478Z" fill="#769C90"/>
<path fill-rule="evenodd" clip-rule="evenodd" d="M36.7288 22.0909C36.9502 21.9432 37.1223 22.0417 37.196 22.1894C38.9673 24.2066 40.8616 26.2237 40.7631 29.1266C40.6894 31.193 39.8775 32.8658 38.2294 33.4316C38.1553 32.3245 38.1553 31.2423 37.9339 30.1352C37.7129 28.9296 37.3438 27.7244 36.9746 26.5681C36.9502 26.4452 36.8024 26.4452 36.8024 26.5681C36.8024 28.1917 36.9502 29.8889 36.5566 31.4144C36.4337 32.1523 36.163 32.8166 35.8431 33.4808C33.8752 32.9643 32.1287 30.8979 32.3008 28.8315C32.5466 26.1253 34.5638 23.5423 36.7287 22.0909L36.7288 22.0909Z" fill="#769C90"/>
<path fill-rule="evenodd" clip-rule="evenodd" d="M43.0994 49.815C43.37 49.7413 43.4681 49.8643 43.5422 50.0364C44.8707 52.3487 46.1251 54.735 45.3872 57.5149C44.9195 59.3843 43.7636 60.885 42.066 61.0327C42.2137 59.9749 42.4107 58.8678 42.4844 57.81C42.5336 56.5556 42.4107 55.3992 42.3615 54.1692C42.3615 54.0707 42.1893 54.0463 42.1645 54.1692C41.8201 55.6699 41.5495 57.3179 40.9101 58.72C40.5658 59.4335 40.1722 60.0237 39.7045 60.565C37.9824 59.5809 36.8017 57.2686 37.3922 55.3251C38.2038 52.7914 40.6886 50.725 43.0994 49.8149L43.0994 49.815Z" fill="#769C90"/>
<path fill-rule="evenodd" clip-rule="evenodd" d="M57.9085 55.2024C57.8592 55.1043 57.6623 55.1287 57.613 55.2516C56.2356 56.7523 54.9072 58.2529 54.9564 60.3686C55.0057 61.8937 55.5958 63.1237 56.8014 63.5665C56.8507 62.7301 56.8507 61.9186 57.0472 61.1065C57.2687 60.1965 57.4901 59.36 57.7359 58.4743C57.7359 58.3758 57.8837 58.3758 57.8837 58.4988C57.8837 59.6551 57.7852 60.8851 58.0558 62.0903C58.1543 62.6068 58.3509 63.0988 58.5723 63.591C60.0237 63.1974 61.2781 61.6968 61.1308 60.1717C60.9835 58.1793 59.5565 56.2603 57.9084 55.2025L57.9085 55.2024Z" fill="#769C90"/>
<path fill-rule="evenodd" clip-rule="evenodd" d="M85.6822 88.6585C85.928 88.5355 85.9773 88.3141 85.9281 88.1664C85.0916 85.4357 84.2307 82.6806 81.5738 81.18C79.7045 80.147 77.7853 79.9256 76.3588 81.1063C77.3181 81.7213 78.3023 82.41 79.1631 83.1971C80.1472 84.0828 81.008 85.0421 81.8938 85.977C81.943 86.0999 81.8938 86.1984 81.7216 86.1492C80.3194 85.2635 78.8432 84.2794 77.2933 83.6644C76.5554 83.3937 75.8175 83.2708 75.0547 83.2215C74.4397 85.2879 75.3746 87.9693 77.3181 88.9291C79.8518 90.1343 83.2467 89.79 85.6823 88.6585L85.6822 88.6585Z" fill="#769C90"/>
<path fill-rule="evenodd" clip-rule="evenodd" d="M98.7213 52.4225C98.5735 52.2255 98.4014 52.2255 98.2536 52.3485C95.8428 53.7262 93.4569 55.104 92.6694 57.9576C92.0544 59.9255 92.2758 61.8442 93.7272 62.8528C94.17 61.8442 94.5144 60.7864 95.1049 59.827C95.7199 58.6955 96.4086 57.6869 97.1469 56.6043C97.1962 56.555 97.3928 56.6043 97.2947 56.7028C96.7778 58.2279 96.1384 59.827 95.9658 61.4506C95.9169 62.2133 95.9413 62.9268 96.015 63.6892C98.0814 63.7628 100.419 62.3115 100.861 60.245C101.476 57.564 100.345 54.489 98.7212 52.4226L98.7213 52.4225Z" fill="#769C90"/>
<path fill-rule="evenodd" clip-rule="evenodd" d="M87.8967 37.4166C87.8474 37.2937 87.6997 37.343 87.626 37.4166C86.2238 38.4744 84.7972 39.6308 84.5266 41.525C84.3544 42.8287 84.6495 44.0094 85.6581 44.5508C85.8551 43.8129 85.978 43.1486 86.2731 42.4596C86.5438 41.7217 86.8881 40.9838 87.2817 40.2703C87.2817 40.1718 87.4294 40.2211 87.3802 40.2703C87.208 41.3281 86.9618 42.386 86.9866 43.4682C87.011 43.9355 87.0603 44.3783 87.208 44.8952C88.6102 44.7475 89.8894 43.5915 90.086 42.2875C90.1845 40.4673 89.1515 38.5731 87.8967 37.4167L87.8967 37.4166Z" fill="#769C90"/>
<path fill-rule="evenodd" clip-rule="evenodd" d="M56.1129 20.3197C55.9652 20.2705 55.8422 20.3197 55.8178 20.4675C55.0058 21.9682 54.1202 23.5917 54.6122 25.4123C55.0302 26.716 55.7685 27.6753 56.8752 27.7738C56.8015 27.0603 56.6045 26.3468 56.6045 25.5845C56.5801 24.7973 56.6045 23.9853 56.6782 23.1737C56.6782 23.1 56.8011 23.0752 56.826 23.1737C57.0229 24.2067 57.2688 25.2645 57.6379 26.2243C57.8594 26.6671 58.1545 27.0607 58.4499 27.4299C59.5814 26.7656 60.3934 25.1913 59.975 23.9121C59.3845 22.2389 57.7364 20.886 56.1128 20.3198L56.1129 20.3197Z" fill="#769C90"/>
<path fill-rule="evenodd" clip-rule="evenodd" d="M107.482 51.9307C107.581 51.8322 107.581 51.6849 107.507 51.5864C106.695 50.0609 105.883 48.4373 104.088 47.8472C102.833 47.4536 101.628 47.5765 100.865 48.4129C101.554 48.708 102.218 49.0031 102.833 49.3722C103.546 49.7903 104.186 50.2823 104.826 50.7993C104.85 50.8485 104.826 50.947 104.776 50.8977C103.768 50.5042 102.759 50.0858 101.775 49.9136C101.234 49.8399 100.791 49.8892 100.299 49.9136C100.152 51.2421 101.037 52.7672 102.39 53.1115C104.088 53.5787 106.105 52.9393 107.482 51.9307L107.482 51.9307Z" fill="#769C90"/>
<path fill-rule="evenodd" clip-rule="evenodd" d="M91.6365 21.4267C91.6365 21.279 91.4644 21.2297 91.3414 21.2297C89.3735 21.2297 87.3315 21.279 85.7572 22.7548C84.6501 23.8374 84.0844 25.0923 84.6501 26.2238C85.2651 25.7566 85.9293 25.1908 86.5936 24.7724C87.4056 24.3052 88.2172 23.9116 89.078 23.518C89.1517 23.4688 89.2502 23.5673 89.1517 23.6658C88.2416 24.4281 87.2823 25.1909 86.5936 26.1747C86.2737 26.6175 86.0771 27.134 85.8557 27.6261C87.1349 28.3888 89.0784 28.3396 90.1363 27.2081C91.4644 25.7319 91.9317 23.3704 91.6366 21.4269L91.6365 21.4267Z" fill="#769C90"/>
<path fill-rule="evenodd" clip-rule="evenodd" d="M69.4461 26.2236C69.2247 26.1743 69.1262 26.3221 69.1262 26.445C68.339 28.905 67.527 31.4142 68.7082 33.8987C69.5446 35.6208 70.8731 36.7767 72.4967 36.6294C72.1275 35.6452 71.7588 34.6859 71.5125 33.6281C71.2911 32.4966 71.1434 31.3407 70.9468 30.1843C70.9468 30.0858 71.1438 30.0121 71.2174 30.1106C71.734 31.5376 72.2997 33.0134 73.1853 34.2679C73.6282 34.8829 74.1447 35.3257 74.6611 35.7686C76.1618 34.563 76.8753 32.1278 75.8911 30.4058C74.6367 28.118 71.9553 26.6173 69.446 26.2237L69.4461 26.2236Z" fill="#769C90"/>
<path fill-rule="evenodd" clip-rule="evenodd" d="M69.2 19.2126C69.1756 18.9668 68.9542 18.9668 68.8064 18.9668C66.4445 19.3107 64.0338 19.6555 62.4102 21.7219C61.2787 23.0993 60.8607 24.7477 61.623 26.0513C62.3121 25.3626 63.0008 24.5999 63.7631 23.9849C64.6488 23.3206 65.5589 22.7057 66.5182 22.1155C66.5923 22.0414 66.6908 22.1399 66.6171 22.2136C65.6822 23.2962 64.6488 24.4029 63.9845 25.6085C63.591 26.2235 63.4188 26.8385 63.2959 27.4779C64.9443 28.2406 67.281 27.8719 68.3636 26.322C69.741 24.3293 69.8643 21.4264 69.2 19.2127L69.2 19.2126Z" fill="#769C90"/>
<path fill-rule="evenodd" clip-rule="evenodd" d="M106.621 39.8766C106.695 39.6552 106.547 39.483 106.4 39.4337C103.841 38.2529 101.234 36.9986 98.4045 38.0315C96.3873 38.6714 94.9359 39.9751 94.8867 41.7707C95.9938 41.5001 97.1253 41.2294 98.2568 41.1065C99.536 40.9836 100.815 40.9836 102.095 40.9836C102.217 40.9836 102.292 41.1557 102.119 41.1806C100.569 41.5986 98.8474 42.0414 97.4203 42.8286C96.7073 43.1977 96.1166 43.665 95.5509 44.2063C96.7073 46.0021 99.2653 47.1336 101.234 46.2971C103.915 45.2641 105.883 42.5334 106.621 39.8764L106.621 39.8766Z" fill="#769C90"/>
<path fill-rule="evenodd" clip-rule="evenodd" d="M16.8274 40.3687C16.5815 40.2702 16.3601 40.4672 16.286 40.6638C14.859 43.9358 13.3339 47.3059 14.6624 50.9712C15.5237 53.4808 17.221 55.3258 19.5333 55.3503C19.1645 53.8989 18.7709 52.5211 18.5987 51.0209C18.3773 49.3973 18.3529 47.7489 18.3529 46.1009C18.3529 45.978 18.5743 45.9039 18.5987 46.0765C19.2137 48.0937 19.8043 50.283 20.8373 52.128C21.3294 53.0137 21.9196 53.7516 22.6086 54.4403C24.8716 52.9396 26.2494 49.668 25.1671 47.134C23.7645 43.7883 20.173 41.3039 16.8274 40.369L16.8274 40.3687Z" fill="#769C90"/>
<path fill-rule="evenodd" clip-rule="evenodd" d="M26.2492 65.2392C26.2 64.9686 26.3229 64.7964 26.4951 64.7472C29.2506 63.468 32.1042 62.1394 35.2284 63.1729C37.3933 63.9108 38.9184 65.2886 39.0413 67.2808C37.8357 67.0102 36.5569 66.6903 35.3513 66.5429C33.9739 66.42 32.547 66.3956 31.1448 66.42C31.0463 66.42 31.0219 66.5922 31.1204 66.6414C32.8425 67.1335 34.7119 67.5763 36.3111 68.4127C37.0982 68.8556 37.7133 69.3721 38.2542 69.913C37.0978 71.8809 34.2934 73.0865 32.1042 72.2008C29.2506 71.0449 27.1105 68.068 26.2492 65.2392H26.2492Z" fill="#769C90"/>
<path fill-rule="evenodd" clip-rule="evenodd" d="M43.1739 85.0423C42.9033 85.0423 42.7803 84.8209 42.7559 84.5995C42.1653 81.3031 41.5751 77.933 43.6416 74.9317C45.0686 72.8897 46.9624 71.6109 49.1029 72.1274C48.4382 73.3082 47.7003 74.5137 47.2083 75.8174C46.6918 77.2444 46.2489 78.6958 45.8554 80.2209C45.8554 80.3194 45.9783 80.4423 46.0768 80.3194C47.0854 78.5973 48.094 76.7771 49.521 75.3502C50.136 74.6611 50.8984 74.1446 51.6611 73.6526C53.3584 75.5468 53.7768 78.8184 52.2761 80.8849C50.1853 83.5419 46.3968 84.9441 43.174 85.0425L43.1739 85.0423Z" fill="#769C90"/>
<path fill-rule="evenodd" clip-rule="evenodd" d="M91.6363 61.5247C91.6363 61.4018 91.6118 61.3033 91.5133 61.3033C90.4062 60.6883 89.2747 60.0981 87.9462 60.4917C87.0113 60.7375 86.3719 61.2544 86.2734 62.1153C86.8148 61.9924 87.282 61.8939 87.8477 61.8695C88.3891 61.8695 88.9792 61.8695 89.545 61.8939C89.6435 61.8939 89.6435 61.9676 89.545 61.9924C88.8319 62.189 88.0447 62.3123 87.3805 62.6074C87.0606 62.804 86.8148 63.001 86.5441 63.1731C87.0362 64.0095 88.094 64.5753 89.1026 64.2802C90.2834 63.8618 91.1934 62.6566 91.6363 61.5247L91.6363 61.5247Z" fill="#769C90"/>
<path fill-rule="evenodd" clip-rule="evenodd" d="M108.682 65.0917C108.755 64.944 108.682 64.7966 108.534 64.7966C106.837 63.8617 105.065 62.9272 102.975 63.5174C101.622 63.911 100.515 64.7718 100.416 66.0266C101.203 65.9037 101.99 65.7315 102.827 65.6823C103.737 65.633 104.623 65.6579 105.558 65.7315C105.631 65.7315 105.656 65.8793 105.558 65.8793C104.426 66.1251 103.171 66.3465 102.113 66.8386C101.671 67.1089 101.203 67.3795 100.81 67.7487C101.548 69.0524 103.319 69.9132 104.77 69.3967C106.591 68.7573 108.091 66.8875 108.682 65.0917L108.682 65.0917Z" fill="#769C90"/>
<path fill-rule="evenodd" clip-rule="evenodd" d="M36.5323 87.3055C36.6552 87.404 36.803 87.404 36.8766 87.3055C38.4513 86.2477 40.0993 85.1898 40.5177 83.1971C40.8621 81.8194 40.6162 80.5401 39.5828 79.8514C39.3614 80.5893 39.0663 81.3521 38.7708 82.0163C38.4265 82.8279 37.9837 83.5414 37.4427 84.3286C37.4427 84.3778 37.3198 84.3286 37.3691 84.2301C37.7134 83.1723 38.0333 82.0159 38.0577 80.9337C38.1314 80.3924 38.0333 79.9007 37.9841 79.3838C36.5083 79.3838 34.9828 80.4909 34.7121 81.9423C34.4414 83.7877 35.3515 85.903 36.5323 87.3055L36.5323 87.3055Z" fill="#769C90"/>
<path fill-rule="evenodd" clip-rule="evenodd" d="M54.9319 85.7557C55.0055 85.8294 55.104 85.805 55.1529 85.7309C55.9893 84.8208 56.8502 83.8615 56.8257 82.4345C56.8257 81.5244 56.4569 80.7621 55.719 80.4666C55.6449 81.0079 55.6449 81.4752 55.4976 82.0165C55.3743 82.5578 55.2021 83.1728 55.0792 83.6893C55.0299 83.7385 54.9318 83.7385 54.9318 83.6645C55.0055 82.9514 55.0299 82.1642 54.8826 81.4015C54.8085 81.0816 54.7104 80.7621 54.5134 80.4421C53.6277 80.6636 52.8161 81.6229 52.8654 82.5822C53.0128 83.8859 53.8984 85.1407 54.9318 85.7557L54.9319 85.7557Z" fill="#769C90"/>
<path fill-rule="evenodd" clip-rule="evenodd" d="M108.487 54.9073C108.389 54.8088 108.266 54.7107 108.192 54.7595C106.397 55.055 104.576 55.4486 103.445 57.0473C102.657 58.1544 102.387 59.3844 103.027 60.3685C103.543 59.8272 104.011 59.1877 104.576 58.7206C105.191 58.1792 105.855 57.7116 106.52 57.1706C106.544 57.1214 106.667 57.2199 106.618 57.2936C105.979 58.1544 105.191 58.9909 104.773 59.975C104.502 60.4178 104.379 60.8851 104.306 61.4016C105.634 61.9181 107.332 61.5245 108.069 60.3193C109.102 58.7694 109.029 56.5556 108.487 54.9072L108.487 54.9073Z" fill="#769C90"/>
<path fill-rule="evenodd" clip-rule="evenodd" d="M90.9464 83.4186C91.0201 83.3449 91.0201 83.2709 90.9464 83.1972C90.2821 82.1149 89.5442 81.0815 88.1909 80.762C87.2564 80.5406 86.3951 80.7127 85.9523 81.4014C86.4199 81.5243 86.9609 81.6965 87.3793 81.9179C87.945 82.213 88.4616 82.4344 88.9292 82.7788C88.9292 82.828 88.9292 82.8773 88.8555 82.8773C88.1909 82.6807 87.4285 82.4593 86.6906 82.3608C86.297 82.3608 85.9771 82.41 85.6328 82.4593C85.6328 83.4678 86.3707 84.4764 87.3301 84.6242C88.6338 84.8456 90.0359 84.2306 90.9464 83.4185L90.9464 83.4186Z" fill="#769C90"/>
<path fill-rule="evenodd" clip-rule="evenodd" d="M22.7062 75.7189C22.6077 75.8174 22.6077 75.9403 22.6817 76.0388C23.764 77.7853 24.871 79.5811 27.0359 80.098C28.4629 80.4916 29.8651 80.295 30.6274 79.1879C29.8403 78.8924 29.0531 78.6466 28.3148 78.253C27.4784 77.835 26.6668 77.3181 25.8792 76.7772C25.8055 76.7772 25.83 76.6295 25.9285 76.6787C27.1093 77.0723 28.3148 77.4414 29.52 77.5644C30.0613 77.5888 30.6023 77.5644 31.1192 77.4414C31.2177 75.9159 30.0862 74.2431 28.5363 73.8988C26.5191 73.5297 24.1824 74.3909 22.7062 75.719L22.7062 75.7189Z" fill="#769C90"/>
<path fill-rule="evenodd" clip-rule="evenodd" d="M55.4005 40.3687C55.302 40.3195 55.1543 40.3932 55.1054 40.4916C54.1705 42.1401 53.2604 43.8128 53.7032 45.83C54.0724 47.1829 54.9089 48.2409 56.0647 48.3886C55.9662 47.6258 55.8433 46.8387 55.8185 46.0759C55.7941 45.2151 55.8433 44.3046 55.917 43.4682C55.9414 43.3946 56.0399 43.3946 56.0399 43.4682C56.2613 44.5509 56.4583 45.7073 56.9012 46.7403C57.1226 47.2323 57.4177 47.6503 57.7132 48.044C58.9924 47.429 59.9274 45.7068 59.4597 44.354C58.9183 42.5338 57.1226 41.0575 55.4004 40.3688L55.4005 40.3687Z" fill="#769C90"/>
<path fill-rule="evenodd" clip-rule="evenodd" d="M54.2678 57.1211C54.2678 56.9982 54.1201 56.9734 54.0464 56.9734C52.8164 57.0719 51.5372 57.1211 50.6022 58.1542C49.9628 58.8184 49.6673 59.7041 50.0365 60.4176C50.4056 60.0484 50.7744 59.7041 51.2173 59.4334C51.7586 59.0643 52.2014 58.794 52.718 58.5478C52.7916 58.4985 52.8409 58.5722 52.8164 58.5722C52.2751 59.0891 51.6602 59.6548 51.2172 60.2698C51.0207 60.5897 50.9222 60.8848 50.8237 61.2047C51.6601 61.6968 52.8657 61.549 53.4807 60.7863C54.3171 59.827 54.5137 58.3263 54.2678 57.1211L54.2678 57.1211Z" fill="#769C90"/>
<path fill-rule="evenodd" clip-rule="evenodd" d="M18.9422 72.5945C18.9174 72.693 18.9666 72.7671 19.0159 72.7671C20.2215 73.2836 21.4515 73.7513 22.6567 73.2344C23.5175 72.89 24.1574 72.275 24.1574 71.4386C23.6901 71.5615 23.1244 71.7336 22.6816 71.8321C22.091 71.9058 21.5008 71.9306 20.9103 71.9795C20.8858 71.9795 20.861 71.9058 20.8858 71.881C21.6486 71.6352 22.4109 71.3889 23.0015 71.0202C23.2718 70.848 23.5425 70.5773 23.7639 70.3559C23.1981 69.5687 22.0666 69.1751 21.181 69.5687C20.0495 70.1101 19.2131 71.3893 18.9424 72.5945H18.9422Z" fill="#769C90"/>
<path fill-rule="evenodd" clip-rule="evenodd" d="M25.6337 29.1757C25.4863 29.2249 25.4863 29.2986 25.4863 29.3723C25.6833 30.8481 25.9536 32.3244 27.2328 33.2837C28.0692 33.9479 29.0534 34.1938 29.8405 33.7265C29.4221 33.3085 28.9793 32.8901 28.6105 32.4228C28.1921 31.9063 27.7741 31.365 27.4049 30.7992C27.3805 30.7499 27.4049 30.7007 27.4786 30.7255C28.1673 31.2668 28.8071 31.9063 29.6187 32.2754C29.9879 32.4964 30.3814 32.5949 30.7013 32.7179C31.1686 31.6849 30.8735 30.2579 29.9878 29.5937C28.7578 28.7821 26.9869 28.7328 25.6336 29.1757L25.6337 29.1757Z" fill="#769C90"/>
<path fill-rule="evenodd" clip-rule="evenodd" d="M25.0189 35.5471C24.896 35.4242 24.7975 35.4487 24.7482 35.5471C23.3708 36.4572 22.0672 37.4414 21.7228 39.2123C21.5014 40.3686 21.7965 41.4757 22.6822 41.9922C22.9036 41.4017 23.0021 40.7379 23.2727 40.1229C23.5434 39.4586 23.8877 38.77 24.2569 38.1302C24.3057 38.1057 24.4287 38.1057 24.355 38.1546C24.158 39.1143 23.9122 40.0737 23.9122 41.0574C23.9122 41.5002 23.9858 41.943 24.0351 42.3611C25.3143 42.2874 26.5936 41.3033 26.7165 40.0488C26.9623 38.4252 26.1259 36.6543 25.0189 35.5472L25.0189 35.5471Z" fill="#769C90"/>
<path fill-rule="evenodd" clip-rule="evenodd" d="M17.5663 64.3044C17.5418 64.4273 17.6399 64.5258 17.7632 64.575C19.6326 65.2885 21.5024 66.0757 23.4953 65.2393C24.8726 64.6735 25.8319 63.6894 25.7826 62.4101C25.0199 62.6559 24.2575 62.9022 23.3963 63.0251C22.5355 63.1728 21.6498 63.2221 20.7149 63.2713C20.6657 63.2713 20.6164 63.1728 20.6905 63.1728C21.7976 62.73 22.9535 62.4101 23.9869 61.7706C24.4542 61.5 24.8478 61.1064 25.1925 60.7372C24.3069 59.532 22.4863 58.8678 21.0597 59.532C19.3128 60.3685 17.9847 62.41 17.5663 64.3043L17.5663 64.3044Z" fill="#769C90"/>
<path fill-rule="evenodd" clip-rule="evenodd" d="M78.2043 20.4673C78.0565 20.4181 77.9336 20.4673 77.8599 20.5658C76.5314 22.1401 75.2766 23.8374 75.4736 26.0023C75.6214 27.5274 76.2852 28.7822 77.4908 29.151C77.4908 28.3146 77.4908 27.503 77.6386 26.6173C77.7863 25.7072 78.0077 24.7479 78.1799 23.8866C78.2043 23.8374 78.3276 23.8374 78.3276 23.8866C78.3769 25.0922 78.3769 26.3958 78.7456 27.5766C78.8441 28.0931 79.09 28.5852 79.3851 29.0773C80.8365 28.5852 82.0665 26.9616 81.8207 25.4117C81.5008 23.3701 79.9016 21.4759 78.2044 20.4673L78.2043 20.4673Z" fill="#769C90"/>
<path fill-rule="evenodd" clip-rule="evenodd" d="M82.4109 45.879C82.2139 45.7805 82.091 45.7805 81.9929 45.9278C80.6888 47.8961 79.3115 49.8885 79.7051 52.6684C80.0246 54.6119 80.8859 56.2107 82.3617 56.7768C82.3373 55.719 82.214 54.6611 82.288 53.6277C82.3617 52.4221 82.5339 51.2662 82.7309 50.1099C82.7309 50.0363 82.8786 50.0607 82.8786 50.1592C83.0508 51.6843 83.1244 53.3079 83.6165 54.8085C83.7887 55.4972 84.0838 56.1614 84.4529 56.7764C86.0765 56.2599 87.2822 54.2179 86.9373 52.25C86.396 49.6919 84.4281 47.2319 82.4109 45.879L82.4109 45.879Z" fill="#769C90"/>
<path d="M101.943 61.8443C100.737 62.5086 99.5319 63.4679 98.6711 64.575C97.8347 65.6328 97.146 66.7892 96.5554 67.9943C96.0389 68.9044 95.5712 69.8149 95.1284 70.725V70.2085C95.1284 68.4372 94.8825 66.8384 94.907 65.0671C94.9314 64.6735 94.9314 64.2551 94.9806 63.8371C94.9806 63.665 94.9806 63.468 95.0543 63.2958C95.0787 63.0744 95.0787 62.853 95.0787 62.6808C95.1032 62.5331 94.931 62.4594 94.8817 62.6071C94.734 62.7549 94.6359 62.927 94.5618 63.0992C94.5134 63.2714 94.4645 63.468 94.366 63.6894C94.2675 64.083 94.2183 64.5258 94.1446 64.9194C94.0461 65.7806 94.0461 66.5922 93.9724 67.4531C93.9232 68.3139 93.9724 69.1996 93.9232 70.0116C93.9232 70.4544 93.9232 70.8724 93.8739 71.266C93.8739 71.463 93.8739 71.7088 93.8247 71.8317V72.1268V72.1761L93.751 72.2005C93.751 72.2249 93.751 72.2742 93.7266 72.3234V72.3727C93.7018 72.7422 93.6281 73.0865 93.4804 73.4557C93.3326 73.6523 93.1853 73.8493 93.0375 73.997C93.0131 74.0951 92.9883 74.1443 92.8898 74.1936C92.8898 74.2428 92.8898 74.2428 92.8654 74.2428C92.7917 74.3906 92.6439 74.4887 92.5454 74.6364C92.2504 74.9071 92.0289 75.1037 91.8075 75.3007C91.709 75.4236 91.5369 75.4728 91.4384 75.5713C91.3647 75.6694 91.3155 75.7187 91.2174 75.7679C91.1929 75.7679 91.1929 75.8172 91.1681 75.8172C90.5531 76.2352 89.8889 76.5551 89.2494 76.7765C89.1509 76.8258 89.0772 76.875 89.0036 76.875C89.0528 76.875 88.8558 76.9487 88.8066 76.9487C88.634 77.072 88.4126 77.072 88.0931 77.1701C87.6503 77.2442 87.1582 77.3671 86.6909 77.4163C86.174 77.49 85.6823 77.5637 85.2395 77.5885H85.1166H85.0181H84.6489C84.4275 77.6378 84.1324 77.6378 83.8862 77.6378C80.8853 77.7359 77.7362 77.5885 74.8582 78.4986C76.3833 77.3423 78.0069 76.1615 79.4339 74.8578C81.1067 73.185 82.4352 71.2415 83.1731 69.0029C83.4433 68.462 83.5911 67.8958 83.6896 67.2808C84.0587 65.7557 84.4275 64.2058 85.0673 62.6559C85.1161 62.5578 85.1902 62.3856 85.2639 62.2135C85.2883 62.189 85.2883 62.189 85.2883 62.1398C85.2883 62.1154 85.2883 62.1154 85.3376 62.1154C85.3624 62.0165 85.3868 61.9428 85.4361 61.8443C85.5838 61.5492 85.756 61.2541 85.9281 60.9835C86.2725 60.4421 86.5924 59.9749 86.9859 59.4828C87.0104 59.4335 87.0352 59.3843 87.0596 59.3598C87.1333 59.3106 87.1581 59.2858 87.1581 59.2858C87.2073 59.1384 87.3547 59.0399 87.4532 58.9414C87.6254 58.6956 87.8468 58.4986 88.0682 58.2772C88.5354 57.7851 89.0031 57.3671 89.4459 56.8995C89.9872 56.383 90.553 55.8421 91.0202 55.3007C91.6352 54.612 92.2258 53.8985 92.7175 53.1114C93.5539 51.7337 93.9231 50.1593 93.849 48.5606C93.7261 47.0599 93.3077 45.6085 92.8648 44.1327C92.7915 43.9601 92.7175 43.788 92.693 43.6158C92.6682 43.5665 92.6682 43.5421 92.6682 43.4929C92.6682 43.4684 92.6682 43.4192 92.6438 43.3944C92.5946 43.2959 92.5701 43.1978 92.5209 43.05C92.4224 42.7057 92.275 42.3365 92.2258 41.9429C92.0288 41.2294 91.9551 40.4178 91.8811 39.6551C91.8811 39.2123 91.8811 38.7695 91.9303 38.3266C91.9547 38.1789 91.6845 38.1296 91.6845 38.2774C91.5367 38.6958 91.3894 39.0894 91.3401 39.483C91.3401 39.8766 91.2416 40.2457 91.2416 40.6393C91.2416 41.4513 91.3401 42.2385 91.4631 43.0501C91.7089 44.5259 92.0781 45.9774 92.275 47.4536C92.3735 47.7735 92.3735 48.093 92.4472 48.4378V48.6592V48.9298V49.4463C92.4472 49.6433 92.4228 49.7907 92.3735 49.9629V50.2087V50.2824C92.3487 50.3072 92.2746 50.3564 92.2746 50.4057C92.2258 50.75 92.1273 51.0944 91.9796 51.4387C91.9551 51.5616 91.9303 51.6108 91.8811 51.7093C91.8322 51.7586 91.8074 51.7586 91.8074 51.8322C91.7337 52.0292 91.6352 52.2258 91.4631 52.4228C91.2416 52.7916 91.0202 53.1115 90.7251 53.4806C90.7251 53.505 90.7003 53.505 90.7003 53.5543L90.6022 53.628C90.553 53.6772 90.4793 53.7757 90.4052 53.8738C90.2823 54.0215 90.1346 54.1937 89.9872 54.3415C89.8395 54.4892 89.7414 54.5873 89.6429 54.6858C89.6921 53.825 89.5444 52.9637 89.323 52.1521C88.905 50.8236 88.3388 49.5936 87.7731 48.3392C87.2073 47.0107 86.7397 45.6085 86.5923 44.2064C86.5674 44.1079 86.5674 44.0094 86.543 44.0094C86.543 43.8617 86.3216 43.8617 86.3216 44.0094C86.2723 45.5101 86.5182 46.9615 86.8873 48.3881C87.2565 49.6673 87.6993 50.9222 88.0436 52.2258C88.0929 52.5209 88.1914 52.7916 88.2406 53.0866C88.2651 53.2344 88.3636 53.3573 88.3636 53.5046C88.3636 53.5783 88.388 53.6524 88.388 53.7261V53.8246C88.388 53.8738 88.4124 53.8738 88.4124 53.8738C88.4124 54.1689 88.4124 54.3903 88.388 54.6858C88.388 54.8336 88.3636 54.9565 88.3636 55.0794L88.3632 55.1042V55.1286C88.2651 55.2516 88.2402 55.3256 88.2402 55.3993C88.191 55.5222 88.191 55.67 88.0929 55.8173C88.0929 55.891 88.0437 55.9402 88.0437 56.0387C88.0188 56.0387 88.0188 56.0635 87.9944 56.1128C87.8959 56.285 87.773 56.5064 87.6993 56.6785C87.2565 57.0721 86.8381 57.515 86.4201 57.9577C85.5345 58.9663 84.7225 60.0241 84.1815 61.2541C83.8616 61.9921 83.6158 62.6563 83.4432 63.4186C83.3943 63.4679 83.3943 63.5664 83.3451 63.6156C83.0008 62.3119 82.3858 61.1064 81.7459 59.9256C80.9095 58.5727 80.0486 57.2194 79.4088 55.8172C78.548 54.1444 78.0066 52.4227 77.7852 50.6021C77.5638 48.7819 77.7359 46.8877 78.0066 45.1163C78.2525 43.1976 78.7694 41.3278 79.4088 39.4828C79.4332 39.3843 79.4581 39.2858 79.5073 39.1877C79.5566 39.0156 79.3107 38.8927 79.2122 39.0648C77.8593 41.7955 76.703 44.6735 76.3586 47.6992C75.9895 46.8384 75.6207 45.9771 75.0301 45.1407C74.1693 43.7878 73.0374 42.6318 71.9059 41.4755C71.3894 40.9098 70.8481 40.3684 70.3808 39.7534C70.0609 39.4583 69.8643 39.2121 69.6429 38.8926C69.3722 38.5727 69.2001 38.3513 69.0031 38.0313C68.5851 37.3427 68.2159 36.654 67.9701 35.9156C67.9208 35.7435 67.6502 35.842 67.6994 36.039C67.7979 36.7769 68.0193 37.5397 68.3144 38.2532C68.4373 38.5971 68.6343 38.9663 68.8309 39.2862C68.9294 39.4583 68.9787 39.5812 69.126 39.729C69.126 39.7534 69.126 39.8027 69.1997 39.8275C69.1997 39.8767 69.2489 39.9752 69.2489 40.0245C69.3474 40.123 69.3967 40.2215 69.4704 40.2703C70.4053 41.574 71.4139 42.7547 72.3977 43.9111C72.6435 44.2062 72.939 44.5017 73.1356 44.8705C73.2585 45.0182 73.3814 45.1411 73.4555 45.3133C73.554 45.4118 73.6277 45.461 73.6525 45.5591C73.7017 45.6084 73.7017 45.6328 73.7754 45.6576V45.7069C74.2427 46.3955 74.6118 47.1091 74.9317 47.7977C75.0302 47.9943 75.0794 48.1668 75.2024 48.3878C75.2024 48.4371 75.276 48.5356 75.276 48.6585C75.3253 48.7077 75.3497 48.7814 75.3497 48.8062C75.3497 48.8307 75.4234 49.0769 75.399 48.8799C75.4234 49.0277 75.4975 49.175 75.5219 49.3227H75.5463C75.5463 49.3964 75.5463 49.4212 75.5955 49.5197C75.6452 49.6919 75.6944 49.9377 75.7681 50.1099C76.0143 50.9956 76.2602 51.8568 76.506 52.7176C76.5553 52.8898 76.6538 53.1112 76.6782 53.3326C76.7274 53.4311 76.7274 53.554 76.8504 53.6525C76.8504 53.7754 76.8996 53.874 76.9733 54.0705C76.9981 54.1442 77.0229 54.1935 77.0229 54.2427C77.1703 54.7104 77.3673 55.1039 77.5394 55.5468C77.933 56.5062 78.3759 57.3918 78.9416 58.2526C77.7608 57.1703 76.3587 56.3091 75.0546 55.4483C74.1694 54.8577 73.3081 54.3412 72.4717 53.7755C72.2751 53.5785 72.103 53.4312 71.8816 53.259C71.7587 53.1853 71.6601 53.1113 71.5372 53.0132C71.5124 52.9883 71.4632 52.9391 71.4387 52.8898H71.3895C70.9467 52.5207 70.6267 52.1764 70.2824 51.7584C69.938 51.414 69.643 51.0204 69.323 50.6269C69.2245 50.5528 69.1753 50.4543 69.1261 50.3562L69.0524 50.2825C69.0524 50.2088 68.9787 50.1596 68.9787 50.1104C68.831 49.8885 68.708 49.6671 68.5359 49.3969C68.3145 48.9048 68.093 48.4375 67.9209 47.9211C67.7239 47.2816 67.5517 46.6911 67.478 46.0269C67.478 45.9039 67.2322 45.9039 67.2322 46.0761C67.2811 46.74 67.2811 47.4286 67.4288 48.0436C67.4781 48.6342 67.601 49.2492 67.7731 49.7657C68.1667 50.8728 68.6832 51.8569 69.3723 52.7915C70.7745 54.4151 72.5459 55.5958 74.2923 56.7273C75.178 57.2686 76.0636 57.8344 76.8752 58.4494C77.0967 58.5971 77.2932 58.7445 77.4658 58.9415C77.4658 58.9659 77.5395 58.9907 77.6136 59.0644C77.7365 59.1629 77.835 59.2366 77.9087 59.3595C78.3267 59.6546 78.6466 60.0237 79.0157 60.4173C79.3849 60.7864 79.68 61.1552 79.9751 61.5488C79.9751 61.6225 80.0243 61.6717 80.0736 61.7209C80.1228 61.7209 80.1228 61.7946 80.1228 61.7946C80.2213 61.8931 80.2706 62.016 80.3198 62.139C80.4676 62.3848 80.6149 62.5818 80.7378 62.8276C80.8363 63.0491 80.9837 63.2949 81.0577 63.5656C81.1066 63.6156 81.1066 63.6893 81.1066 63.7141C81.1558 63.8122 81.1803 63.837 81.1803 63.8614V63.9107C81.2539 64.0829 81.3032 64.2306 81.3524 64.4028C81.328 64.3043 81.3769 64.4028 81.3769 64.4272V64.5501C81.4013 64.5994 81.4754 64.6979 81.4754 64.7959C81.4998 64.8452 81.5246 64.8944 81.5246 64.9189V64.9925V65.5091C81.5246 65.6568 81.5002 65.7797 81.4754 65.9519V66.0504V66.0996V66.1489C81.4754 66.2225 81.4017 66.2718 81.4017 66.2966C81.4017 66.2966 81.3773 66.3703 81.3773 66.4195C81.3524 66.6414 81.2539 66.9364 81.1803 67.2071C81.0818 67.5514 80.9833 67.8469 80.8359 68.142C80.7623 68.1664 80.7374 68.2157 80.7374 68.3142C80.7374 68.2649 80.6882 68.4127 80.6882 68.4127C80.5653 68.6093 80.4916 68.8063 80.4423 68.9292C80.0488 69.5442 79.6796 70.11 79.2367 70.6757C79.1631 70.8234 79.0401 70.9463 78.9417 71.0941C78.8924 71.1678 78.8187 71.2414 78.7695 71.2907C78.7695 71.3151 78.671 71.3399 78.671 71.3892L78.6466 71.4136C78.4003 71.7091 78.1545 71.9794 77.9331 72.2748C77.3673 72.865 76.8508 73.3571 76.2847 73.8491C75.2024 74.9314 74.0217 75.9155 72.8654 76.9241C72.1519 77.5636 71.3896 78.1785 70.7005 78.8428C70.8975 77.982 71.0696 77.1207 71.217 76.2351C71.3159 74.7841 71.2666 73.3078 70.799 71.9793C70.2825 70.3557 69.3724 68.9535 68.3146 67.6743C67.3552 66.6413 66.4448 65.6571 65.6332 64.5256C65.6084 64.4764 65.5595 64.4271 65.5595 64.3779C65.4854 64.3042 65.4118 64.2057 65.3381 64.0828C65.2148 63.9106 65.1411 63.6892 65.0674 63.5171C65.0182 63.4186 64.9689 63.2712 64.9445 63.222C64.9445 63.1727 64.8953 63.1235 64.8708 63.0498V62.9761C64.7968 62.8284 64.7475 62.6562 64.7231 62.4348C64.6246 62.1397 64.6002 61.8198 64.5017 61.4506V61.4014V61.4506V61.1556V61.0326C64.4524 61.0078 64.4524 61.0078 64.4524 60.9834C64.4524 60.7864 64.428 60.5654 64.428 60.3684V59.6549C64.4036 59.335 64.4036 59.1628 64.3543 58.8429C64.3295 58.2279 64.3047 57.6129 64.3047 56.9735C64.3047 56.6292 63.7882 56.5799 63.7634 56.9491C63.7145 57.7607 63.5668 58.4986 63.4683 59.2858C63.4438 59.9256 63.3946 60.4914 63.3209 61.0571C63.3209 62.0657 63.3946 63.0498 63.7145 63.9844C64.0837 64.9685 64.7475 65.8786 65.3873 66.6902C65.8301 67.2559 66.2974 67.8217 66.8387 68.3875C67.1586 68.7318 67.4293 69.0517 67.6995 69.396C67.7732 69.593 67.921 69.7404 68.0687 69.8881C68.0687 69.9374 68.0931 69.9618 68.1179 69.9866C68.1668 70.1099 68.216 70.2085 68.3145 70.3314C68.6345 70.8971 68.954 71.5614 69.2002 72.2501C69.2246 72.2745 69.2246 72.2993 69.2246 72.3486C69.2491 72.4471 69.3231 72.5456 69.3231 72.5944C69.3724 72.767 69.3968 72.9391 69.446 73.1357C69.5197 73.2835 69.5445 73.4308 69.5445 73.5537C68.6345 72.0286 67.1337 71.02 65.6331 70.2084C64.0339 69.3964 62.3611 68.7077 60.8853 67.6992C60.7624 67.5763 60.5654 67.4286 60.3933 67.2808C60.3196 67.2564 60.2703 67.2072 60.2459 67.1827C60.2459 67.1827 60.2215 67.1827 60.2215 67.1583C60.1722 67.1583 60.1722 67.1583 60.1722 67.1091C60.123 67.1091 60.123 67.0846 60.123 67.0846C60.0245 67.035 59.9997 66.9857 59.9752 66.9365C59.6309 66.6414 59.3354 66.3215 59.0896 65.9772C58.9911 65.9279 58.9911 65.9035 58.9418 65.8294C58.9418 65.8294 58.9174 65.7557 58.8926 65.7557C58.8926 65.7313 58.8682 65.6572 58.7697 65.6328C58.7697 65.6328 58.7697 65.5836 58.7453 65.5592V65.4851C58.5975 65.2637 58.4746 65.0671 58.3517 64.8701C58.1303 64.378 57.9337 63.9352 57.8352 63.4187C57.7611 63.2713 57.7367 63.0743 57.7119 62.927C57.6626 62.8041 57.4412 62.8041 57.4412 62.927C57.4656 64.0093 57.6382 65.0671 58.1299 66.0264C58.5234 66.8384 59.0892 67.5763 59.7779 68.1913C61.0323 69.495 62.6807 70.307 64.3043 71.1186C65.067 71.5614 65.8294 71.9306 66.5429 72.4715C66.715 72.57 66.8628 72.6929 67.0594 72.7914C67.133 72.8899 67.1579 72.9143 67.2564 72.9391C67.2564 72.9636 67.2808 72.9636 67.2808 73.0128C67.3052 73.0621 67.3545 73.0621 67.3793 73.1113C67.5022 73.2098 67.6251 73.3571 67.7729 73.5049C67.945 73.7019 67.9943 73.8985 68.1172 74.1199C68.339 74.6856 68.3883 75.3251 68.3638 76.0386C68.3638 76.1123 68.3638 76.1863 68.3394 76.2844C68.3394 76.3337 68.3394 76.3581 68.315 76.4073V76.5058C68.315 76.6536 68.2165 76.8009 68.1921 76.9979C68.1668 77.3178 68.0684 77.6377 67.921 77.9821C67.7981 78.1791 67.7488 78.3512 67.6996 78.4742C67.6011 78.5723 67.6011 78.6463 67.5518 78.7444C67.5026 78.8185 67.4782 78.8922 67.4782 78.9414C67.306 79.3106 67.1338 79.6057 66.9124 79.95C66.1004 81.3522 65.1903 82.6314 64.3295 84.0336C64.1081 82.5822 63.6901 81.2537 63.0995 79.9256C61.8203 77.1209 59.8523 74.7101 57.7119 72.57C55.7195 70.528 53.5546 68.683 51.7833 66.42C51.6112 66.1493 51.3653 65.9035 51.1932 65.6328C51.1687 65.6328 51.1687 65.5592 51.1195 65.5099C51.1195 65.4362 51.021 65.387 51.021 65.3377C50.9225 65.19 50.824 65.0671 50.7503 64.9193C50.3812 64.4028 50.0861 63.8122 49.7662 63.1972C49.7169 63.0251 49.7169 62.9022 49.6677 62.7544C49.5692 62.6807 49.5692 62.5822 49.5447 62.5086L49.5203 62.4593V62.3856C49.3726 62.0165 49.2989 61.7214 49.2497 61.4015C49.176 61.0571 49.1019 60.7372 49.0527 60.3685V60.1471V60.0486C49.0527 60.0241 49.0527 59.9993 49.0282 59.9501C49.0527 59.9993 49.0527 59.9993 49.0282 59.9501C49.0282 59.7531 49.0282 59.5565 48.9297 59.3843C48.9297 58.7693 49.0282 58.1299 49.1019 57.5149C49.1019 57.2935 49.1263 57.0721 49.1756 56.8999C49.2493 56.8014 49.2741 56.777 49.3726 56.7029C49.4463 56.6537 49.5447 56.5556 49.6677 56.5063C49.6677 56.4571 49.7169 56.4571 49.7413 56.4571C49.7906 56.3834 49.8643 56.3586 49.8891 56.3586C50.3563 56.0387 50.8484 55.8173 51.3405 55.6207C52.4968 55.1042 53.6283 54.7106 54.8091 54.1445C56.1376 53.5051 57.4413 52.6931 58.5235 51.6601C59.5565 50.75 60.3929 49.6181 61.0079 48.29C61.5244 47.06 61.8199 45.7071 61.8443 44.3293C61.8939 43.6158 61.8203 42.9516 61.7462 42.2629C61.6477 41.5001 61.4511 40.7622 61.2049 40.0487C61.1064 39.8028 60.8605 39.8765 60.8605 40.1224C60.9098 40.9095 60.9098 41.6723 60.9098 42.4595C60.9098 43.1974 60.9098 43.9352 60.8605 44.5996C60.8361 44.7473 60.8361 44.9443 60.7624 45.1165V45.1657V45.2642C60.7624 45.313 60.7376 45.4115 60.6884 45.51C60.6147 45.83 60.5654 46.125 60.3933 46.4942C60.3196 46.7893 60.1719 47.0844 60.0245 47.3795C60.0245 47.4531 60.0245 47.478 60.0001 47.5272C60.0001 47.5272 59.9508 47.675 59.9264 47.675C59.8523 47.7979 59.8031 47.9945 59.729 48.1178C59.5324 48.4129 59.3603 48.6835 59.1389 48.9542C59.0896 49.1015 58.9911 49.2 58.9419 49.3478C58.9174 49.3722 58.7945 49.4459 58.7453 49.5444C58.7453 49.5444 58.7453 49.5936 58.6716 49.6429V49.6673C58.1795 50.1346 57.7367 50.6266 57.2446 51.045C56.9002 51.2908 56.6788 51.4878 56.4082 51.6844H56.3837C56.2852 51.6844 56.2608 51.7088 56.236 51.7088C56.1623 51.7585 56.1131 51.7829 56.039 51.857C55.9161 51.9799 55.6947 52.0784 55.5469 52.1769C54.9323 52.5208 54.268 52.89 53.579 53.1607C52.4967 53.6772 51.3404 54.0215 50.2333 54.5873C49.9382 54.7106 49.5939 54.8335 49.3481 55.0057C50.3318 52.275 51.6111 49.6429 52.1032 46.74C52.4231 45.2886 52.4967 43.8127 52.3246 42.3365C52.1032 40.59 51.6359 38.9664 50.9717 37.2936C50.898 37.0477 50.4552 37.1951 50.5288 37.4413C51.0946 39.3107 51.3408 41.2298 51.3408 43.1485C51.3408 43.5665 51.2916 43.9605 51.2916 44.3785C51.2668 44.5751 51.2175 44.7473 51.2175 44.9687C51.1931 45.0672 51.1683 45.1409 51.1683 45.2642V45.4119C51.1683 45.4119 51.1439 45.4119 51.1439 45.4612V45.5104C50.9961 46.2239 50.8239 46.9862 50.5533 47.6753C50.1104 49.176 49.4955 50.6274 48.9053 52.054C48.7575 52.3983 48.6346 52.7183 48.4873 53.0382C48.4376 52.8408 48.4376 52.6686 48.3395 52.472C47.9948 51.2664 47.4539 50.1101 46.7159 49.0523C46.3712 48.5114 45.9776 47.9945 45.6581 47.478C45.486 47.2322 45.3134 47.0108 45.1168 46.7401C45.0676 46.6416 44.9939 46.5679 44.9198 46.4202C44.8706 46.4202 44.8706 46.4202 44.8461 46.3958C44.7725 46.3221 44.7476 46.248 44.6984 46.1743C44.6496 46.1007 44.6247 46.0266 44.6003 46.0022C44.5755 45.9281 44.5018 45.8793 44.4774 45.7808C44.5759 45.9778 44.5018 45.8793 44.5018 45.83C44.4281 45.6823 44.3048 45.5349 44.256 45.4364C44.1082 45.1906 43.9116 44.9199 43.8131 44.6737C43.6654 44.4278 43.5673 44.1816 43.444 43.9109C43.4196 43.788 43.3703 43.6407 43.2962 43.5666C43.2718 43.4929 43.2718 43.4681 43.2718 43.3944H43.2226C43.1733 43.3452 43.1733 43.2959 43.1733 43.1978C43.0748 42.9272 42.9767 42.6073 42.9767 42.2874C42.9026 42.14 42.9026 41.943 42.8534 41.7708C42.829 41.6972 42.829 41.5987 42.829 41.525V41.4758V41.4265V41.3036C42.8046 40.91 42.829 40.5657 42.829 40.1228C42.8534 39.9258 42.9027 39.7292 42.9027 39.557C42.9027 39.3112 42.9763 39.0898 43.0011 38.8928C43.0256 38.7206 42.829 38.647 42.7797 38.7943C42.6324 39.1142 42.4846 39.4585 42.3617 39.8029C42.214 40.1472 42.1647 40.4916 42.0662 40.8852C41.9681 41.5002 41.9433 42.14 42.0174 42.8043C42.1651 43.9606 42.6324 45.0673 43.223 46.1007C43.42 46.3958 43.5429 46.642 43.7151 46.8878C43.5425 46.9615 43.3703 47.0844 43.0997 47.1337H43.026C42.9768 47.1829 42.9768 47.1829 42.9027 47.2322C42.8042 47.2322 42.7057 47.2814 42.5583 47.2814C42.1648 47.4292 41.7712 47.5273 41.3283 47.5765C40.5412 47.6994 39.8526 47.7731 39.0405 47.6994C38.2041 47.675 37.4169 47.478 36.679 47.2322C35.8182 46.8386 35.0798 46.3958 34.3419 45.7808C34.219 45.6823 34.0713 45.6086 34.0224 45.5101C33.8747 45.4116 33.6777 45.5594 33.8254 45.6823C35.0798 46.9615 36.5561 47.9946 38.2533 48.413C39.9506 48.831 41.6975 48.6344 43.2718 48.0931C43.5918 48.0194 43.8624 47.9702 44.1575 47.7732C44.2067 47.7487 44.256 47.7239 44.3052 47.6747C44.453 47.9205 44.5759 48.1419 44.7481 48.3633C44.7725 48.5115 44.9198 48.6344 44.9939 48.7573C45.0676 48.7818 45.0676 48.8558 45.1168 48.9051C45.1168 48.9543 45.1168 49.0036 45.1905 49.0036C45.8548 50.0366 46.4449 51.0208 46.8633 52.1771C46.9618 52.3492 47.011 52.5214 47.0847 52.6692V52.7184C47.0847 52.7677 47.134 52.7677 47.1584 52.8169C47.1584 52.9154 47.1828 53.0139 47.2076 53.112C47.3554 53.5056 47.4535 53.8747 47.5027 54.2683C47.5027 54.4653 47.5764 54.6863 47.6012 54.834C47.6012 54.957 47.6256 55.0799 47.6505 55.2276C47.4539 55.7437 47.2569 56.285 47.0847 56.8508C46.5682 58.6714 46.1254 60.5408 46.4453 62.435C46.8141 63.9601 47.6505 65.2886 48.6591 66.4938C47.4535 65.8788 46.1991 65.2638 45.0183 64.698C44.4525 64.4273 43.8624 64.2059 43.3703 63.9357C43.026 63.8372 42.8045 63.6898 42.5583 63.5665C42.3861 63.5172 42.2632 63.468 42.1647 63.4188C42.1155 63.4188 42.0418 63.3695 42.017 63.3203C41.9433 63.2714 41.8941 63.2714 41.796 63.2222C40.7382 62.7301 39.7052 62.238 38.721 61.6723C38.2289 61.3523 37.7861 61.0328 37.3433 60.7373C37.1463 60.59 36.9004 60.4178 36.679 60.2457C36.5561 60.172 36.482 60.0487 36.3591 59.9998C36.3591 59.975 36.3099 59.9258 36.2854 59.9258C36.3099 59.9258 36.1625 59.8273 36.1377 59.8273C35.6704 59.4337 35.3013 58.9908 34.9077 58.5729C34.7111 58.3759 34.5882 58.1793 34.3912 57.9579C34.3175 57.8838 34.219 57.7609 34.1205 57.6624C34.0713 57.5643 34.0468 57.515 34.0224 57.4658C33.9976 57.4165 33.9732 57.3921 33.9732 57.3673C33.604 56.8508 33.3089 56.3095 33.0627 55.793C32.9398 55.4979 32.7924 55.2024 32.6691 54.9073C32.4969 54.6122 32.3984 54.3416 32.3248 54.0465C31.8575 52.5951 31.6605 51.0944 31.3654 49.5693C30.8982 47.0108 30.2831 44.4523 29.0283 42.1401C28.7577 41.7465 28.4382 41.3281 28.1675 40.9345C28.3152 41.3037 28.3889 41.6724 28.5118 42.0416C30.0125 46.9372 30.6519 54.0956 31.1688 55.4978C31.5868 56.703 32.2262 57.8101 32.989 58.8186C33.0627 58.9171 33.1368 58.9663 33.1612 59.04C32.989 58.9908 32.8169 58.9415 32.6691 58.843C32.0297 58.6957 31.3654 58.5479 30.726 58.3757C30.4061 58.3265 30.0369 58.2528 29.6926 58.1792C29.5697 58.1543 29.422 58.1543 29.2254 58.1299C29.2009 58.1299 29.2009 58.0807 29.1517 58.0807C29.0532 58.0807 28.9547 58.0314 28.9059 58.0314C27.7247 57.81 26.4454 57.5642 25.2891 57.1213C25.1418 57.0473 25.0185 56.9736 24.8711 56.8999C24.8711 56.8999 24.7975 56.8999 24.7975 56.8755L24.7726 56.8751C24.699 56.8507 24.6005 56.8014 24.5512 56.777C24.2313 56.6048 23.9855 56.4571 23.7148 56.2849C23.3949 56.1127 23.1246 55.9157 22.9032 55.7192C22.7555 55.6207 22.6077 55.4977 22.4848 55.3992C22.4111 55.35 22.3375 55.3007 22.3375 55.3007C22.2638 55.2022 22.1653 55.1286 22.0916 55.0549C21.2552 54.2429 20.468 53.3328 19.8286 52.3491C19.7297 52.1521 19.5327 52.275 19.582 52.4228C20.2462 53.9235 21.1812 55.3256 22.3371 56.4571C23.2964 57.392 24.5513 58.007 25.8057 58.4991C28.192 59.3843 30.7505 59.6306 33.2105 60.4422C33.7026 60.5899 34.1698 60.7865 34.6619 61.0079C34.8833 61.0572 35.1047 61.1557 35.3013 61.2538C36.2114 62.0165 37.1955 62.6808 38.2286 63.271C40.3447 64.4766 42.6077 65.3871 44.7478 66.3956C44.92 66.4692 45.0677 66.4941 45.1907 66.5433C45.2647 66.5922 45.3384 66.6414 45.3876 66.6907C45.3876 66.6907 45.4861 66.7151 45.5354 66.7151C45.8061 66.838 46.0767 66.9857 46.3474 67.1331C46.8639 67.4038 47.4545 67.6744 47.9954 67.9939C48.6596 68.3875 49.3731 68.7567 49.9881 69.2239C49.717 69.1751 49.3727 69.1507 49.102 69.1507C48.2412 69.1014 47.4047 69.2243 46.5928 69.4213C45.6827 69.6672 44.8707 69.9871 44.0099 70.3807C42.5829 70.9464 41.2056 71.6107 39.7293 72.1028C39.582 72.2009 39.4342 72.2749 39.2621 72.2994C39.2128 72.2994 39.0899 72.3486 39.0406 72.3978C38.9914 72.3978 38.8929 72.4471 38.8192 72.4471C38.5734 72.57 38.2535 72.6193 38.0321 72.7422C37.4171 72.9144 36.8762 73.0373 36.2612 73.185C35.9657 73.2835 35.6706 73.2835 35.3999 73.3079C35.3014 73.3572 35.1541 73.3572 35.0063 73.3572H34.9078C34.8586 73.3572 34.7849 73.4064 34.7109 73.4064C34.1695 73.4064 33.6038 73.4064 33.0629 73.2835C32.9892 73.2835 32.9399 73.2835 32.8414 73.2591H32.7922C32.6693 73.2343 32.5219 73.2343 32.3742 73.185C32.1528 73.1358 31.8821 73.0373 31.587 72.9392C31.4641 72.8899 31.3164 72.8651 31.2179 72.767C31.1686 72.767 31.1194 72.7426 31.0457 72.6933C31.0213 72.6933 31.0213 72.6689 30.8979 72.6689C30.8491 72.5944 30.7262 72.57 30.6277 72.5456C30.6277 72.5456 30.5292 72.4963 30.5048 72.4471C30.4063 72.3979 30.2585 72.2994 30.1112 72.2749C29.545 71.9058 28.9549 71.537 28.4384 71.1186C28.3643 71.045 28.3151 70.9709 28.217 70.9465L28.1921 70.922C28.1921 70.8728 28.1429 70.8484 28.1429 70.8235C27.9463 70.6758 27.7741 70.5281 27.602 70.3807C27.3065 70.11 27.0362 69.8642 26.7163 69.5443C25.9043 68.6831 25.142 67.7485 24.4285 66.74C24.2563 66.543 23.9612 66.7892 24.0349 66.9858C24.6007 67.7978 25.1912 68.6094 25.757 69.4214C26.2487 70.0857 26.79 70.7251 27.3313 71.3401C27.602 71.6108 27.8478 71.8566 28.1185 72.1029C28.1677 72.1521 28.1677 72.1765 28.217 72.2014L28.3155 72.275C28.2911 72.2506 28.217 72.2506 28.3155 72.275C28.3643 72.3487 28.4384 72.398 28.5365 72.4472C28.6594 72.595 28.8072 72.7423 28.9793 72.89C29.4714 73.2836 29.9879 73.6524 30.5048 73.8986C31.0462 74.1937 31.5871 74.4151 32.1776 74.5873C32.3254 74.6117 32.3991 74.6117 32.5468 74.661C32.6697 74.6854 32.7682 74.6854 32.8419 74.7102C32.5468 74.661 32.8419 74.7102 32.9404 74.7102C32.9896 74.7595 33.0633 74.7595 33.1374 74.7595C33.408 74.858 33.6787 74.858 33.9738 74.8824C35.2038 74.9316 36.3846 74.7595 37.5653 74.4644C37.6145 74.4644 37.7623 74.3907 37.836 74.3659C37.3435 74.9316 36.9006 75.5222 36.4333 76.1124C35.8428 76.9732 35.277 77.8345 34.6127 78.6461C34.5883 78.6461 34.5883 78.7198 34.4898 78.7446C34.4898 78.769 34.4654 78.8182 34.4406 78.8431C34.3913 78.8923 34.2928 78.9908 34.1699 79.0893C34.0226 79.3107 33.8256 79.4581 33.6042 79.6302C33.432 79.8024 33.2598 79.9501 33.0628 80.1471C32.9399 80.2208 32.8414 80.2945 32.7678 80.3437C32.7185 80.393 32.6941 80.393 32.6693 80.4422C32.5463 80.4422 32.5215 80.4915 32.4723 80.5407C31.0705 81.4016 29.4221 81.6722 27.7741 81.5981C27.5771 81.5737 27.5527 81.8688 27.7741 81.8688C29.0778 82.0165 30.4063 82.0658 31.6611 81.6966C32.7185 81.4015 33.7271 80.8602 34.4899 80.1471C34.9079 79.8024 35.3015 79.458 35.6214 79.0893C35.695 78.9416 35.8184 78.8187 35.9413 78.6957C35.9657 78.6465 35.9657 78.6465 35.9657 78.6221C35.8428 78.745 36.0394 78.6221 36.0642 78.5484C36.1135 78.4495 36.1379 78.4251 36.1627 78.3758C36.3593 78.1788 36.507 77.9574 36.6548 77.736C36.9991 77.3424 37.2698 76.9488 37.6141 76.5304C37.7619 76.2597 37.934 76.0631 38.0569 75.8661C38.1554 75.8169 38.2047 75.7184 38.2539 75.5711C38.3765 75.5222 38.3765 75.473 38.4257 75.4237C38.4257 75.4237 38.4501 75.3745 38.475 75.3252C38.967 74.7839 39.4591 74.2674 40.0001 73.8245C40.123 73.726 40.2707 73.6275 40.4429 73.5046H40.4673C40.4673 73.4802 40.5166 73.4802 40.541 73.4802C40.8609 73.3324 41.156 73.2343 41.4266 73.0866C42.1646 72.8159 42.9024 72.5208 43.5916 72.2258C44.3295 71.8566 45.1415 71.5371 45.9287 71.2172C45.9779 71.2172 46.0023 71.1928 46.0764 71.1928C46.0764 71.1683 46.1256 71.1683 46.1256 71.1683C46.1993 71.1679 46.2978 71.1187 46.3963 71.0943C46.6177 71.0206 46.8391 70.9713 47.0113 70.9221C47.4541 70.8236 47.8477 70.7251 48.2905 70.7007C48.2905 70.7007 48.4382 70.6762 48.4875 70.6762H48.6597H49.2502C49.3732 70.6762 49.5702 70.7007 49.7175 70.7007C49.8652 70.7007 49.9633 70.7251 50.0126 70.7251C50.0618 70.7251 50.1111 70.7251 50.1603 70.7743C50.4798 70.848 50.8242 70.9221 51.1441 71.045C51.3163 71.0942 51.4392 71.1679 51.6114 71.2416C51.6358 71.2416 51.6606 71.266 51.6606 71.266C51.7591 71.3153 51.8328 71.3397 51.9557 71.4138C52.2263 71.5615 52.497 71.7581 52.8165 71.9303C52.8902 72.0532 53.0379 72.1517 53.2345 72.2502C53.259 72.2994 53.3082 72.3487 53.3082 72.3487C53.3819 72.4472 53.4311 72.4964 53.4559 72.4964C53.9973 72.9885 54.4889 73.5542 54.9317 74.12C55.0062 74.2429 55.1047 74.3659 55.2028 74.5136C55.2028 74.5629 55.3013 74.5873 55.3013 74.6121C55.3505 74.6858 55.375 74.7843 55.449 74.8824C55.6705 75.2023 55.8426 75.5466 56.0392 75.9158C56.2362 76.2601 56.4084 76.58 56.605 76.9488C56.9985 77.9822 57.294 79.0893 57.4906 80.3193C57.7613 81.7951 57.9086 83.2466 57.9579 84.772C58.0808 87.65 57.9579 90.5284 57.7609 93.4312C57.5647 96.1859 57.3185 98.8673 57.2448 101.623C57.2448 101.672 57.2692 101.721 57.294 101.721V101.82C57.294 101.844 57.3925 101.918 57.294 101.771C57.3185 101.844 57.3925 101.918 57.3925 101.992C57.4418 102.09 57.5403 102.237 57.6384 102.385C58.0564 102.754 58.524 103.049 59.0161 103.246C60.1232 103.738 61.3039 103.984 62.4603 104.009C63.5426 104.058 64.6252 103.886 65.6582 103.517C66.0517 103.369 66.4702 103.123 66.8882 102.852C67.1832 102.655 67.4539 102.36 67.5768 102.04C67.6505 101.992 67.7242 101.844 67.6998 101.721C67.552 100.811 67.4783 99.9987 67.4291 99.1131C67.3306 98.203 67.3062 97.2929 67.2814 96.4565C67.2814 94.6359 67.2814 92.7909 67.4291 90.9707C67.552 89.4208 67.6505 88.0679 68.1178 86.6165C68.167 86.4936 68.167 86.3459 68.2163 86.1985C68.5362 85.5343 68.9298 84.8456 69.3726 84.2306C69.5447 84.0829 69.6677 83.8859 69.8154 83.6893C69.8398 83.6401 69.8646 83.5664 69.9627 83.5171L70.012 83.4679C70.0612 83.3694 70.0612 83.345 70.1597 83.2709C70.4548 82.951 70.7747 82.6067 71.1439 82.3116C71.4882 81.9917 71.7833 81.721 72.251 81.4507C72.251 81.4015 72.3003 81.4015 72.3003 81.4015C72.3739 81.3522 72.4232 81.303 72.4972 81.2786C72.5709 81.2049 72.6942 81.1556 72.8172 81.0816C73.0134 80.9342 73.2592 80.7865 73.4314 80.6636C73.9234 80.4177 74.3414 80.27 74.8584 80.0978C74.8828 80.0486 74.9076 80.0486 74.9813 80.0486C74.9813 80.0486 75.0305 80.0486 75.0305 79.9993C75.1042 79.9501 75.2764 79.9256 75.3256 79.9008C75.6207 79.8271 75.8177 79.7531 76.0391 79.7038C76.9492 79.458 77.8349 79.3595 78.7942 79.2858H79.0404H79.4096C79.6066 79.2366 79.8769 79.2366 80.049 79.2366C80.5655 79.1873 81.0576 79.1873 81.5248 79.1873C82.4842 79.1873 83.4435 79.1873 84.354 79.1381C86.3219 79.0396 88.241 78.7937 90.1348 78.0558C91.3892 77.5393 92.6685 76.6781 93.6278 75.6695C95.5465 73.6523 96.6043 71.0446 97.7606 68.5602C97.8347 68.4128 97.8839 68.2651 97.9332 68.1422V68.0929C97.9332 68.0685 97.9332 68.0685 98.0069 68.0437C98.0313 67.9208 98.0805 67.7978 98.2039 67.6993V67.5764C98.2531 67.5028 98.3024 67.4287 98.3268 67.355C98.4004 67.1828 98.4741 67.0843 98.5234 66.8873C98.8433 66.2972 99.1384 65.7558 99.532 65.1657C99.7041 64.895 99.9011 64.6491 100.098 64.3785C100.171 64.2307 100.295 64.1327 100.344 63.9849C100.418 63.9601 100.418 63.9357 100.418 63.9108C100.442 63.9108 100.565 63.8123 100.467 63.8616C100.516 63.8123 100.565 63.7631 100.615 63.6894C100.639 63.6894 100.639 63.665 100.639 63.665C100.639 63.665 100.663 63.665 100.738 63.6157C101.156 63.0992 101.672 62.5827 102.213 62.1887C102.385 62.0166 102.115 61.7215 101.943 61.8444L101.943 61.8443Z" fill="#769C90"/>
</svg>
