<svg width="83" height="80" viewBox="0 3 83 80" fill="none" xmlns="http://www.w3.org/2000/svg">
<path d="M33.596 50.2741C33.7975 50.7081 34.0378 51.1188 34.3091 51.5141L34.9601 52.6378L31.767 62.8213L25.0865 73.2683C23.2963 76.1203 24.1643 79.8946 27.0163 81.6848C27.9928 82.2971 29.1088 82.6226 30.2558 82.6226C32.3715 82.6226 34.309 81.5531 35.4173 79.7783L41.8343 69.7421C42.0823 69.4631 42.2993 69.1686 42.4853 68.8663V76.5543C42.5086 79.8946 45.2521 82.6148 48.5923 82.6148H48.6466C52.0178 82.5838 54.7303 79.8248 54.6993 76.4768V64.6968C54.6993 64.5651 54.6915 64.4488 54.6838 64.3481C54.7535 63.1546 54.4746 61.9921 53.8856 60.9613L48.2281 51.1731L48.7628 49.4758L48.7861 49.4371L48.8016 49.3751L48.8558 49.1736L48.8636 49.1348L48.8868 49.0573C48.9023 49.0186 48.91 48.9721 48.9256 48.9333L49.1348 48.1816L50.6538 42.7178C50.7313 42.7643 50.8088 42.8031 50.8941 42.8496C51.6148 43.3146 52.3976 43.6013 53.2191 43.7021L62.8678 44.9188C63.1003 44.9498 63.3328 44.9653 63.5575 44.9653C66.4018 44.9653 68.812 42.8341 69.153 40.0131C69.3391 38.5173 68.9283 37.0371 67.9983 35.8513C67.0683 34.6656 65.7353 33.9061 64.2473 33.7278L56.1331 32.7048L52.8548 29.8683C52.6301 29.1398 52.3123 28.4501 51.9093 27.8146C55.2495 26.4893 57.6211 23.2266 57.6211 19.4213C57.6211 14.4458 53.5756 10.3926 48.5923 10.3926C43.6091 10.3926 39.5636 14.4458 39.5636 19.4213C39.5636 21.4751 40.2533 23.3661 41.408 24.8851C40.6175 25.2726 39.8813 25.7996 39.2458 26.4273L32.3251 29.4111C31.9375 29.5738 31.5733 29.7908 31.2091 30.0698C30.4728 30.5193 29.8683 31.1006 29.4188 31.7903L24.1023 39.9278C23.2808 41.1911 23.0018 42.7023 23.3118 44.1748C23.6218 45.6473 24.4975 46.9106 25.753 47.7321C26.6753 48.3288 27.737 48.6466 28.8298 48.6466C30.3488 48.6466 31.7748 48.0421 32.821 46.9958C32.821 47.0268 32.821 47.0656 32.821 47.1043C32.79 48.2203 33.0613 49.3208 33.596 50.2741ZM55.0558 19.4136C55.0558 22.9863 52.1651 25.8771 48.5923 25.8771C45.0196 25.8771 42.1288 22.9786 42.1288 19.4136C42.1288 15.8408 45.0196 12.9501 48.5923 12.9501C52.1651 12.9501 55.0558 15.8408 55.0558 19.4136ZM47.2748 27.0706C47.2593 27.0628 47.2438 27.0551 47.2283 27.0473C47.2438 27.0551 47.2593 27.0628 47.2748 27.0706ZM51.3746 40.0983L52.8471 34.7973V34.7586C52.9711 34.2781 53.0253 33.8131 53.0098 33.3791L55.048 35.1306L63.9218 36.2543C65.6113 36.4636 66.8126 38.0058 66.6033 39.6953C66.4173 41.2453 65.092 42.3923 63.5498 42.3923C63.4258 42.3923 63.294 42.3846 63.17 42.3691L53.5368 41.1523C53.0253 41.0903 52.5603 40.8888 52.1651 40.6176C51.917 40.5013 51.6768 40.3618 51.4676 40.1836L51.3746 40.0983ZM42.555 60.6668V60.6746L37.7423 52.3433V52.3278L36.4713 50.1268C36.4403 50.0803 36.4093 50.0338 36.3783 49.9873L35.9598 49.2588C35.9366 49.2046 35.9056 49.1581 35.8823 49.1116L35.8668 49.0883C35.5025 48.4683 35.3553 47.7786 35.3941 47.1121C35.3631 46.5463 35.4173 45.9573 35.5723 45.3838L38.0213 36.4713L36.3241 37.2076L31.426 44.6941C30.837 45.6008 29.845 46.0968 28.8375 46.0968C28.264 46.0968 27.675 45.9341 27.1558 45.6008C25.7298 44.6708 25.319 42.7643 26.249 41.3306L31.5655 33.2008C31.8445 32.7668 32.2243 32.4413 32.6505 32.2011C32.8598 32.0306 33.0845 31.8756 33.348 31.7671L40.7571 28.5741C41.8111 27.3418 43.3766 26.6056 45.0273 26.6056C45.5001 26.6056 45.9806 26.6676 46.4611 26.7916C46.5308 26.8071 46.5928 26.8381 46.6625 26.8613C46.926 26.9621 47.4143 27.1636 48.0111 27.4658C48.2203 27.5976 48.4218 27.7448 48.6156 27.8998C48.6311 27.9076 48.6388 27.9231 48.6543 27.9308C49.0496 28.2641 49.3983 28.6516 49.685 29.0856L49.6928 29.0933C50.1268 29.7443 50.4291 30.4883 50.5686 31.2711C50.7081 32.0461 50.6848 32.8676 50.4678 33.6736L46.4533 48.2668C46.4456 48.2978 46.4301 48.3288 46.4223 48.3598V48.3676L45.4458 51.4831L51.6613 62.2401C52.0565 62.9221 52.1883 63.6738 52.1031 64.4023C52.1108 64.4953 52.1341 64.5883 52.1341 64.6891V76.4691C52.1496 78.4298 50.5763 80.0263 48.6156 80.0496H48.5923C46.6471 80.0496 45.0583 78.4841 45.0428 76.5311V64.9681L42.555 60.6668ZM36.7038 55.6293L41.5243 63.9606L40.6408 66.7816C40.4703 67.3241 40.1758 67.7891 39.8038 68.1688L33.2628 78.3911C32.5886 79.4683 31.4338 80.0496 30.2558 80.0496C29.6125 80.0496 28.9615 79.8713 28.3725 79.5071C26.714 78.4686 26.2103 76.2753 27.2565 74.6168L34.0998 63.9141L36.7038 55.6293Z" fill="#769D91"/>
<path d="M55.8001 10.5022C55.4979 10.5022 55.1956 10.386 54.9631 10.1612C54.4904 9.69623 54.4749 8.93673 54.9399 8.46398L57.6524 5.67398C58.1174 5.20123 58.8769 5.18573 59.3496 5.65073C59.8224 6.11573 59.8379 6.87523 59.3729 7.34798L56.6604 10.138C56.4279 10.3782 56.1101 10.5022 55.8001 10.5022Z" fill="#769D91"/>
<path d="M58.7294 14.252C58.3342 14.252 57.9544 14.0583 57.7219 13.7095C57.3577 13.1515 57.5127 12.4075 58.0707 12.051L63.1702 8.72627C63.7282 8.36202 64.4722 8.51702 64.8287 9.07502C65.193 9.63302 65.038 10.377 64.48 10.7335L59.3804 14.0583C59.1789 14.19 58.9542 14.252 58.7294 14.252Z" fill="#769D91"/>
<path d="M60.7755 18.3822C60.264 18.3822 59.7912 18.0567 59.6285 17.5452C59.427 16.9097 59.7757 16.2354 60.4112 16.0339L64.1235 14.8559C64.759 14.6544 65.4333 15.0032 65.6348 15.6387C65.8363 16.2742 65.4875 16.9484 64.852 17.1499L61.1397 18.3279C61.0157 18.3667 60.8995 18.3822 60.7755 18.3822Z" fill="#769D91"/>
</svg>
