<svg width="64" height="64" viewBox="0 0 64 64" fill="none" xmlns="http://www.w3.org/2000/svg">
<g clip-path="url(#clip0_179_14840)">
<path d="M31.8685 61.8483C48.4485 61.8483 61.8893 48.4075 61.8893 31.8274C61.8893 15.2474 48.4485 1.80664 31.8685 1.80664C15.2884 1.80664 1.84766 15.2474 1.84766 31.8274C1.84766 48.4075 15.2884 61.8483 31.8685 61.8483Z" stroke="#103A71" stroke-width="2" stroke-miterlimit="10"/>
<mask id="mask0_179_14840" style="mask-type:luminance" maskUnits="userSpaceOnUse" x="7" y="7" width="50" height="50">
<path d="M31.7526 56.2806C45.3185 56.2806 56.3158 45.2833 56.3158 31.7174C56.3158 18.1516 45.3185 7.1543 31.7526 7.1543C18.1867 7.1543 7.18945 18.1516 7.18945 31.7174C7.18945 45.2833 18.1867 56.2806 31.7526 56.2806Z" fill="white"/>
</mask>
<g mask="url(#mask0_179_14840)">
<path d="M9.84828 42.9416L12.9659 33.8443C12.9659 33.8443 13.7027 30.4231 18.9012 30.4231C24.0996 30.4231 25.9398 30.3787 27.1321 30.3787C28.3243 30.3787 29.0797 30.997 29.0797 30.997L29.7276 29.6752C29.7276 29.6752 32.001 25.2246 35.9665 25.2246H49.0923C50.6511 25.2246 53.3577 26.4798 54.487 29.6418C54.8758 30.5527 56.8271 35.8807 56.8271 35.8807C56.8271 35.8807 55.3312 42.3344 54.5537 42.9416C53.6428 40.6904 50.914 34.0813 50.914 34.0813L51.2398 47.7069L50.329 56.8709L33.8227 59.7959L13.4843 54.6641L14.6728 49.3768L15.8243 39.8462L12.9659 47.3181C12.9659 47.3181 9.60761 43.6414 9.84828 42.9416Z" fill="#103A71" stroke="white" stroke-miterlimit="10"/>
<path d="M22.3903 28.6635C25.7276 28.6635 28.433 25.9581 28.433 22.6208C28.433 19.2835 25.7276 16.5781 22.3903 16.5781C19.0531 16.5781 16.3477 19.2835 16.3477 22.6208C16.3477 25.9581 19.0531 28.6635 22.3903 28.6635Z" fill="#103A71" stroke="white" stroke-miterlimit="10"/>
<path d="M42.3378 23.4686C45.7119 23.4686 48.4471 20.7334 48.4471 17.3593C48.4471 13.9852 45.7119 11.25 42.3378 11.25C38.9637 11.25 36.2285 13.9852 36.2285 17.3593C36.2285 20.7334 38.9637 23.4686 42.3378 23.4686Z" fill="#103A71" stroke="white" stroke-miterlimit="10"/>
<path d="M32.2531 44.6507C34.8501 44.6507 36.9554 42.5454 36.9554 39.9484C36.9554 37.3514 34.8501 35.2461 32.2531 35.2461C29.6561 35.2461 27.5508 37.3514 27.5508 39.9484C27.5508 42.5454 29.6561 44.6507 32.2531 44.6507Z" fill="white" stroke="white" stroke-miterlimit="10"/>
<path d="M20.7225 55.2897L25.5062 47.903C25.5062 47.903 26.0912 45.5 29.4717 45.5H35.7736C36.8992 45.5 38.806 47.081 39.4762 48.8805C40.1908 50.6022 43.3491 55.1823 43.3491 55.1823L39.9686 56.482L36.9473 51.302V59.2145L27.128 58.8887L27.1872 51.1391L24.488 56.656L20.7188 55.2897H20.7225Z" fill="white" stroke="white" stroke-miterlimit="10"/>
</g>
<path d="M31.7526 56.2806C45.3185 56.2806 56.3158 45.2833 56.3158 31.7174C56.3158 18.1516 45.3185 7.1543 31.7526 7.1543C18.1867 7.1543 7.18945 18.1516 7.18945 31.7174C7.18945 45.2833 18.1867 56.2806 31.7526 56.2806Z" stroke="white" stroke-miterlimit="10"/>
</g>
<defs>
<clipPath id="clip0_179_14840">
<rect width="63" height="63" fill="white" transform="translate(0.365234 0.326172)"/>
</clipPath>
</defs>
</svg>
