<svg width="64" height="64" viewBox="0 0 64 64" fill="none" xmlns="http://www.w3.org/2000/svg">
<g clip-path="url(#clip0_179_14811)">
<path d="M31.8685 61.8483C48.4485 61.8483 61.8893 48.4075 61.8893 31.8274C61.8893 15.2474 48.4485 1.80664 31.8685 1.80664C15.2884 1.80664 1.84766 15.2474 1.84766 31.8274C1.84766 48.4075 15.2884 61.8483 31.8685 61.8483Z" stroke="#103A71" stroke-width="2" stroke-miterlimit="10"/>
<path d="M38.8692 12.0156C45.4784 12.0156 50.8398 17.4325 50.8398 24.1121C50.8398 30.7916 45.4821 36.2085 38.8692 36.2085C32.2563 36.2085 26.9023 30.7916 26.9023 24.1121C26.9023 17.4325 32.26 12.0156 38.8692 12.0156Z" fill="#103A71"/>
<path d="M24.6949 34.5794C23.81 29.6808 20.111 26.0782 16.8268 25.9597L16.5195 24.2676L15.0829 24.6267L15.3902 26.3336C12.3948 27.6296 10.7249 32.0838 11.6061 36.949C12.5799 42.3326 16.2974 46.1685 19.9111 45.5132C23.5249 44.8615 25.665 39.9667 24.6949 34.5831V34.5794Z" fill="#103A71"/>
<path d="M38.1758 17.3887V24.9716L41.8821 30.1775" stroke="white" stroke-width="2" stroke-linecap="round" stroke-linejoin="round"/>
<path d="M30.9457 51.8009C25.6176 52.4303 20.7894 48.5981 20.1562 43.2441" stroke="#103A71" stroke-width="4" stroke-miterlimit="10"/>
<path d="M39.9499 39.1816C40.62 45.4205 36.5879 51.067 30.9414 51.8002" stroke="#103A71" stroke-width="4" stroke-miterlimit="10"/>
<path d="M42.6389 41.2185H36.1038C34.6006 41.2185 33.375 39.9892 33.375 38.4896V37.1234C33.375 35.6238 34.6043 34.3945 36.1038 34.3945H42.6389C44.1422 34.3945 45.3678 35.6238 45.3678 37.1234V38.4896C45.3678 39.9929 44.1385 41.2185 42.6389 41.2185Z" fill="#103A71" stroke="white" stroke-miterlimit="10"/>
</g>
<defs>
<clipPath id="clip0_179_14811">
<rect width="63" height="63" fill="white" transform="translate(0.365234 0.326172)"/>
</clipPath>
</defs>
</svg>
