<svg width="47" height="48" viewBox="0 0 47 48" fill="none" xmlns="http://www.w3.org/2000/svg">
<path d="M20.1239 20.4237C17.4624 19.0905 15.7986 16.514 16.1358 13.8054C16.5705 10.177 20.3915 7.67088 24.6667 8.19404C25.4833 8.29811 26.2525 8.495 26.9687 8.78753C26.9687 8.78753 35.7979 11.7184 34.1368 25.5541C33.0806 34.2735 28.5573 37.4209 25.369 38.5657C24.4326 38.9538 23.3819 39.1732 22.2783 39.2041C22.2086 39.2013 22.1612 39.2041 22.1278 39.2041H22.1166L22.0943 39.1957C21.7097 39.1901 21.3195 39.1732 20.9349 39.1198C16.6625 38.5853 13.555 35.2242 13.9898 31.5958C14.3047 29.0334 16.3002 27.0307 18.9646 26.2572C18.6608 25.4247 18.5465 24.5274 18.658 23.6133C18.8001 22.3982 19.3352 21.3097 20.1267 20.4209" fill="#103A71"/>
<path d="M23.5 46.3262C35.9264 46.3262 46 36.2526 46 23.8262C46 11.3998 35.9264 1.32617 23.5 1.32617C11.0736 1.32617 1 11.3998 1 23.8262C1 36.2526 11.0736 46.3262 23.5 46.3262Z" stroke="#103A71" stroke-width="1.42857" stroke-miterlimit="10"/>
</svg>
