<svg width="47" height="47" viewBox="0 0 47 47" fill="none" xmlns="http://www.w3.org/2000/svg">
<path d="M14.5242 31.25V30.5196H15.6275V27.2719H14.7184V26.7124C14.9619 26.6658 15.1743 26.6114 15.3555 26.5493C15.5368 26.4819 15.7052 26.4017 15.8606 26.3084H16.5288V30.5196H17.5V31.25H14.5242Z" fill="#103A71"/>
<path d="M22.014 31.25V30.7294C22.475 30.284 22.8713 29.8877 23.2028 29.5406C23.5395 29.1884 23.7985 28.8699 23.9798 28.585C24.1611 28.2949 24.2517 28.0255 24.2517 27.7769C24.2517 27.5179 24.1818 27.3107 24.0419 27.1553C23.9021 26.9999 23.7 26.9222 23.4359 26.9222C23.2442 26.9222 23.0681 26.9766 22.9075 27.0854C22.7521 27.1942 22.6071 27.3237 22.4724 27.4739L21.9752 26.9766C22.2031 26.7332 22.4388 26.5467 22.6822 26.4172C22.9257 26.2825 23.2157 26.2152 23.5524 26.2152C24.029 26.2152 24.4071 26.3524 24.6868 26.627C24.9717 26.9015 25.1141 27.2693 25.1141 27.7303C25.1141 28.0204 25.0313 28.3182 24.8655 28.6238C24.7049 28.9242 24.4874 29.2324 24.2129 29.5484C23.9435 29.8644 23.6457 30.1959 23.3193 30.5429C23.4488 30.5326 23.5887 30.5222 23.7389 30.5119C23.8891 30.4963 24.0238 30.4886 24.1429 30.4886H25.355V31.25H22.014Z" fill="#103A71"/>
<path d="M30.7065 31.3432C30.3077 31.3432 29.971 31.2759 29.6965 31.1412C29.4271 31.0014 29.2044 30.8356 29.0283 30.644L29.4556 30.069C29.6058 30.2192 29.7768 30.3487 29.9684 30.4575C30.1601 30.5611 30.3802 30.6129 30.6288 30.6129C30.8982 30.6129 31.1158 30.5481 31.2815 30.4186C31.4524 30.284 31.5379 30.1001 31.5379 29.867C31.5379 29.696 31.4939 29.5484 31.4058 29.4241C31.3229 29.2946 31.1753 29.1962 30.9629 29.1288C30.7558 29.0615 30.4631 29.0278 30.085 29.0278V28.3752C30.5719 28.3752 30.9086 28.3001 31.095 28.1499C31.2815 27.9996 31.3747 27.8106 31.3747 27.5827C31.3747 27.3755 31.31 27.2149 31.1805 27.1009C31.051 26.9818 30.8723 26.9222 30.6444 26.9222C30.4527 26.9222 30.2766 26.9663 30.116 27.0543C29.9555 27.1372 29.8001 27.2486 29.6499 27.3884L29.1914 26.8368C29.4038 26.6503 29.6291 26.5001 29.8674 26.3861C30.1109 26.2722 30.3802 26.2152 30.6755 26.2152C31.152 26.2152 31.5379 26.3291 31.8332 26.557C32.1284 26.7798 32.276 27.1009 32.276 27.5205C32.276 27.795 32.1983 28.0281 32.0429 28.2198C31.8927 28.4063 31.6829 28.5513 31.4136 28.6549V28.686C31.7037 28.7637 31.9471 28.9061 32.144 29.1133C32.3408 29.3205 32.4392 29.5873 32.4392 29.9136C32.4392 30.214 32.3589 30.4704 32.1983 30.6828C32.0429 30.8952 31.8332 31.0583 31.569 31.1723C31.31 31.2863 31.0225 31.3432 30.7065 31.3432Z" fill="#103A71"/>
<path d="M23.5 45.8262C35.9264 45.8262 46 35.7526 46 23.3262C46 10.8998 35.9264 0.826172 23.5 0.826172C11.0736 0.826172 1 10.8998 1 23.3262C1 35.7526 11.0736 45.8262 23.5 45.8262Z" stroke="#103A71" stroke-width="1.42857" stroke-miterlimit="10"/>
<path d="M8.93164 22.5176H38.3921V24.7838H8.93164V22.5176Z" fill="#103A71"/>
<path d="M10.0645 17.0137L10.0645 24.7835L7.79827 24.7835L7.79827 17.0137L10.0645 17.0137Z" fill="#103A71"/>
<path d="M39.2012 17.0137L39.2012 24.7835L36.935 24.7835L36.935 17.0137L39.2012 17.0137Z" fill="#103A71"/>
<path d="M16.5391 18.6309L16.5391 23.487L15.5678 23.487L15.5678 18.6309L16.5391 18.6309Z" fill="#103A71"/>
<path d="M24.3086 18.6309L24.3086 23.487L23.3374 23.487L23.3374 18.6309L24.3086 18.6309Z" fill="#103A71"/>
<path d="M31.4316 18.6309L31.4316 23.487L30.4604 23.487L30.4604 18.6309L31.4316 18.6309Z" fill="#103A71"/>
</svg>
