<svg width="64" height="64" viewBox="0 0 64 64" fill="none" xmlns="http://www.w3.org/2000/svg">
<g clip-path="url(#clip0_179_14804)">
<path d="M31.8685 61.8483C48.4485 61.8483 61.8893 48.4075 61.8893 31.8274C61.8893 15.2474 48.4485 1.80664 31.8685 1.80664C15.2884 1.80664 1.84766 15.2474 1.84766 31.8274C1.84766 48.4075 15.2884 61.8483 31.8685 61.8483Z" stroke="#103A71" stroke-width="2" stroke-miterlimit="10"/>
<path d="M43.0265 14.0293H20.8923C16.8884 14.0293 13.6426 17.2751 13.6426 21.279V43.4133C13.6426 47.4172 16.8884 50.663 20.8923 50.663H43.0265C47.0304 50.663 50.2763 47.4172 50.2763 43.4133V21.279C50.2763 17.2751 47.0304 14.0293 43.0265 14.0293Z" fill="#103A71"/>
<path d="M20.4448 22.7159C23.7586 19.9723 33.1299 13.937 43.4158 22.7529C44.1267 23.3602 44.2304 24.4228 43.6527 25.1559C42.442 26.6962 40.4463 29.1807 39.5058 30.3507C39.1763 30.7617 38.6764 31.0024 38.147 31.0024H25.7099C25.1804 31.0024 24.6768 30.7617 24.3473 30.347L20.193 25.1448C19.6006 24.4006 19.7116 23.3194 20.4448 22.7122V22.7159Z" fill="white"/>
<path d="M32.5751 29.7287L37.3255 22.5604C37.5403 22.2383 38.0401 22.4493 37.9587 22.827L36.3925 29.9953C36.3591 30.1545 36.2147 30.2693 36.0518 30.2693H32.8676C32.5899 30.2693 32.4232 29.9582 32.5751 29.725V29.7287Z" fill="#103A71"/>
</g>
<defs>
<clipPath id="clip0_179_14804">
<rect width="63" height="63" fill="white" transform="translate(0.365234 0.326172)"/>
</clipPath>
</defs>
</svg>
