<svg width="64" height="64" viewBox="0 0 64 64" fill="none" xmlns="http://www.w3.org/2000/svg">
<g clip-path="url(#clip0_179_14833)">
<path d="M31.8685 61.8483C48.4485 61.8483 61.8893 48.4075 61.8893 31.8274C61.8893 15.2474 48.4485 1.80664 31.8685 1.80664C15.2884 1.80664 1.84766 15.2474 1.84766 31.8274C1.84766 48.4075 15.2884 61.8483 31.8685 61.8483Z" stroke="#103A71" stroke-width="2" stroke-miterlimit="10"/>
<path fill-rule="evenodd" clip-rule="evenodd" d="M27.9715 27.7579C28.0345 28.6095 27.9345 29.4648 27.679 30.2831C26.6756 33.3118 24.0394 35.5075 20.8773 35.937L20.7811 35.9481C18.8853 36.1739 16.9711 35.7037 15.3938 34.6337C12.9537 32.9564 11.6023 30.098 11.8467 27.147C12.0577 24.8143 13.3536 23.1296 14.6384 21.2931C16.1935 19.0716 17.7153 16.8315 19.2667 14.6099C19.474 14.3766 19.7036 14.1656 19.9554 13.9805H20.0294C20.2775 14.1508 20.5034 14.347 20.6996 14.5729C22.0844 16.5723 23.3285 18.6865 24.7244 20.66C26.2276 22.7927 27.7975 25.1698 27.979 27.7579" fill="white"/>
<path d="M27.9715 27.7579C28.0345 28.6095 27.9345 29.4648 27.679 30.2831C26.6756 33.3118 24.0394 35.5075 20.8773 35.937L20.7811 35.9481C18.8853 36.1739 16.9711 35.7037 15.3938 34.6337C12.9537 32.9564 11.6023 30.098 11.8467 27.147C12.0577 24.8143 13.3536 23.1296 14.6384 21.2931C16.1935 19.0716 17.7153 16.8315 19.2667 14.6099C19.474 14.3766 19.7036 14.1656 19.9554 13.9805H20.0294C20.2775 14.1508 20.5034 14.347 20.6996 14.5729C22.0844 16.5723 23.3285 18.6865 24.7244 20.66C26.2276 22.7927 27.7975 25.1698 27.979 27.7579" stroke="#103A71" stroke-width="4" stroke-miterlimit="10"/>
<path fill-rule="evenodd" clip-rule="evenodd" d="M50.3469 32.8979C50.3988 33.6125 50.3136 34.3308 50.0989 35.0121C49.2584 37.5521 47.0479 39.3885 44.3968 39.7514L44.3154 39.7625C42.7269 39.9513 41.1237 39.5589 39.7982 38.6591C37.7543 37.2521 36.6176 34.8565 36.825 32.3832C37.0027 30.4282 38.0876 29.0175 39.165 27.4735C40.4683 25.6111 41.7458 23.7339 43.0454 21.8715C43.2194 21.6752 43.4119 21.4975 43.623 21.3457H43.6859C43.8933 21.4864 44.0821 21.653 44.2487 21.8419C45.4113 23.5154 46.4518 25.289 47.6218 26.9478C48.8844 28.7361 50.1988 30.7281 50.3506 32.8979" fill="white"/>
<path d="M50.3469 32.8979C50.3988 33.6125 50.3136 34.3308 50.0989 35.0121C49.2584 37.5521 47.0479 39.3885 44.3968 39.7514L44.3154 39.7625C42.7269 39.9513 41.1237 39.5589 39.7982 38.6591C37.7543 37.2521 36.6176 34.8565 36.825 32.3832C37.0027 30.4282 38.0876 29.0175 39.165 27.4735C40.4683 25.6111 41.7458 23.7339 43.0454 21.8715C43.2194 21.6752 43.4119 21.4975 43.623 21.3457H43.6859C43.8933 21.4864 44.0821 21.653 44.2487 21.8419C45.4113 23.5154 46.4518 25.289 47.6218 26.9478C48.8844 28.7361 50.1988 30.7281 50.3506 32.8979" stroke="#103A71" stroke-width="4" stroke-miterlimit="10"/>
<path fill-rule="evenodd" clip-rule="evenodd" d="M46.1236 35.9297C46.2309 37.4108 46.0569 38.9029 45.6126 40.321C43.8687 45.5898 39.2774 49.4072 33.779 50.1552L33.6124 50.1737C30.3134 50.5662 26.9884 49.7516 24.2411 47.8855C19.9979 44.9641 17.643 39.9952 18.0688 34.8634C18.4354 30.8053 20.6866 27.8765 22.923 24.6775C25.6259 20.8119 28.2732 16.9168 30.9725 13.0513C31.3316 12.644 31.7315 12.2774 32.1721 11.959H32.3017C32.7312 12.2515 33.1237 12.5958 33.468 12.9883C35.8784 16.4614 38.0407 20.1418 40.4697 23.5815C43.0874 27.2915 45.8162 31.4273 46.131 35.926" fill="#103A71"/>
</g>
<defs>
<clipPath id="clip0_179_14833">
<rect width="63" height="63" fill="white" transform="translate(0.365234 0.326172)"/>
</clipPath>
</defs>
</svg>
