<svg width="64" height="64" viewBox="0 0 64 64" fill="none" xmlns="http://www.w3.org/2000/svg">
<g clip-path="url(#clip0_179_14823)">
<path d="M31.8685 61.8483C48.4485 61.8483 61.8893 48.4075 61.8893 31.8274C61.8893 15.2474 48.4485 1.80664 31.8685 1.80664C15.2884 1.80664 1.84766 15.2474 1.84766 31.8274C1.84766 48.4075 15.2884 61.8483 31.8685 61.8483Z" stroke="#103A71" stroke-width="2" stroke-miterlimit="10"/>
<path d="M32.5747 23.8728C33.6144 19.9321 30.3987 15.6668 25.3924 14.346C20.386 13.0251 15.4847 15.1488 14.445 19.0895C13.4053 23.0301 16.621 27.2954 21.6273 28.6163C26.6337 29.9371 31.535 27.8134 32.5747 23.8728Z" fill="white" stroke="#103A71" stroke-width="4" stroke-miterlimit="10"/>
<path d="M27.9023 21.6984C28.3791 19.8912 26.9031 17.9347 24.6055 17.3285C22.308 16.7224 20.0589 17.696 19.5821 19.5032C19.1053 21.3104 20.5813 23.2668 22.8788 23.873C25.1764 24.4792 27.4254 23.5055 27.9023 21.6984Z" fill="white" stroke="#103A71" stroke-width="4" stroke-miterlimit="10"/>
<path d="M44.933 31.2283C48.2628 30.0216 50.1924 26.9191 49.2428 24.2987C48.2931 21.6782 44.8239 20.5322 41.4941 21.7389C38.1642 22.9456 36.2347 26.0481 37.1843 28.6685C38.1339 31.289 41.6031 32.435 44.933 31.2283Z" fill="white" stroke="#103A71" stroke-width="4" stroke-miterlimit="10"/>
<path d="M43.7897 28.075C45.3181 27.5211 46.2041 26.098 45.7687 24.8964C45.3332 23.6948 43.7412 23.1698 42.2128 23.7237C40.6843 24.2775 39.7983 25.7006 40.2338 26.9022C40.6692 28.1038 42.2612 28.6289 43.7897 28.075Z" fill="white" stroke="#103A71" stroke-width="4" stroke-miterlimit="10"/>
<path d="M35.1433 51.5735C41.9479 50.3969 46.7135 45.1013 45.7874 39.7454C44.8613 34.3896 38.5943 31.0016 31.7897 32.1782C24.985 33.3548 20.2195 38.6504 21.1456 44.0062C22.0716 49.3621 28.3386 52.7501 35.1433 51.5735Z" fill="#103A71"/>
<path d="M33.8831 44.2555C37.8829 43.5639 40.7807 41.0104 40.3557 38.5521C39.9306 36.0938 36.3436 34.6616 32.3438 35.3532C28.344 36.0448 25.4461 38.5983 25.8712 41.0566C26.2963 43.5149 29.8833 44.9471 33.8831 44.2555Z" fill="#103A71" stroke="white" stroke-width="4" stroke-miterlimit="10"/>
</g>
<defs>
<clipPath id="clip0_179_14823">
<rect width="63" height="63" fill="white" transform="translate(0.365234 0.326172)"/>
</clipPath>
</defs>
</svg>
