<svg width="66" height="64" viewBox="0 0 66 64" fill="none" xmlns="http://www.w3.org/2000/svg">
<path d="M52.9195 7.61914H17.6172C16.5126 7.61914 15.6172 8.51457 15.6172 9.61914V57.4287C15.6172 58.5332 16.5126 59.4287 17.6172 59.4287H52.9195C54.0241 59.4287 54.9195 58.5332 54.9195 57.4287V9.61914C54.9195 8.51457 54.0241 7.61914 52.9195 7.61914Z" fill="#00B0A9"/>
<path d="M50.3899 7.375H16.2461V54.7383H50.3899V7.375Z" fill="white"/>
<path d="M50.3899 7.375H16.2461V54.7383H50.3899V7.375Z" fill="white"/>
<path d="M50.3899 7.375H16.2461V54.7383H50.3899V7.375Z" stroke="#1E3D70" stroke-width="2" stroke-linecap="round" stroke-linejoin="round"/>
<path d="M19.4741 14.4336H12.9815C12.0824 14.4336 11.3535 15.155 11.3535 16.0448V16.3945C11.3535 17.2843 12.0824 18.0057 12.9815 18.0057H19.4741C20.3732 18.0057 21.1021 17.2843 21.1021 16.3945V16.0448C21.1021 15.155 20.3732 14.4336 19.4741 14.4336Z" fill="white" stroke="#1E3D70" stroke-width="2" stroke-linecap="round" stroke-linejoin="round"/>
<path d="M19.4741 24.0117H12.9815C12.0824 24.0117 11.3535 24.7331 11.3535 25.6229V25.9726C11.3535 26.8624 12.0824 27.5838 12.9815 27.5838H19.4741C20.3732 27.5838 21.1021 26.8624 21.1021 25.9726V25.6229C21.1021 24.7331 20.3732 24.0117 19.4741 24.0117Z" fill="white" stroke="#1E3D70" stroke-width="2" stroke-linecap="round" stroke-linejoin="round"/>
<path d="M19.4741 32.9473H12.9815C12.0824 32.9473 11.3535 33.6686 11.3535 34.5585V34.9081C11.3535 35.798 12.0824 36.5194 12.9815 36.5194H19.4741C20.3732 36.5194 21.1021 35.798 21.1021 34.9081V34.5585C21.1021 33.6686 20.3732 32.9473 19.4741 32.9473Z" fill="white" stroke="#1E3D70" stroke-width="2" stroke-linecap="round" stroke-linejoin="round"/>
<path d="M19.4741 42.5215H12.9815C12.0824 42.5215 11.3535 43.2429 11.3535 44.1327V44.4824C11.3535 45.3722 12.0824 46.0936 12.9815 46.0936H19.4741C20.3732 46.0936 21.1021 45.3722 21.1021 44.4824V44.1327C21.1021 43.2429 20.3732 42.5215 19.4741 42.5215Z" fill="white" stroke="#1E3D70" stroke-width="2" stroke-linecap="round" stroke-linejoin="round"/>
<path d="M44.7889 13.334H23.3105V20.7617H44.7889V13.334Z" fill="white" stroke="#1E3D70" stroke-width="2" stroke-linecap="round" stroke-linejoin="round"/>
</svg>
